<svg width="513" height="698" viewBox="0 0 513 698" fill="none" xmlns="http://www.w3.org/2000/svg">
<g filter="url(#filter0_f_102_368)">
<path d="M179.6 33.8707C170.8 64.1373 168.133 74.404 160 109.337L155.733 127.871L151.867 121.737L148 115.471L150.8 103.871C153.067 94.5373 153.6 89.0706 153.2 77.4706C152.933 69.3373 152.8 52.1373 152.8 39.204C152.8 26.1373 152.8 15.604 152.533 15.8707C152.4 16.004 150.4 25.0706 148 36.1373C143.2 58.404 141.6 80.9373 143.6 98.404C144.267 104.137 144.667 108.804 144.4 108.804C144.267 108.804 143.067 107.337 141.867 105.471C140.133 102.804 139.333 97.204 138.667 82.404C137.6 61.0706 137.733 61.4706 125.6 38.804C122.4 32.9373 121.067 28.2706 120.4 21.4706C119.2 9.604 117.6 14.004 117.467 29.4706C117.333 43.204 119.2 54.6707 124 68.804C126 75.0706 127.6 80.2706 127.467 80.404C127.333 80.5373 122.533 76.404 116.667 71.204C106.8 62.6707 61.2 30.004 60.2667 30.804C59.4667 31.4706 86.8 66.1373 95.2 75.0706C103.2 83.7373 116.267 92.6707 129.6 98.804C136.667 102.004 144 108.537 144 111.604C144 112.404 141.467 111.204 138.267 108.937C127.733 101.737 116.667 96.9373 102.533 93.4706C88.2667 90.004 66.6667 86.1373 62 86.1373C58.9333 86.2706 104.133 106.004 118 110.671C123.2 112.404 131.867 114.937 137.467 116.137L147.6 118.537L152.4 128.271C155.067 133.737 156.933 138.137 156.533 138.137C156.133 138.137 146.533 133.071 135.2 126.804C123.867 120.537 110.667 113.871 105.867 112.004C96.9333 108.671 38.8 93.4706 38 94.404C37.6 94.804 71.6 110.537 102 123.871C108.667 126.804 124.4 132.937 137.2 137.471C160.133 145.737 163.733 147.871 164 153.604C164 154.537 156.667 151.871 147.733 147.871C124.4 137.471 118.133 135.737 92.8 132.004C67.7333 128.271 56.2667 124.671 29.4667 112.004C21.0667 108.004 13.8667 104.804 13.4667 104.804C13.0667 104.804 16.9333 107.871 22 111.604C34 120.271 48.1333 127.471 64.8 133.204C72 135.737 84 140.937 91.3333 144.671C110.133 154.404 136.267 161.737 160.533 164.271L169.2 165.204L172 171.737C173.6 175.471 174.533 178.671 174.267 179.071C173.867 179.337 160.133 175.204 143.733 169.604C110 158.271 95.2 154.937 69.3333 152.804C59.4667 152.004 42.4 150.404 31.4667 149.337C9.73333 147.337 8.66667 147.204 9.46667 148.004C9.73333 148.271 23.2 152.004 39.3333 156.137C55.4667 160.271 74.9333 165.337 82.6667 167.471C104.533 173.337 130.667 178.937 154.667 182.804C166.8 184.804 177.333 187.071 178.133 188.004C179.867 189.737 188.533 211.337 187.867 212.004C187.6 212.271 173.6 206.271 156.667 198.671C139.867 191.071 119.733 182.804 112 180.271C99.8667 176.271 9.73333 157.204 8.66667 158.404C8 159.071 80 185.337 115.333 197.337C132.933 203.337 157.333 210.937 169.6 214.137C189.733 219.471 192.133 220.404 193.2 223.471C193.867 225.337 196 230.804 197.867 235.737L201.2 244.671L193.6 241.204C189.467 239.204 175.867 232.671 163.6 226.537C125.6 207.737 117.2 204.804 74.6667 195.471C58.1333 191.871 37.8667 187.337 29.4667 185.471C21.2 183.604 14.1333 182.137 13.8667 182.404C13.6 182.671 19.2 185.204 26.4 188.004C33.4667 190.804 53.2 198.804 70 205.737C118 225.471 136.933 232.404 172 243.337L204.667 253.604L209.2 265.871C211.6 272.671 213.467 278.537 213.067 278.804C212.8 279.204 192.4 271.071 167.867 260.804C124.8 242.937 122.667 242.271 104 238.937C83.6 235.471 75.2 232.537 34 214.137C7.33333 202.271 4 200.804 4 201.337C4 201.604 8.4 204.404 13.7333 207.471C18.9333 210.671 27.6 216.004 32.6667 219.471C45.3333 228.004 59.3333 235.471 75.8667 242.804C83.6 246.137 91.6 250.271 93.8667 252.004C102.133 258.271 116.4 266.271 128.4 271.471C142.933 277.604 158.533 281.604 191.333 287.337C204.533 289.737 216.133 292.004 217.2 292.537C218.133 293.071 220.667 298.137 222.8 303.871C226.533 314.271 226.533 314.271 223.6 313.337C222 312.937 200 304.804 174.667 295.471C128.267 278.404 122.933 276.804 86.6667 270.804C79.7333 269.604 61.2 266.004 45.4667 262.671C29.7333 259.471 16.6667 256.937 16.4 257.337C16.1333 257.604 18.5333 258.404 21.8667 259.337C32.5333 262.004 69.7333 274.404 82.8 279.604C89.8667 282.404 101.867 288.671 109.467 293.604C137.2 311.871 153.467 316.804 227.6 329.471C231.467 330.137 232 330.937 235.2 340.404C237.067 346.004 238.533 350.804 238.267 350.937C238 351.204 232.267 349.604 225.333 347.471C205.067 341.071 180.267 334.537 168 332.271C161.733 331.204 141.867 329.604 123.867 328.804C97.0667 327.737 89.3333 326.937 81.8667 324.671C68.8 320.671 50.5333 311.471 36 301.604C29.0667 296.804 23.0667 293.204 22.8 293.604C20.6667 295.737 48.9333 318.937 63.7333 327.204C78.4 335.337 88.5333 338.004 112 340.271C138.4 342.804 149.333 345.604 163.333 353.604C173.067 359.204 184 360.937 214.133 361.737L242.4 362.537L247.333 377.737C250 386.137 252 393.471 251.733 394.137C251.333 395.071 242.267 391.871 180.4 368.937C146.4 356.404 131.733 353.737 74.6667 349.604C50.8 348.004 31.0667 346.804 30.8 346.937C30.1333 347.471 30.4 347.604 54.2667 353.337C78.8 359.204 101.867 366.671 134 379.071C180.933 397.337 185.733 398.537 230.4 403.604C244.133 405.071 255.733 406.804 256.133 407.204C257.2 408.537 262.933 428.937 262.4 429.604C262.133 429.871 238.8 421.337 210.667 410.804C153.333 389.071 153.6 389.204 121.333 383.471C108.533 381.204 82.6667 376.137 64.1333 372.137C45.4667 368.137 29.4667 364.804 28.8 364.804C28 364.937 35.2 367.337 44.6667 370.271C88.5333 383.604 115.867 394.537 131.867 405.204C163.333 426.271 180.133 432.137 241.333 443.337L268.533 448.271L272.133 460.537C274.133 467.337 275.467 472.804 275.2 472.804C274.933 472.804 266.533 469.071 256.4 464.671C228.667 452.271 219.733 449.337 194.533 444.271C151.333 435.471 149.333 435.337 90 434.804C55.4667 434.404 37.0667 434.671 40 435.471C42.5333 436.137 51.6 437.071 60 437.471C87.8667 438.937 110.933 445.204 146.133 460.804C175.733 474.004 203.333 480.004 266.4 487.471C281.467 489.337 281.333 489.204 283.333 499.871L284.267 504.537L272.4 502.004C266 500.537 249.867 496.671 236.667 493.471C200.8 484.671 192.133 483.471 154.667 482.137C136 481.471 110.8 479.737 98.6667 478.137C77.2 475.471 39.0667 469.604 32.1333 467.871C30.2667 467.471 28.9333 467.471 29.3333 467.871C30.5333 469.071 76.9333 482.937 86 484.804C96.8 486.937 117.733 492.937 136.133 499.337C178.4 513.871 199.467 517.204 259.333 518.804C275.467 519.337 288.8 519.871 289.067 520.137C289.467 520.404 296 543.471 296 544.404C296 544.537 291.733 542.937 286.533 540.804C281.333 538.537 271.467 535.071 264.533 532.804L252 528.804H213.6C173.067 528.804 148.8 530.404 102.667 536.137C64.4 540.937 62.8 541.871 91.7333 542.004C114.667 542.137 124.133 543.071 155.333 548.137C168.133 550.271 245.733 554.137 274.533 554.137C299.2 554.137 299.067 554.137 301.6 563.604C303.2 569.737 303.333 571.471 302 571.471C301.067 571.471 290.533 569.071 278.533 566.004C257.067 560.671 256.4 560.537 237.333 561.071C215.2 561.737 211.333 562.804 192.933 574.004C182.133 580.537 154.667 600.537 146 608.137L142 611.737L146.667 609.071C149.2 607.604 160.667 600.937 172 594.271C200.267 577.604 204 576.271 221.333 576.271C232 576.271 238.133 577.071 247.333 579.604C258 582.404 262 582.804 283.067 582.804H306.8L308.133 588.137C308.933 591.071 310 595.604 310.8 598.137C311.467 600.671 312 603.204 312 603.604C312 604.004 307.333 603.604 301.733 602.671C285.6 600.004 258.8 600.404 245.067 603.471C230 606.804 226.933 608.537 218.4 618.404C209.067 629.204 206.8 631.604 202 635.204L198 638.271L203.6 635.471C220 627.604 236.667 623.471 252.933 623.471C259.867 623.471 273.2 621.737 288.8 618.804C302.533 616.137 314.133 614.537 314.667 615.071C315.733 616.271 327.733 665.204 331.333 682.804C332.533 688.671 333.733 693.604 334 693.871C334.8 694.671 344 679.871 344 677.737C344 676.137 321.6 598.271 319.2 591.604C318.667 590.004 322.533 589.871 344.4 590.537C363.733 591.204 374.4 590.937 386.4 589.471C418.8 585.471 420.533 584.937 455.733 567.604C473.467 558.804 488 551.204 488 550.671C488 550.271 486.933 550.271 485.733 550.804C474.267 555.204 421.467 570.671 414.667 571.604C409.867 572.271 394.667 572.804 380.667 572.804C357.867 572.804 353.467 573.204 336 576.804C325.333 578.937 316.533 580.804 316.4 580.804C315.867 580.804 312 567.071 312 565.204C312 564.271 329.867 554.537 351.733 543.604C373.467 532.671 396 520.671 401.6 516.937C407.467 513.071 423.067 499.737 437.733 485.871C451.867 472.404 472.667 453.071 484 442.937C515.067 415.071 515.733 414.004 491.333 433.337C475.733 445.604 458.667 455.071 428.8 468.004C403.067 479.071 390.667 487.471 338.4 529.604L308.133 554.004L305.333 544.404C303.733 539.071 302 533.071 301.2 530.937C300.533 528.804 300 526.937 300 526.671C300 526.271 335.467 504.271 354.667 492.804C383.333 475.737 403.6 459.871 414.667 446.137C425.067 433.071 461.333 383.737 461.333 382.537C461.333 382.004 448 394.804 431.733 411.071L402 440.537L372 455.071C337.867 471.604 329.333 477.737 309.067 499.604C302.4 506.804 296.533 512.537 296.133 512.137C295.067 511.071 286.8 483.204 286.667 480.671C286.667 478.404 306.667 468.671 338 455.471C354.133 448.671 374.267 438.404 383.333 432.404C387.067 430.004 399.867 419.337 412 408.804C424.133 398.137 443.867 381.337 455.867 371.471C485.733 346.937 488.667 344.137 470.667 356.937C453.6 369.204 435.6 378.137 406.267 389.337C378.133 400.004 363.333 408.937 311.867 446.937C296.4 458.271 283.333 467.204 282.8 466.804C281.6 466.137 278 454.271 278.8 453.737C280.667 452.404 316.533 430.404 329.333 422.804C351.067 409.871 370.133 396.937 378.4 389.471C382.267 386.004 390.933 376.804 397.6 368.937C415.733 348.004 438.4 322.671 458.4 301.204C468.133 290.671 475.867 282.137 475.467 282.137C474.933 282.137 467.867 288.537 459.6 296.537C440.933 314.404 424.533 325.337 388.667 343.871C367.6 354.804 352.133 367.471 305.067 412.937L274.8 442.137L271.467 431.071C269.6 424.937 267.867 418.671 267.733 417.071C267.467 414.937 272 411.204 291.333 398.137C320 378.671 320.533 378.137 352.133 350.004C365.867 337.737 380.8 325.071 385.467 321.871C395.867 314.537 427.6 295.471 451.6 282.137C461.333 276.671 469.067 272.137 468.933 271.871C467.467 270.404 338.267 334.271 325.333 342.804C312 351.604 283.333 382.937 269.733 403.737C267.867 406.537 266 408.804 265.467 408.804C264.667 408.804 256 380.004 256 377.204C256 376.404 264.533 369.471 275.067 362.004C342.4 313.471 353.467 301.871 384.933 247.737C406.533 210.671 424.267 176.804 422.133 176.804C421.867 176.804 414.533 186.804 405.867 199.071C393.867 215.871 384.8 226.671 368.667 243.471C356.933 255.604 339.733 274.137 330.533 284.804C315.333 302.271 254.4 363.471 252.133 363.471C251.2 363.471 243.467 340.804 244.267 340.271C247.067 338.137 310.533 286.937 320 279.071C335.733 265.871 352.933 247.204 361.067 234.404C364.533 229.071 376.8 210.137 388.533 192.404C400.133 174.671 411.2 157.737 413.067 154.804L416.4 149.471L413.2 152.137C411.467 153.471 399.867 164.671 387.333 176.804C374.933 188.937 350.533 212.537 333.2 229.204C300.4 260.671 286.4 275.737 258.667 309.471C249.733 320.404 241.867 329.604 241.2 329.871C240.667 330.137 238.533 325.204 236.533 319.071L232.933 307.871L260.267 275.337C308.667 217.604 311.6 213.071 330.4 170.804C336.933 156.137 346.667 134.537 352 122.804C367.067 89.4706 367.2 89.7373 350.667 113.471C344.533 122.271 327.067 146.937 311.867 168.271C279.6 213.471 267.733 231.737 248.4 265.871C240.667 279.604 233.2 292.537 232 294.537L229.733 298.404L223.733 282.004L217.733 265.737L242.8 234.137C279.2 188.137 278.933 188.537 303.867 130.271C312.8 109.471 320.4 91.8707 320.8 91.204C321.2 90.6707 321.2 90.1373 320.8 90.1373C319.733 90.1373 256.133 185.204 247.067 200.137C242.667 207.471 233.733 223.204 227.333 235.204C220.933 247.204 215.2 256.537 214.533 255.871C213.333 254.671 205.333 234.671 205.333 232.937C205.333 232.271 216.533 215.071 230.133 194.537C243.867 174.137 256.133 154.804 257.6 151.471C259.067 148.137 263.2 136.137 266.933 124.804C270.667 113.471 277.733 92.6707 282.8 78.5373C287.867 64.5373 292 52.5373 292 51.8707C292 51.3373 288.533 58.2706 284.267 67.4706C273.067 91.604 263.067 109.071 245.467 135.604C228.267 161.337 218.4 179.737 208.667 204.137C205.067 212.937 201.867 220.537 201.333 221.071C200.667 222.004 190.667 200.271 190.667 197.871C190.667 197.337 198.4 182.404 208 164.537C222.667 136.937 225.867 129.871 229.467 116.804C231.733 108.404 237.2 88.9373 241.467 73.604C245.867 58.2706 249.067 45.4706 248.8 45.204C248.533 44.9373 247.067 48.5373 245.333 53.0706C239.333 70.004 231.333 87.4706 215.467 118.804C200.4 148.271 197.867 154.537 187.067 187.471C186.533 189.204 178.667 174.271 178.667 171.337C178.667 170.804 187.6 154.004 198.533 134.137C211.467 110.671 218.667 96.1373 219.2 92.404C219.733 89.3373 224.133 73.0706 229.2 56.404C234.133 39.7373 237.867 26.5373 237.333 27.0706C234.4 30.404 202 101.604 191.2 128.537C184.267 145.871 178 161.604 177.2 163.471C175.733 166.671 175.6 166.537 171.2 157.871L166.8 149.071L180.8 118.537C190.667 97.3373 195.733 84.6707 197.467 76.804C198.8 70.5373 202.4 56.1373 205.2 44.804C208.133 33.4706 210.4 24.1373 210.267 23.8707C209.333 23.0706 181.867 95.3373 174.667 117.471C170.133 131.337 165.867 143.204 165.467 143.871C164.933 144.404 163.067 141.871 161.333 138.271L158.267 131.604L165.733 115.204C178.4 86.9373 181.467 76.9373 182.667 58.804C183.333 50.004 185.067 34.1373 186.667 23.7373C188.267 13.204 189.333 4.27063 188.933 4.00397C188.667 3.7373 184.533 17.0706 179.6 33.8707Z" fill="black" fill-opacity="0.04"/>
</g>
<defs>
<filter id="filter0_f_102_368" x="0" y="6.10352e-05" width="512.575" height="697.902" filterUnits="userSpaceOnUse" color-interpolation-filters="sRGB">
<feFlood flood-opacity="0" result="BackgroundImageFix"/>
<feBlend mode="normal" in="SourceGraphic" in2="BackgroundImageFix" result="shape"/>
<feGaussianBlur stdDeviation="2" result="effect1_foregroundBlur_102_368"/>
</filter>
</defs>
</svg>
