<svg width="649" height="647" viewBox="0 0 649 647" fill="none" xmlns="http://www.w3.org/2000/svg">
<g filter="url(#filter0_f_106_365)">
<path d="M320.844 5.06933C317.9 6.07098 314.822 8.8088 313.216 11.747C312.212 13.5499 312.011 18.3578 311.743 56.7542L311.409 99.6913L285.98 75.1844C270.99 60.7608 259.613 50.2101 258.208 49.6759C256.736 49.0081 254.461 48.741 251.717 48.9414C248.304 49.1417 247.1 49.5423 245.025 51.2118C241.679 53.8828 239.471 58.2233 239.471 62.2298C239.471 64.1664 240.006 66.3032 241.01 68.0394C241.88 69.7088 252.185 80.1259 267.242 94.6831C280.894 107.771 296.419 122.863 301.906 128.205L311.743 137.954L311.61 165.533L311.409 193.045L296.084 178.688C287.653 170.741 279.957 163.863 278.953 163.329C276.076 161.86 271.993 161.393 269.183 162.328C262.893 164.331 259.547 169.005 259.547 175.549C259.547 178.955 259.881 179.956 261.755 182.628C262.893 184.297 274.67 195.782 287.853 208.136L311.743 230.573V261.023V291.54L308.197 287.867C306.323 285.864 287.586 266.632 266.573 245.13C245.627 223.628 225.351 202.861 221.537 198.988C217.521 194.914 214.778 191.509 214.979 190.975C215.112 190.44 215.447 181.759 215.715 171.676C215.915 161.593 216.384 145.5 216.718 135.951C217.722 107.571 217.722 98.0887 216.518 95.8183C213.975 90.9437 209.558 88.2058 204.205 88.2058C197.58 88.2726 191.758 93.0805 191.021 99.0904C190.821 100.626 190.352 112.98 189.951 126.602C189.282 151.243 188.746 164.464 188.345 164.798C188.278 164.932 185.333 162.06 181.854 158.454C146.654 122.195 122.363 97.8884 120.556 97.0871C112.659 93.815 102.755 99.4242 101.818 107.638C101.082 114.382 101.149 114.516 124.906 138.822C136.951 151.176 151.606 166.201 157.495 172.21L168.202 183.228L153.48 182.761C145.383 182.494 130.058 182.027 119.351 181.626C98.874 180.958 97.201 181.158 93.119 183.829C90.3084 185.766 87.5647 191.108 87.5647 194.647C87.6316 200.857 92.249 206.467 98.4056 207.669C100.346 208.069 114.6 208.67 130.058 209.071C145.517 209.472 166.596 210.073 176.902 210.406L195.639 211.007L199.989 215.615C202.398 218.152 221.537 237.718 242.482 259.153C263.495 280.588 282.968 300.621 285.846 303.626L291.132 309.235H260.082H229.031L206.346 284.996C193.899 271.707 182.657 260.088 181.452 259.22C178.307 256.883 172.485 256.549 168.403 258.352C163.852 260.355 160.506 265.63 160.506 270.772C160.573 275.046 163.049 278.451 177.303 293.543C185.066 301.823 191.289 308.768 191.155 308.968C190.955 309.102 178.441 309.035 163.25 308.835L135.746 308.367L130.594 302.958C127.716 299.953 112.927 284.795 97.7364 269.17C66.9537 237.651 65.816 236.716 59.5256 237.384C55.0421 237.785 51.0939 240.322 48.9524 244.128C46.878 247.801 46.878 253.277 48.9524 257.016C49.7555 258.485 60.9979 270.438 73.8463 283.526C86.7617 296.615 97.4018 307.633 97.4687 307.967C97.6026 308.301 80.5382 308.568 56.1128 308.568C15.9614 308.568 14.4892 308.634 11.9462 309.903C7.99801 311.906 4.58514 317.315 4.58514 321.522C4.58514 326.464 8.26569 331.873 12.95 334.009C15.426 335.145 18.4374 335.278 56.9827 335.278C79.6683 335.278 98.2718 335.478 98.2718 335.679C98.2718 335.879 87.364 347.164 74.0471 360.72C60.6633 374.275 49.0863 386.696 48.2163 388.232C46.008 392.172 46.3426 398.115 48.9524 401.854C53.2353 407.998 61.8678 409.6 67.7567 405.26C68.8943 404.392 81.8766 391.37 96.5988 376.346C111.254 361.254 126.177 346.029 129.657 342.423L136.081 335.946L163.652 336.079L191.289 336.28L177.236 350.971C169.474 359.05 162.581 366.797 161.845 368.132C160.038 371.471 160.038 377.214 161.845 380.686C165.124 387.03 173.556 389.634 180.047 386.295C181.051 385.761 192.427 374.275 205.409 360.653L228.965 335.946H250.847C262.893 335.946 277.749 336.146 283.838 336.413L295.014 336.814L287.452 344.56C266.774 365.928 207.55 427.162 202.398 432.571L196.509 438.781H150.134C117.277 438.781 103.157 438.982 101.551 439.516C95.595 441.519 92.249 446.26 92.249 452.671C92.249 457.612 94.792 462.02 99.0748 464.29L101.952 465.826L136.014 466.026L170.076 466.226L160.707 475.709C147.39 489.264 113.998 523.788 109.18 528.996C103.826 534.806 102.755 538.211 104.428 543.887C106.168 549.563 113.529 554.371 118.883 553.236C124.169 552.101 125.775 550.632 156.96 518.379L188.278 485.992L188.612 521.651C188.88 547.093 189.148 557.71 189.75 558.645C190.955 560.782 194.836 564.187 196.843 564.922C201.662 566.725 208.42 565.189 211.833 561.516C215.447 557.643 215.38 558.912 215.38 506.426L215.447 457.813L232.311 440.451C241.545 430.902 261.889 409.867 277.548 393.707C293.14 377.548 307.26 362.99 308.799 361.321L311.743 358.316L311.676 389.033L311.61 419.75L287.117 442.788C273.666 455.475 262.023 466.827 261.286 468.096C259.68 470.901 259.547 476.977 261.086 479.849C262.424 482.52 266.105 485.925 268.447 486.794C271.124 487.795 275.942 487.728 278.618 486.593C279.89 486.059 285.377 481.385 290.865 476.31C296.285 471.235 303.178 464.691 306.256 461.819L311.743 456.677V484.256V511.901L276.946 545.49C253.725 567.86 241.679 580.013 240.742 581.816C238.735 585.689 239.203 591.165 241.746 595.038C245.293 600.447 252.855 602.383 258.877 599.445C260.149 598.844 272.529 587.359 286.314 574.003L311.409 549.764L311.743 591.566C312.145 638.109 311.81 635.371 316.695 639.644C321.848 644.119 329.075 644.119 334.228 639.644C339.113 635.371 338.779 638.042 339.18 591.766L339.515 550.164L364.275 574.471C384.752 594.637 389.637 599.045 392.247 600.046C398.47 602.383 405.564 599.712 408.642 593.702C410.784 589.629 410.516 583.486 408.107 580.214C407.17 578.945 391.31 563.119 372.84 544.956L339.18 512.035V484.323V456.611L344.4 461.552C363.405 479.582 370.231 485.725 372.305 486.593C374.982 487.728 379.8 487.795 382.477 486.794C385.02 485.859 388.633 482.32 389.771 479.715C390.975 476.977 390.975 471.435 389.771 468.564C389.169 467.161 380.068 458.147 364.074 443.055L339.247 419.75V389.033L339.18 358.316L349.753 369C373.041 392.505 435.209 456.344 435.61 457.078C435.811 457.479 435.744 464.09 435.477 471.836C435.209 479.515 434.807 493.071 434.54 501.885C434.272 510.699 433.871 524.99 433.603 533.604C433.001 550.365 433.268 552.568 436.012 556.174C439.358 560.648 444.778 562.451 450.333 560.982C454.147 559.914 458.564 555.573 459.501 551.967C460.17 549.43 460.504 540.749 461.307 509.23C461.508 501.484 461.843 492.803 462.043 489.798L462.445 484.39L475.628 497.812C482.855 505.224 497.176 519.781 507.348 530.265C518.055 541.216 527.089 549.964 528.695 550.765C533.312 553.303 539.87 552.435 543.818 548.762C547.767 545.089 549.172 538.011 546.897 533.203C546.295 532.001 531.706 516.509 514.441 498.813C497.176 481.118 483.123 466.56 483.257 466.494C483.324 466.427 498.916 466.827 517.921 467.362L552.384 468.43L555.73 466.761C557.805 465.759 559.745 464.09 561.017 462.287C562.69 459.883 563.024 458.747 563.024 455.275C563.024 450.067 561.284 446.527 557.47 443.856C554.793 441.987 554.191 441.853 545.425 441.386C540.406 441.119 518.189 440.384 496.105 439.783L455.954 438.648L445.916 428.565C424.703 407.129 359.524 340.42 357.984 338.55L356.378 336.614H386.96H417.542L419.349 338.55C454.883 376.479 465.323 387.297 467.33 388.232C470.81 389.901 476.163 389.701 479.777 387.831C485.666 384.693 488.276 376.947 485.532 370.67C484.997 369.401 478.037 361.388 470.074 352.974L455.686 337.615L483.257 337.415L510.827 337.215L519.192 345.829C523.81 350.57 539 366.396 552.986 380.953C568.177 396.779 579.352 407.864 580.691 408.465C584.84 410.468 588.32 410.468 592.402 408.465C597.019 406.195 599.428 402.789 599.964 397.914C600.633 391.571 599.964 390.769 573.664 363.391C560.481 349.702 549.507 338.15 549.373 337.816C549.239 337.348 562.89 337.281 590.528 337.615C621.177 337.949 632.687 337.882 634.828 337.348C640.383 335.812 645 329.936 645 324.26C645 318.718 640.45 312.775 635.163 311.305C633.49 310.838 617.965 310.571 590.863 310.571H549.105L573.664 285.864C590.796 268.569 598.625 260.222 599.495 258.285C604.715 246.8 592.536 235.381 581.092 240.923C580.022 241.457 563.76 257.35 544.956 276.181L510.827 310.504L483.792 310.037L456.757 309.569L470.944 294.678C478.773 286.465 485.599 278.785 486.134 277.517C487.272 274.779 487.339 270.038 486.335 267.367C485.465 265.029 482.052 261.357 479.375 260.021C476.766 258.619 470.609 258.619 467.932 260.021C465.523 261.29 465.122 261.624 439.358 288.668L419.148 309.903H389.236C362.803 309.903 357.114 309.636 359.791 308.434C360.059 308.301 373.175 294.878 389.035 278.518C404.828 262.158 426.175 240.189 436.413 229.638L455.084 210.406L502.797 210.273L550.51 210.073L553.053 208.003C557.671 204.33 558.34 202.928 558.34 197.051C558.34 192.243 558.206 191.642 556.265 189.238C555.195 187.836 552.919 186.033 551.313 185.165C548.369 183.696 548.302 183.696 514.575 183.696H480.848L487.138 177.152C490.618 173.613 505.005 158.722 519.192 144.098C533.379 129.474 545.625 116.385 546.428 115.05C548.436 111.778 548.503 105.902 546.629 102.229C543.35 95.8851 534.985 93.214 528.628 96.5529C526.955 97.3542 515.846 108.639 476.431 149.306C469.271 156.652 463.181 162.728 462.913 162.862C462.579 162.995 462.311 147.637 462.311 128.138V93.214L460.772 90.543C459.969 89.1407 457.961 87.0038 456.422 85.9354C453.946 84.1992 452.876 83.8654 449.396 83.8654C444.176 83.8654 440.629 85.6015 437.886 89.4746L435.878 92.346L435.677 141.76L435.544 191.242L432.733 194.313C431.194 195.983 409.579 218.42 384.685 244.062L339.515 290.805L339.314 260.088L339.113 229.438L343.396 225.431C389.57 182.16 389.102 182.628 390.306 176.885C391.511 171.476 386.425 163.863 380.603 162.328C377.19 161.393 372.974 161.927 370.298 163.596C369.16 164.264 361.866 170.875 354.036 178.287C346.207 185.632 339.649 191.709 339.515 191.709C339.314 191.709 339.18 179.489 339.247 164.464V137.286L373.443 103.898C393.251 84.5331 408.107 69.4417 408.843 68.0394C410.382 65.1012 410.516 59.6923 409.177 56.6206C408.04 54.0164 404.426 50.4772 401.883 49.5423C398.872 48.4071 393.585 48.6743 390.842 50.0766C389.503 50.8111 377.324 62.2298 363.806 75.5183L339.247 99.6246L339.046 56.6874C338.846 8.94236 339.113 11.8137 334.228 7.54005C330.414 4.20124 325.663 3.33315 320.844 5.06933Z" fill="black" fill-opacity="0.04"/>
</g>
<defs>
<filter id="filter0_f_106_365" x="0.585144" y="0.196228" width="648.415" height="646.804" filterUnits="userSpaceOnUse" color-interpolation-filters="sRGB">
<feFlood flood-opacity="0" result="BackgroundImageFix"/>
<feBlend mode="normal" in="SourceGraphic" in2="BackgroundImageFix" result="shape"/>
<feGaussianBlur stdDeviation="2" result="effect1_foregroundBlur_106_365"/>
</filter>
</defs>
</svg>
