<svg width="608" height="609" viewBox="0 0 608 609" fill="none" xmlns="http://www.w3.org/2000/svg">
<g filter="url(#filter0_f_106_371)">
<path d="M300.232 5.41063C297.649 6.02006 294.042 9.0672 292.643 11.6456C291.405 13.9895 291.351 14.3645 291.351 27.5376V41.0388L289.091 39.6324C283.601 36.2102 276.28 37.851 273.535 43.1014C272.297 45.4454 272.297 47.7425 273.481 50.0395C274.02 51.1178 277.895 54.8681 282.901 59.2278L291.351 66.5879V82.9487V99.3095L276.442 86.4177C263.955 75.6824 261.102 73.4322 259.272 72.9634C256.581 72.2602 256.096 72.2602 253.513 72.9165C251.198 73.4791 248.076 75.6824 246.892 77.6045C245.923 79.2921 245.923 83.2299 246.892 85.1989C247.323 86.0427 257.226 95.0435 269.498 105.685L291.351 124.671V141.079V157.486L263.255 133.016C247.753 119.561 234.405 108.31 233.598 108.076C231.122 107.232 226.923 107.466 224.609 108.498C220.303 110.42 218.204 115.389 219.98 119.421C220.68 121.015 227.838 127.484 256.096 152.095L291.351 182.801V198.834C291.351 207.694 291.19 214.913 290.921 214.913C290.705 214.913 272.244 198.974 249.906 179.473C227.569 160.018 208.569 143.704 207.654 143.329C206.793 142.907 205.178 142.438 204.155 142.298C202.272 142.016 202.272 141.969 201.841 138.969C200.549 129.828 203.24 118.249 207.869 112.858L209.969 110.467L208.3 110.889C201.518 112.576 189.3 109.388 178.535 103.06C173.099 99.872 165.294 93.5902 161.903 89.6993C160.558 88.1054 159.481 86.9334 159.481 87.0272C159.481 87.074 160.181 88.6679 161.042 90.4962C164.648 98.1844 166.155 106.248 165.779 115.764C165.402 125.515 163.572 130.953 159.104 135.266L157.167 137.141L158.728 136.766C159.589 136.578 162.334 136.438 164.864 136.485C172.937 136.625 181.28 139.626 192.422 146.517C192.691 146.657 192.529 147.548 192.045 148.486C191.614 149.423 191.238 150.783 191.238 151.533C191.238 152.236 194.629 163.815 198.719 177.176C202.864 190.583 209.538 212.382 213.575 225.602C217.665 238.822 220.895 249.745 220.733 249.838C220.572 249.979 213.359 246.51 204.64 242.15L188.816 234.228L186.609 227.008C185.371 223.07 179.612 204.319 173.745 185.38C167.124 163.721 162.764 150.408 162.065 149.47C159.966 146.798 157.597 145.767 153.507 145.767C150.277 145.767 149.685 145.907 147.855 147.22C143.495 150.267 142.473 153.174 144.034 158.096C150.439 178.441 163.249 220.726 163.034 220.867C162.764 221.101 132.892 206.288 131.654 205.35C131.277 205.022 127.456 193.302 123.096 179.285C117.821 162.127 114.861 153.174 113.999 152.048C110.393 147.173 100.92 147.267 97.2062 152.142C94.6226 155.564 94.7841 156.69 100.543 175.254C103.396 184.489 105.657 192.13 105.549 192.177C105.441 192.271 98.3903 188.755 89.7784 184.395C81.2203 180.082 74.0078 176.426 73.7925 176.379C73.5772 176.285 71.9625 171.644 70.2401 166.065C66.8491 155.049 65.8803 153.361 62.274 151.861C57.8604 150.033 52.5856 151.158 49.4638 154.58C47.9567 156.221 47.7952 156.69 47.7952 159.83C47.7952 162.737 47.6876 163.206 46.9879 162.878C46.5573 162.69 40.9595 159.877 34.6082 156.69C28.2569 153.502 22.2286 150.595 21.2059 150.314C20.1833 149.986 17.9765 149.751 16.3079 149.751C5.05857 149.751 -0.162408 161.331 7.91127 168.222C9.14924 169.3 14.424 172.253 19.5912 174.832C24.7045 177.363 30.4099 180.176 32.1323 181.067L35.308 182.707L33.2626 183.317C27.1805 185.145 24.4892 191.38 27.7187 196.209C29.6026 198.974 32.832 200.568 36.4921 200.568C37.9992 200.521 43.6508 199.443 49.1409 198.131C54.631 196.771 59.529 195.693 60.1211 195.693C61.0899 195.693 90.6396 210.225 92.2005 211.444C92.8464 212.007 92.8464 212.101 92.2005 212.101C90.5857 212.101 54.6848 220.679 52.8009 221.523C46.3958 224.336 45.8576 232.681 51.8321 236.431C55.4383 238.681 57.3222 238.681 67.4412 236.29C84.073 232.399 116.691 224.805 117.606 224.664C118.628 224.477 150.439 240.322 149.9 240.744C149.685 240.931 134.399 244.588 115.883 248.854C73.1466 258.792 74.0078 258.558 71.9086 260.48C70.9936 261.324 69.9171 262.636 69.648 263.339C68.8406 265.168 68.8945 268.543 69.8095 270.371C71.3704 273.7 76.7528 276.278 80.5206 275.622C81.4894 275.434 87.0872 274.169 93.0079 272.762C149.254 259.589 174.444 253.776 175.413 253.729C176.705 253.635 208.085 269.34 207.546 269.809C207.277 269.996 195.113 272.903 180.473 276.325C109.424 292.826 97.7444 295.592 96.2911 296.108C95.3761 296.436 93.8152 297.467 92.7387 298.452L90.7472 300.186L87.3563 298.78C76.2146 294.233 66.58 286.451 64.4809 280.357C63.8888 278.763 63.7273 278.575 63.4044 279.372C59.8519 288.045 49.7868 295.592 34.9312 300.702C30.087 302.343 20.6677 304.452 18.0841 304.452C17.1153 304.452 16.3079 304.64 16.3079 304.921C16.3079 305.156 17.0076 305.39 17.8688 305.39C20.2371 305.39 26.5884 306.656 31.2711 308.015C47.5261 312.75 59.8519 321.376 63.4044 330.47C63.6735 331.22 63.9426 330.939 64.6962 329.017C67.0106 322.97 76.3761 315.563 87.3563 311.062L90.7472 309.656L92.7387 311.391C93.8152 312.375 95.3761 313.406 96.2911 313.735C97.6368 314.25 125.195 320.673 188.816 335.44C198.881 337.783 207.277 339.846 207.546 340.034C208.031 340.456 176.759 356.207 175.575 356.16C175.09 356.113 166.963 354.285 157.543 352.082C103.288 339.471 82.0815 334.502 80.5206 334.221C76.9143 333.564 71.7472 335.955 69.8095 339.19C68.8406 340.831 68.8406 344.815 69.8095 346.784C71.1013 349.456 73.4157 350.863 78.852 352.269C81.5971 352.972 98.8209 357.004 117.067 361.223C135.368 365.442 150.331 369.005 150.331 369.146C150.277 369.286 143.118 372.99 134.291 377.396L118.305 385.413L110.77 383.678C106.625 382.694 93.1155 379.553 80.7359 376.646C55.9228 370.88 55.8689 370.88 51.8321 373.458C45.4808 377.443 46.4496 385.835 53.6083 388.6C55.1692 389.163 64.5885 391.507 74.546 393.804C88.0022 396.898 92.5234 398.117 92.039 398.492C90.6934 399.523 61.0899 414.15 60.2825 414.15C59.7981 414.15 54.9001 413.071 49.3023 411.759C37.6224 408.946 34.8235 408.758 31.4864 410.399C23.8972 414.15 24.9736 424.088 33.2626 426.526L35.2541 427.135L22.713 433.417C15.3929 437.073 9.20306 440.496 7.91127 441.621C-0.162408 448.559 5.05857 460.091 16.3079 460.091C17.9765 460.091 20.1833 459.857 21.2059 459.529C22.2286 459.247 28.0955 456.435 34.3391 453.294C40.5828 450.153 46.1267 447.34 46.7188 447.106C47.7414 446.59 47.7952 446.731 47.7952 450.012C47.7952 453.153 47.9567 453.622 49.4638 455.263C52.6933 458.778 57.9681 459.81 62.4893 457.794C65.9879 456.247 67.0644 454.278 70.3477 443.449C72.0163 438.058 73.5234 433.558 73.7387 433.464C74.0078 433.37 81.2203 429.76 89.7784 425.447C98.3903 421.088 105.441 417.619 105.549 417.665C105.657 417.712 103.396 425.354 100.543 434.589C94.7841 453.153 94.6226 454.278 97.2062 457.7C100.92 462.576 110.393 462.669 113.999 457.794C114.861 456.669 117.767 447.903 122.88 431.26C127.025 417.572 130.685 405.993 130.9 405.43C131.385 404.446 162.495 388.507 163.034 388.975C163.249 389.116 150.6 430.979 144.034 451.747C142.473 456.669 143.495 459.575 147.855 462.623C149.685 463.935 150.277 464.076 153.507 464.076C156.467 464.076 157.49 463.841 159.051 462.951C162.872 460.654 160.988 466.185 186.178 384.006L188.762 375.662L204.586 367.692C213.306 363.333 220.572 359.864 220.733 359.957C220.895 360.098 214.382 381.709 206.308 407.915C198.235 434.167 191.507 456.481 191.399 457.513C191.238 458.685 191.453 460.138 191.991 461.216C192.476 462.201 192.852 463.044 192.852 463.138C192.852 463.466 184.886 467.779 181.603 469.186C175.306 471.998 170.031 473.264 164.864 473.358C162.334 473.405 159.589 473.264 158.728 473.077L157.167 472.702L159.158 474.67C163.518 478.843 165.402 484.421 165.779 494.078C166.155 503.595 164.648 511.658 161.042 519.346C160.181 521.175 159.481 522.768 159.481 522.815C159.481 522.909 160.558 521.737 161.903 520.19C165.348 516.205 173.206 509.83 178.481 506.783C189.408 500.454 201.518 497.266 208.3 498.954L209.969 499.376L207.869 496.985C205.609 494.36 203.402 489.578 202.541 485.453C201.733 481.562 201.357 474.249 201.841 470.873C202.272 467.873 202.272 467.826 204.155 467.545C205.178 467.404 206.793 466.935 207.654 466.514C208.569 466.138 227.569 449.825 249.906 430.37C272.244 410.868 290.705 394.929 290.921 394.929C291.19 394.929 291.351 402.149 291.351 411.009V427.041L256.311 457.513C232.521 478.186 220.949 488.594 220.249 489.859C217.127 495.672 221.971 502.282 229.292 502.282C230.906 502.282 232.952 501.954 233.92 501.532C234.889 501.11 248.184 489.906 263.524 476.593L291.351 452.356V468.764V485.171L269.498 504.157C257.226 514.799 247.323 523.8 246.892 524.644C245.923 526.613 245.923 530.55 246.892 532.238C249.099 535.941 254.051 537.91 258.734 536.926C261.371 536.41 262.178 535.754 276.442 523.472L291.351 510.533V526.659V542.786L283.008 550.146C272.459 559.475 271.006 561.959 273.535 566.741C276.28 571.991 283.601 573.632 289.037 570.257L291.297 568.851L291.459 582.774C291.62 596.134 291.674 596.837 292.804 598.666C295.011 602.275 299.802 604.948 304 604.948C308.198 604.948 312.989 602.275 315.196 598.666C316.326 596.837 316.38 596.134 316.541 582.821L316.703 568.897L318.856 570.257C324.292 573.632 331.773 571.991 334.465 566.741C336.994 561.912 335.541 559.428 324.992 550.146L316.649 542.833V526.659V510.533L331.612 523.472C345.822 535.754 346.629 536.41 349.266 536.926C353.949 537.91 358.901 535.941 361.108 532.238C362.077 530.55 362.077 526.613 361.108 524.644C360.677 523.8 350.774 514.799 338.502 504.157L316.649 485.171V468.764V452.356L344.53 476.593C359.816 489.906 373.111 501.11 374.08 501.532C375.048 501.954 377.094 502.282 378.708 502.282C386.029 502.282 390.873 495.672 387.751 489.859C387.051 488.594 375.479 478.186 351.689 457.513L316.649 427.041V411.009C316.649 402.149 316.81 394.929 317.079 394.929C317.295 394.929 335.756 410.868 358.094 430.37C380.431 449.825 399.485 466.138 400.346 466.514C401.261 466.935 402.822 467.404 403.845 467.545C405.728 467.826 405.728 467.873 406.159 470.873C407.451 480.015 404.76 491.594 400.131 496.985L398.031 499.376L399.7 498.954C411.218 496.094 434.524 506.783 446.097 520.19C447.442 521.737 448.519 522.909 448.519 522.815C448.519 522.768 447.819 521.175 447.012 519.393C443.244 511.377 441.791 503.689 442.221 493.938C442.598 484.421 444.482 478.843 448.842 474.67L450.833 472.702L449.272 473.077C448.411 473.264 445.666 473.405 443.136 473.358C437.969 473.264 432.694 471.998 426.397 469.186C423.114 467.779 415.148 463.466 415.148 463.138C415.148 463.044 415.524 462.248 415.955 461.357C416.386 460.419 416.762 459.06 416.762 458.31C416.762 457.606 413.371 446.027 409.281 432.667C405.136 419.259 398.462 397.461 394.425 384.241C390.335 371.021 387.105 360.098 387.267 359.957C387.428 359.864 394.694 363.333 403.36 367.692L419.184 375.662L431.995 417.29C440.122 443.637 445.236 459.435 445.935 460.372C450.349 466.045 459.983 465.342 463.59 459.107C465.043 456.622 464.935 454.934 462.836 448.043C449.434 404.774 444.751 389.163 444.966 388.975C445.505 388.507 476.615 404.446 477.1 405.43C477.315 405.993 480.975 417.572 485.12 431.26C490.233 447.903 493.139 456.669 494.001 457.794C497.607 462.669 507.08 462.576 510.794 457.7C513.377 454.278 513.216 453.153 507.457 434.589C504.604 425.354 502.343 417.759 502.451 417.665C502.559 417.619 509.664 421.088 518.222 425.447C526.834 429.76 533.992 433.37 534.208 433.464C534.423 433.558 535.984 438.011 537.652 443.449C539.321 448.84 541.151 453.997 541.743 454.794C544.057 458.122 548.794 459.622 553.315 458.45C557.998 457.231 560.743 453.669 560.366 449.262C560.151 446.637 560.205 446.59 561.227 447.059C561.873 447.34 567.471 450.153 573.661 453.294C579.905 456.435 585.771 459.247 586.794 459.529C587.817 459.857 590.024 460.091 591.692 460.091C602.941 460.091 608.162 448.559 600.089 441.621C598.797 440.496 592.607 437.073 585.287 433.417L572.746 427.135L574.737 426.526C578.882 425.307 581.627 421.931 581.627 418.087C581.627 413.118 577.106 409.227 571.508 409.321C570.055 409.321 564.242 410.399 558.698 411.759C553.1 413.071 548.202 414.15 547.717 414.15C546.964 414.15 518.706 400.18 516.176 398.586C515.369 398.07 517.899 397.367 533.4 393.804C543.412 391.507 552.831 389.163 554.392 388.6C561.55 385.835 562.519 377.443 556.168 373.458C552.131 370.88 552.077 370.88 527.264 376.646C514.885 379.553 501.375 382.694 497.23 383.678L489.695 385.413L473.709 377.396C464.882 372.99 457.723 369.286 457.669 369.146C457.669 369.005 472.632 365.442 490.933 361.223C509.179 357.004 526.403 352.972 529.148 352.269C534.584 350.863 536.899 349.456 538.191 346.784C539.159 344.815 539.159 340.831 538.191 339.19C536.253 335.955 531.086 333.564 527.479 334.221C525.919 334.502 504.712 339.471 450.457 352.082C441.037 354.285 432.91 356.113 432.425 356.16C431.241 356.207 399.969 340.456 400.454 340.034C400.723 339.846 409.119 337.783 419.184 335.44C429.25 333.142 450.672 328.126 466.819 324.376C482.967 320.579 499.437 316.782 503.42 315.844C511.709 313.969 513.27 313.359 515.584 311.156L517.253 309.562L521.882 311.672C533.454 316.922 540.989 323.063 543.304 329.017C544.057 330.939 544.327 331.22 544.596 330.47C547.448 323.204 555.522 316.407 567.148 311.484C575.168 308.109 585.395 305.39 590.131 305.39C590.992 305.39 591.692 305.156 591.692 304.921C591.692 304.64 590.885 304.452 589.97 304.452C587.332 304.452 577.913 302.343 573.069 300.702C558.213 295.592 548.148 288.045 544.596 279.372C544.273 278.575 544.111 278.763 543.519 280.357C541.42 286.357 533.562 292.873 521.936 298.171L517.307 300.28L515.315 298.452C514.239 297.467 512.624 296.436 511.709 296.108C510.256 295.592 492.278 291.373 427.258 276.278C412.779 272.903 400.723 269.996 400.454 269.809C400.238 269.621 407.235 265.871 415.955 261.464L431.887 253.448L440.607 255.464C445.397 256.542 464.451 260.996 482.967 265.308C531.785 276.747 528.556 276.044 531.301 275.434C534.046 274.778 537.222 272.434 538.191 270.371C539.106 268.543 539.159 265.168 538.352 263.339C538.083 262.636 537.006 261.324 536.091 260.48C533.992 258.558 534.853 258.792 492.117 248.854C473.601 244.588 458.315 240.931 458.1 240.744C457.561 240.322 489.372 224.477 490.394 224.664C491.309 224.805 523.927 232.399 540.559 236.29C550.678 238.681 552.562 238.681 556.168 236.431C562.142 232.681 561.604 224.336 555.199 221.523C553.315 220.679 517.414 212.101 515.8 212.101C515.154 212.101 515.154 212.007 515.8 211.444C517.36 210.225 546.91 195.693 547.879 195.693C548.471 195.693 553.369 196.771 558.859 198.131C570.485 200.943 573.176 201.131 576.675 199.349C584.103 195.552 582.919 185.755 574.737 183.317L572.692 182.707L575.868 181.067C577.59 180.176 583.295 177.363 588.409 174.832C593.576 172.253 598.851 169.3 600.089 168.222C608.162 161.331 602.941 149.751 591.692 149.751C590.024 149.751 587.817 149.986 586.794 150.314C585.825 150.595 579.851 153.455 573.499 156.643C567.148 159.83 561.55 162.643 561.066 162.878C560.259 163.253 560.151 163.018 560.366 160.58C560.743 156.08 557.998 152.564 553.1 151.345C548.632 150.22 544.057 151.673 541.743 155.049C541.151 155.846 539.321 160.956 537.652 166.393C535.984 171.785 534.423 176.285 534.208 176.379C533.992 176.472 526.834 180.082 518.222 184.395C509.664 188.755 502.559 192.224 502.451 192.177C502.343 192.083 504.604 184.489 507.457 175.254C513.216 156.69 513.377 155.564 510.794 152.142C507.08 147.267 497.607 147.173 494.001 152.048C493.139 153.174 490.179 162.127 484.904 179.285C480.544 193.302 476.723 205.022 476.346 205.35C475.108 206.288 445.236 221.101 444.966 220.867C444.805 220.726 449.165 206.053 454.655 188.239C460.199 170.378 464.666 155.049 464.666 154.158C464.666 152.095 463.051 149.283 460.952 147.736C456.27 144.313 449.326 145.157 445.935 149.47C445.236 150.408 440.176 166.018 431.995 192.552L419.238 234.181L415.148 236.196C395.179 246.322 387.482 250.073 387.267 249.838C387.105 249.745 393.133 229.727 400.615 205.444C418.431 147.454 417.139 152.048 416.439 149.892C416.116 148.908 415.686 147.782 415.471 147.361C414.771 145.954 426.289 140.094 434.363 137.75C438.777 136.485 446.097 136.016 449.272 136.766L450.887 137.141L449.111 135.594C447.012 133.719 444.536 129.453 443.352 125.609C442.168 121.858 441.737 110.232 442.544 105.122C443.352 100.2 445.02 94.6216 447.012 90.4493C447.819 88.621 448.519 87.074 448.519 87.0272C448.519 86.9334 447.442 88.1054 446.097 89.6993C442.706 93.5902 434.901 99.872 429.465 103.06C418.7 109.388 406.482 112.576 399.7 110.889L398.031 110.467L399.915 112.623C403.306 116.467 405.082 120.968 406.051 128.234C406.751 133.531 406.267 141.735 405.298 142.016C404.921 142.11 403.683 142.298 402.499 142.485C400.507 142.766 397.17 145.532 358.901 178.863C336.079 198.693 317.241 214.913 317.026 214.913C316.81 214.913 316.649 207.694 316.649 198.834V182.801L351.904 152.095C380.162 127.484 387.32 121.015 388.02 119.421C389.796 115.389 387.697 110.42 383.391 108.498C381.077 107.466 376.878 107.232 374.402 108.076C373.595 108.31 360.247 119.561 344.799 133.016L316.649 157.486V141.079V124.671L338.502 105.685C350.774 95.0435 360.677 86.0427 361.108 85.1989C362.077 83.2299 362.077 79.2921 361.108 77.6045C359.924 75.6824 356.802 73.4791 354.487 72.9165C351.904 72.2602 351.419 72.2602 348.728 72.9634C346.898 73.4322 344.045 75.6824 331.612 86.4177L316.649 99.3095V82.9487V66.5879L325.153 59.181C329.943 54.9618 333.98 51.024 334.519 50.0395C335.703 47.7425 335.703 45.4454 334.465 43.1014C331.773 37.851 324.292 36.2102 318.856 39.5855L316.703 40.945L316.541 27.0219C316.38 13.7082 316.326 13.005 315.196 11.1768C313.688 8.73905 310.082 5.97318 307.552 5.36375C305.238 4.8012 302.439 4.8012 300.232 5.41063ZM182.626 110.795C186.77 112.717 195.651 115.53 197.589 115.53C198.235 115.53 198.827 115.67 198.935 115.858C199.096 116.092 198.558 118.249 197.804 120.686C196.566 124.718 196.405 126.031 196.405 134.047L196.351 142.954L192.045 140.422C185.048 136.297 178.858 134 168.793 131.656C168.308 131.562 168.308 131.14 168.9 129.922C170.461 126.64 171.484 120.077 171.484 113.186C171.484 109.435 171.269 105.873 171.053 105.263C170.73 104.326 171.215 104.513 174.66 106.529C176.813 107.841 180.419 109.717 182.626 110.795ZM436.624 108.732C435.87 115.436 437.108 125.656 439.153 129.968C439.692 131.14 439.745 131.562 439.207 131.656C429.142 134 422.952 136.297 415.955 140.422L411.649 142.954V134.281C411.595 126.64 411.488 125.093 410.303 121.155C409.604 118.717 408.958 116.514 408.958 116.28C408.958 116.092 410.68 115.53 412.726 115.061C419.669 113.514 427.85 110.092 434.471 105.919C435.816 105.029 436.947 104.372 437 104.419C437.054 104.466 436.893 106.388 436.624 108.732ZM291.244 263.246L291.082 285.56L269.391 274.684C257.442 268.684 247.377 263.527 246.946 263.152C246.569 262.777 240.595 244.119 233.759 221.711C226.869 199.256 221.11 180.598 220.949 180.223C220.841 179.848 236.612 193.349 256.042 210.225L291.351 240.931L291.244 263.246ZM374.402 221.242C367.459 243.932 361.431 262.777 361.054 263.152C360.623 263.527 350.558 268.684 338.609 274.684L316.918 285.56L316.756 263.246L316.649 240.931L351.742 210.366C371.065 193.536 386.89 179.848 386.944 179.895C387.051 179.942 381.4 198.553 374.402 221.242ZM256.042 293.623C268.045 299.671 277.895 304.734 277.895 304.921C277.895 305.062 267.991 310.219 255.827 316.313L233.759 327.376L192.476 317.766C169.708 312.469 148.286 307.453 144.841 306.656C141.342 305.859 138.49 305.062 138.49 304.921C138.49 304.781 145.11 303.14 153.184 301.265C161.204 299.39 182.464 294.373 200.388 290.154C218.311 285.982 233.221 282.56 233.544 282.56C233.92 282.607 243.986 287.576 256.042 293.623ZM386.136 285.232C392.757 286.779 409.927 290.764 424.298 294.139C438.669 297.467 454.709 301.218 459.983 302.437C465.204 303.656 469.51 304.781 469.51 304.968C469.51 305.156 468.972 305.39 468.326 305.484C466.981 305.765 400.023 321.329 384.091 325.126L374.295 327.423L352.173 316.313C340.062 310.219 330.105 305.062 330.105 304.921C330.105 304.734 362.723 288.045 374.026 282.466C374.08 282.419 379.516 283.685 386.136 285.232ZM67.4412 292.545C71.5319 296.155 78.3138 300.233 84.5574 302.812C86.9795 303.843 88.971 304.781 88.971 304.921C88.971 305.062 87.0872 305.953 84.7189 306.89C78.7982 309.328 71.478 313.688 67.3336 317.344L63.7811 320.438L60.0672 317.25C55.6536 313.453 49.5715 309.797 43.1125 307.125C40.5289 306.046 38.4298 305.062 38.4298 304.921C38.4298 304.781 40.5289 303.796 43.1125 302.718C49.6253 299.999 55.7075 296.342 59.8519 292.686C61.8435 290.951 63.512 289.545 63.6735 289.498C63.835 289.498 65.5035 290.858 67.4412 292.545ZM548.04 292.686C552.454 296.483 558.321 299.999 564.887 302.718C567.471 303.796 569.57 304.781 569.57 304.921C569.57 305.062 567.471 306.046 564.887 307.125C558.429 309.797 552.346 313.453 547.933 317.25L544.219 320.438L540.666 317.344C536.522 313.688 529.202 309.328 523.281 306.89C520.913 305.953 519.029 305.062 519.029 304.921C519.029 304.781 521.021 303.843 523.496 302.812C529.74 300.233 536.468 296.155 540.559 292.545C542.496 290.858 544.111 289.451 544.165 289.451C544.219 289.451 545.995 290.904 548.04 292.686ZM256.258 399.476C236.935 416.306 221.11 429.995 221.056 429.948C220.733 429.667 246.623 346.409 247 346.315C247.269 346.222 257.28 341.206 269.283 335.205L291.082 324.235L291.244 346.55L291.351 368.911L256.258 399.476ZM338.824 335.205C350.451 341.065 360.354 346.175 360.839 346.597C361.431 347.066 366.49 362.864 374.187 387.897C381.077 410.212 386.782 428.87 386.944 429.385C387.105 429.901 371.388 416.494 351.958 399.617L316.649 368.911V346.784C316.649 333.283 316.864 324.61 317.133 324.61C317.456 324.61 327.198 329.392 338.824 335.205ZM196.405 475.655C196.405 483.812 196.566 485.125 197.804 489.156C198.558 491.594 199.096 493.75 198.935 493.938C198.827 494.172 198.235 494.313 197.589 494.313C195.651 494.313 186.77 497.126 182.626 499.048C180.419 500.126 176.813 502.001 174.66 503.314C171.161 505.329 170.73 505.517 171.107 504.532C171.323 503.97 171.484 500.266 171.484 496.422C171.484 489.344 170.515 483.39 168.847 479.874C168.308 478.702 168.255 478.28 168.793 478.186C178.912 475.842 186.07 473.123 192.583 469.092C194.682 467.779 196.351 466.701 196.351 466.701C196.351 466.654 196.351 470.733 196.405 475.655ZM425.105 473.967C429.142 475.608 432.587 476.686 439.207 478.186C439.745 478.28 439.692 478.702 439.153 479.874C437.539 483.249 436.516 489.391 436.516 495.954C436.516 499.563 436.677 503.22 436.893 504.064L437.323 505.658L433.34 503.314C431.187 502.001 427.581 500.126 425.374 499.048C421.23 497.126 412.349 494.313 410.411 494.313C409.765 494.313 409.173 494.172 409.065 493.938C408.904 493.75 409.442 491.594 410.196 489.156C411.434 485.125 411.595 483.812 411.595 475.796L411.649 466.889L415.955 469.42C418.323 470.826 422.468 472.842 425.105 473.967Z" fill="black" fill-opacity="0.04"/>
</g>
<defs>
<filter id="filter0_f_106_371" x="0" y="0.94751" width="608" height="608" filterUnits="userSpaceOnUse" color-interpolation-filters="sRGB">
<feFlood flood-opacity="0" result="BackgroundImageFix"/>
<feBlend mode="normal" in="SourceGraphic" in2="BackgroundImageFix" result="shape"/>
<feGaussianBlur stdDeviation="2" result="effect1_foregroundBlur_106_371"/>
</filter>
</defs>
</svg>
