<svg width="59" height="22" viewBox="0 0 59 22" fill="none" xmlns="http://www.w3.org/2000/svg">
<path d="M0.965256 18.8751C4.32826 14.2461 8.46126 11.9051 12.9723 10.9161C15.0423 14.5411 18.6363 17.4261 22.3973 19.1231C22.9073 19.3531 23.5623 18.9741 23.3893 18.3611C22.4003 14.8671 19.9873 11.9431 16.7903 10.3821C19.6153 10.2001 22.5383 10.4181 25.4773 10.8481C25.6423 14.5781 28.3763 17.8751 32.0883 18.6451C32.5073 18.7321 32.8573 18.4631 32.8853 18.0371C33.0393 15.7641 32.1243 13.3991 30.5233 11.7511C32.5283 12.1631 34.5183 12.6191 36.4663 13.0561C36.4373 13.1721 36.4713 13.2801 36.5553 13.3621C37.3783 17.4321 41.6333 19.6941 45.1383 21.2851C45.6503 21.5171 46.2013 21.1391 46.0803 20.5611C45.4573 17.5881 43.3563 14.8961 40.6153 13.5921C42.7723 13.6961 45.2733 13.5951 47.4983 13.0871C49.3423 17.0911 55.0703 17.9901 58.6343 15.9051C58.9543 15.7181 59.0603 15.2051 58.7583 14.9431C56.5473 13.0331 53.9023 11.9031 51.0943 11.6701C52.7083 10.6201 53.6753 9.0711 53.3773 6.8351C53.3543 6.6651 53.2733 6.53611 53.1713 6.43511C53.0613 4.23611 54.3533 2.1631 56.3773 1.2751C56.5343 3.7011 55.4953 5.9511 53.6463 7.5531C53.2853 7.8661 53.7743 8.49911 54.1573 8.21511C56.6453 6.36711 57.7683 3.4321 57.3423 0.385104C57.3033 0.108104 56.9413 -0.0569006 56.6953 0.0180994C53.8583 0.876099 52.0333 3.58711 52.1733 6.46111C52.1093 6.55811 52.0653 6.67611 52.0783 6.83411C52.2193 8.56111 51.2303 9.7441 49.7803 10.5531C51.0763 8.1001 51.1853 5.2581 49.9953 2.6091C49.8773 2.3471 49.4313 2.29111 49.2513 2.51311C47.0613 5.21011 45.6633 8.4321 45.4073 11.8981C43.9883 12.1121 42.6283 12.1711 41.6503 12.1521C44.2663 10.8761 45.9593 7.95011 45.5203 4.91811C45.4633 4.52611 44.9483 4.3981 44.6513 4.5641C41.6463 6.2491 39.1823 8.59111 37.3923 11.5321C35.7363 11.1351 34.1013 10.6191 32.4703 10.1911C31.8683 10.0331 31.2633 9.88311 30.6563 9.73911C32.9213 8.95811 34.7733 7.04011 35.4183 4.63211C35.4953 4.34411 35.3203 3.92911 34.9913 3.88011C31.1423 3.30611 27.4533 5.31411 25.8333 8.80011C24.3243 8.57911 22.8063 8.4411 21.2843 8.3931C23.3243 7.2291 24.8073 5.13311 25.1953 2.74311C25.2653 2.31211 24.9323 1.8581 24.4533 2.0011C20.3923 3.2081 16.8073 5.38011 14.1053 8.67911C14.0133 8.79211 13.9813 8.91311 13.9763 9.03311C8.33926 10.2741 3.24526 13.2941 0.0842591 18.3591C-0.270741 18.9281 0.587256 19.3951 0.965256 18.8751ZM48.4143 12.8511C48.5053 12.8241 48.5953 12.7961 48.6853 12.7671C51.7973 12.5431 54.7173 13.3371 57.1843 15.2421C53.9483 16.5721 50.7763 15.2571 48.4143 12.8511ZM46.4193 11.7181C46.7583 8.81711 47.7093 6.1761 49.4443 3.8181C50.2923 6.2911 49.9383 8.9331 48.5253 11.1281C47.8573 11.3781 47.1423 11.5701 46.4193 11.7181ZM39.4203 11.9401C39.1363 11.8951 38.8523 11.8461 38.5693 11.7911C40.0663 9.46211 42.0263 7.52111 44.3863 6.08611C44.2553 8.88611 42.2213 11.3931 39.4203 11.9401ZM37.9283 13.7751C40.9093 14.6781 43.3333 16.6401 44.4383 19.5621C41.7043 18.2641 39.0093 16.5931 37.9283 13.7751ZM28.1533 9.20311C27.7683 9.12811 27.3833 9.05711 26.9973 8.99111C28.3113 6.40911 31.0933 4.8121 33.9883 4.9881C33.0303 7.4491 30.7483 8.99011 28.1533 9.20311ZM26.7533 11.0461C27.2633 11.1301 27.7743 11.2191 28.2843 11.3131C30.2513 12.6721 31.5173 14.7261 31.6133 17.2051C28.9073 16.3061 26.9983 13.8731 26.7533 11.0461ZM17.6603 8.47411C16.9773 8.53111 16.2993 8.6171 15.6263 8.7231C17.8933 6.3101 20.6223 4.47711 23.7833 3.46511C22.9523 6.19811 20.6783 7.96111 17.7833 8.42711C17.7343 8.43511 17.6983 8.45511 17.6603 8.47411ZM14.3883 10.6501C14.4903 10.6341 14.5913 10.6191 14.6933 10.6041C17.8133 11.7891 20.2993 14.0981 21.5633 17.1611C18.6763 15.5081 16.4423 13.3311 14.3883 10.6501Z" fill="#223B2D"/>
</svg>
