<svg width="59" height="22" viewBox="0 0 59 22" fill="none" xmlns="http://www.w3.org/2000/svg">
<path d="M58.8555 18.3591C55.6945 13.2941 50.6015 10.2741 44.9635 9.03311C44.9585 8.91411 44.9265 8.79211 44.8345 8.67911C42.1335 5.38011 38.5475 3.2081 34.4865 2.0011C34.0075 1.8591 33.6745 2.31211 33.7445 2.74311C34.1325 5.13411 35.6155 7.2291 37.6555 8.3931C36.1335 8.4411 34.6145 8.57911 33.1055 8.80011C31.4855 5.31411 27.7965 3.30611 23.9475 3.88011C23.6185 3.92911 23.4435 4.34411 23.5205 4.63211C24.1655 7.04111 26.0175 8.95911 28.2825 9.73911C27.6755 9.88311 27.0705 10.0331 26.4685 10.1911C24.8375 10.6191 23.2025 11.1351 21.5465 11.5321C19.7565 8.59111 17.2935 6.2491 14.2875 4.5641C13.9905 4.3971 13.4755 4.52611 13.4185 4.91811C12.9805 7.95011 14.6735 10.8771 17.2885 12.1521C16.3105 12.1721 14.9505 12.1121 13.5315 11.8981C13.2755 8.4321 11.8775 5.21011 9.6875 2.51311C9.5075 2.29111 9.0605 2.3461 8.9435 2.6091C7.7535 5.2581 7.8625 8.1001 9.1585 10.5531C7.7085 9.7441 6.7205 8.56111 6.8605 6.83411C6.8735 6.67511 6.8295 6.55811 6.7655 6.46111C6.9055 3.58711 5.0805 0.876099 2.2435 0.0180994C1.9975 -0.0569006 1.6355 0.108104 1.5965 0.385104C1.1705 3.4321 2.29251 6.36711 4.78151 8.21511C5.16351 8.49911 5.6525 7.8651 5.2925 7.5531C3.4435 5.9511 2.4045 3.7011 2.5615 1.2751C4.5855 2.1631 5.87751 4.23611 5.76751 6.43511C5.66551 6.53611 5.5835 6.6641 5.5615 6.8351C5.2625 9.0711 6.22951 10.6201 7.84351 11.6701C5.03551 11.9021 2.3905 13.0321 0.179504 14.9431C-0.123496 15.2041 -0.0164952 15.7171 0.303505 15.9051C3.8675 17.9901 9.59551 17.0921 11.4395 13.0871C13.6645 13.5951 16.1665 13.6961 18.3235 13.5921C15.5825 14.8961 13.4815 17.5881 12.8585 20.5611C12.7375 21.1391 13.2885 21.5171 13.8005 21.2851C17.3055 19.6941 21.5605 17.4321 22.3835 13.3621C22.4685 13.2801 22.5015 13.1721 22.4725 13.0561C24.4195 12.6191 26.4095 12.1631 28.4155 11.7511C26.8145 13.3991 25.8995 15.7651 26.0535 18.0371C26.0825 18.4631 26.4315 18.7321 26.8515 18.6451C30.5635 17.8751 33.2965 14.5781 33.4625 10.8481C36.4015 10.4181 39.3255 10.2011 42.1495 10.3821C38.9525 11.9431 36.5395 14.8671 35.5505 18.3611C35.3765 18.9741 36.0315 19.3531 36.5425 19.1231C40.3035 17.4261 43.8965 14.5411 45.9665 10.9161C50.4765 11.9051 54.6105 14.2461 57.9735 18.8751C58.3525 19.3951 59.2105 18.9281 58.8555 18.3591ZM1.75451 15.2421C4.22151 13.3381 7.14151 12.5431 10.2535 12.7671C10.3435 12.7951 10.4335 12.8241 10.5245 12.8511C8.16351 15.2571 4.99151 16.5721 1.75451 15.2421ZM10.4135 11.1291C9.00051 8.93411 8.6465 6.29211 9.4945 3.81911C11.2295 6.17611 12.1815 8.8181 12.5195 11.7191C11.7965 11.5701 11.0825 11.3781 10.4135 11.1291ZM14.5535 6.0851C16.9135 7.5201 18.8735 9.4611 20.3705 11.7901C20.0875 11.8461 19.8035 11.8941 19.5195 11.9391C16.7185 11.3931 14.6845 8.8861 14.5535 6.0851ZM14.5015 19.5621C15.6065 16.6401 18.0305 14.6791 21.0115 13.7751C19.9305 16.5931 17.2355 18.2641 14.5015 19.5621ZM24.9505 4.9881C27.8455 4.8121 30.6275 6.40911 31.9425 8.99111C31.5565 9.05711 31.1715 9.12811 30.7865 9.20311C28.1915 8.99011 25.9085 7.4491 24.9505 4.9881ZM27.3265 17.2061C27.4225 14.7261 28.6885 12.6731 30.6555 11.3141C31.1655 11.2201 31.6755 11.1311 32.1865 11.0471C31.9415 13.8731 30.0315 16.3061 27.3265 17.2061ZM41.1565 8.42711C38.2615 7.96111 35.9875 6.19811 35.1565 3.46511C38.3175 4.47711 41.0465 6.3101 43.3135 8.7231C42.6395 8.6181 41.9615 8.53211 41.2795 8.47411C41.2415 8.45511 41.2045 8.43511 41.1565 8.42711ZM37.3765 17.1621C38.6415 14.0991 41.1265 11.7901 44.2465 10.6051C44.3485 10.6201 44.4495 10.6351 44.5515 10.6511C42.4975 13.3311 40.2635 15.5081 37.3765 17.1621Z" fill="#223B2D"/>
</svg>
