<svg width="775" height="758" viewBox="0 0 775 758" fill="none" xmlns="http://www.w3.org/2000/svg">
<rect x="10" y="10" width="755" height="731" fill="#7FBD8F" stroke="#7FBD8F" stroke-width="20"/>
<path d="M349.5 361.5L438 432L658.5 499L768.5 504M349.5 361.5L6 142M349.5 361.5L709.5 327.5L770 288" stroke="black" stroke-width="15"/>
<path d="M195.5 257L352.5 10.5M9.5 747L124 628L279 322.5M24.5 750.5L139.5 628L292.5 329M676 504L712.5 528.234M767.5 566L712.5 528.234M541 461L727 319.5M364 538L534 461M550.5 66L700.5 322.5M80 180.5L195.5 13M188 548L615.5 750H700.5L763 650L752 608L712.5 561L706 548L712.5 528.234" stroke="black" stroke-width="10"/>
<path d="M436.5 712.5L503.146 567.5M547.5 471L503.146 567.5M478 486L579.5 567.5M503.146 567.5L567 599.5L579.5 573L647.5 501.5M719 495L750 422.5L703.5 389.5M601.5 422.5L610 431L729 374L771 328.5M682.5 362L703.5 380.5" stroke="black" stroke-width="5"/>
<path d="M482.5 16.5L614.5 78.2419L741 137.411M772.5 150.5L741 137.411M452 225.5L578 11M643 225.5H700.5L741 137.411" stroke="black" stroke-width="5"/>
<path d="M643 226.5L717 79M717 79L772 110M717 79L657 8.5M613.5 177L654 99M643 92.5L676 32" stroke="black" stroke-width="5"/>
<path d="M712.5 203.5L752 222L768 203.5M726.5 12L771.5 42.5M398 523.5L505.5 287M505.5 287L574 293.5L608 330M505.5 287L413.5 180.5L294.5 109M641 330L559.5 142M574 114.5L548.5 166L467 197" stroke="black" stroke-width="5"/>
<path d="M107.5 143L223 211M179 44L200 55.7188M291 106.5L200 55.7188M200 55.7188L263.5 29.5L321 65M350.5 18.5L421 65M350.5 143L365.888 127.5M483 10L463.181 29.5M365.888 127.5L378 135.5L470.5 44L463.181 29.5M365.888 127.5L463.181 29.5" stroke="black" stroke-width="5"/>
<path d="M168 534.5L3 397M10.5 543.5L144 403.5L196.5 466.5M255 363L196.5 352.213M196.5 352.213L184.5 350L107.5 311.5H87.5L64.5 330L87.5 377.5H94.5M196.5 352.213L127.5 377.5H120.5M120.5 377.5L196.5 266M120.5 377.5H94.5M120.5 377.5V420M92.5 310.5L3 201.5L10 217L56 176M94.5 377.5V420M150.5 623.5L235 671L255 697.5L365.5 754.5M314.5 745.5L324 709.5L348.5 697.5L357 682L348.5 657.5L362.5 632.5M324 608L362.5 534.5L314.5 510.142M228.5 466.5L314.5 510.142M246 420L338.5 460.575M409 491.5L338.5 460.575M338.5 460.575L314.5 510.142" stroke="black" stroke-width="5"/>
<path d="M644 418L732 460M527.5 315.5H594M105.5 668.5L235 751M272.5 710.5L254 751M5 677.5L82 607M8 529.5L57.5 580.25M116.5 633.5L57.5 580.25M57.5 580.25L123 497M35 155L125 11.5M7 93L59 9.5M7 11.5L138.5 101M5 78.5L105.5 142" stroke="black" stroke-width="5"/>
<path d="M318.5 332L344 289.5L393.5 306L410 289.5L484.5 332" stroke="black"/>
<path d="M327.5 612.5L355 606L373.5 561L366 535.5M428.5 664.5L475 577.5M127.5 368.5L94.5 351L81 332L99.5 318.017L86.5 312L147 340M704.5 561L638.5 675.5L659.5 698.5L649.5 711.5L691.5 737H704.5" stroke="black"/>
<path d="M236.311 644.94C236.438 645.027 236.611 645.11 236.831 645.19C237.058 645.263 237.324 645.3 237.631 645.3C237.944 645.3 238.201 645.25 238.401 645.15C238.601 645.043 238.754 644.887 238.861 644.68C238.968 644.467 239.041 644.197 239.081 643.87C239.121 643.543 239.141 643.157 239.141 642.71V638.9H240.041V642.51C240.041 643.037 240.014 643.52 239.961 643.96C239.908 644.4 239.801 644.783 239.641 645.11C239.481 645.43 239.241 645.677 238.921 645.85C238.608 646.023 238.188 646.11 237.661 646.11C237.328 646.11 237.034 646.073 236.781 646C236.528 645.927 236.294 645.817 236.081 645.67L236.311 644.94ZM241.027 644.49C241.027 644.157 241.12 643.87 241.307 643.63C241.5 643.383 241.763 643.193 242.097 643.06C242.43 642.927 242.817 642.86 243.257 642.86C243.49 642.86 243.737 642.88 243.997 642.92C244.257 642.953 244.487 643.007 244.687 643.08V642.7C244.687 642.3 244.567 641.987 244.327 641.76C244.087 641.527 243.747 641.41 243.307 641.41C243.02 641.41 242.743 641.463 242.477 641.57C242.217 641.67 241.94 641.817 241.647 642.01L241.327 641.39C241.667 641.157 242.007 640.983 242.347 640.87C242.687 640.75 243.04 640.69 243.407 640.69C244.073 640.69 244.6 640.877 244.987 641.25C245.373 641.617 245.567 642.13 245.567 642.79V645C245.567 645.107 245.587 645.187 245.627 645.24C245.673 645.287 245.747 645.313 245.847 645.32V646C245.76 646.013 245.683 646.023 245.617 646.03C245.557 646.037 245.507 646.04 245.467 646.04C245.26 646.04 245.103 645.983 244.997 645.87C244.897 645.757 244.84 645.637 244.827 645.51L244.807 645.18C244.58 645.473 244.283 645.7 243.917 645.86C243.55 646.02 243.187 646.1 242.827 646.1C242.48 646.1 242.17 646.03 241.897 645.89C241.623 645.743 241.41 645.55 241.257 645.31C241.103 645.063 241.027 644.79 241.027 644.49ZM244.427 644.86C244.507 644.767 244.57 644.673 244.617 644.58C244.663 644.48 244.687 644.397 244.687 644.33V643.68C244.48 643.6 244.263 643.54 244.037 643.5C243.81 643.453 243.587 643.43 243.367 643.43C242.92 643.43 242.557 643.52 242.277 643.7C242.003 643.873 241.867 644.113 241.867 644.42C241.867 644.587 241.91 644.75 241.997 644.91C242.09 645.063 242.223 645.19 242.397 645.29C242.577 645.39 242.797 645.44 243.057 645.44C243.33 645.44 243.59 645.387 243.837 645.28C244.083 645.167 244.28 645.027 244.427 644.86ZM249.734 641.55C249.294 641.557 248.904 641.67 248.564 641.89C248.23 642.103 247.994 642.4 247.854 642.78V646H246.974V640.78H247.794V641.99C247.974 641.63 248.21 641.34 248.504 641.12C248.804 640.893 249.117 640.767 249.444 640.74C249.51 640.74 249.567 640.74 249.614 640.74C249.66 640.74 249.7 640.743 249.734 640.75V641.55ZM250.169 643.4C250.169 642.907 250.269 642.457 250.469 642.05C250.675 641.637 250.955 641.307 251.309 641.06C251.669 640.813 252.079 640.69 252.539 640.69C252.959 640.69 253.335 640.8 253.669 641.02C254.002 641.24 254.262 641.507 254.449 641.82V638.7H255.329V645C255.329 645.107 255.349 645.187 255.389 645.24C255.435 645.287 255.509 645.313 255.609 645.32V646C255.442 646.027 255.312 646.04 255.219 646.04C255.045 646.04 254.892 645.98 254.759 645.86C254.632 645.74 254.569 645.607 254.569 645.46V645.02C254.362 645.353 254.085 645.617 253.739 645.81C253.392 646.003 253.032 646.1 252.659 646.1C252.299 646.1 251.965 646.03 251.659 645.89C251.359 645.743 251.095 645.543 250.869 645.29C250.649 645.037 250.475 644.75 250.349 644.43C250.229 644.103 250.169 643.76 250.169 643.4ZM254.449 644.17V642.67C254.369 642.443 254.239 642.24 254.059 642.06C253.879 641.873 253.675 641.727 253.449 641.62C253.229 641.507 253.009 641.45 252.789 641.45C252.529 641.45 252.292 641.507 252.079 641.62C251.872 641.727 251.692 641.873 251.539 642.06C251.392 642.24 251.279 642.447 251.199 642.68C251.119 642.913 251.079 643.157 251.079 643.41C251.079 643.67 251.122 643.917 251.209 644.15C251.302 644.383 251.429 644.59 251.589 644.77C251.755 644.95 251.945 645.09 252.159 645.19C252.379 645.29 252.615 645.34 252.869 645.34C253.029 645.34 253.192 645.31 253.359 645.25C253.532 645.19 253.695 645.107 253.849 645C254.002 644.893 254.132 644.77 254.239 644.63C254.345 644.483 254.415 644.33 254.449 644.17ZM256.798 646V640.78H257.678V646H256.798ZM256.798 639.8V638.7H257.678V639.8H256.798ZM263.633 646H262.753V643.08C262.753 642.527 262.666 642.123 262.493 641.87C262.326 641.61 262.069 641.48 261.723 641.48C261.483 641.48 261.243 641.54 261.003 641.66C260.769 641.78 260.559 641.943 260.373 642.15C260.193 642.35 260.063 642.583 259.983 642.85V646H259.103V640.78H259.903V641.9C260.043 641.653 260.223 641.44 260.443 641.26C260.663 641.08 260.913 640.94 261.193 640.84C261.473 640.74 261.766 640.69 262.073 640.69C262.373 640.69 262.623 640.747 262.823 640.86C263.029 640.967 263.189 641.12 263.303 641.32C263.423 641.513 263.506 641.743 263.553 642.01C263.606 642.277 263.633 642.567 263.633 642.88V646ZM267.19 643.4C267.19 642.907 267.29 642.457 267.49 642.05C267.697 641.637 267.977 641.307 268.33 641.06C268.69 640.813 269.1 640.69 269.56 640.69C269.98 640.69 270.357 640.8 270.69 641.02C271.024 641.24 271.284 641.507 271.47 641.82V638.7H272.35V645C272.35 645.107 272.37 645.187 272.41 645.24C272.457 645.287 272.53 645.313 272.63 645.32V646C272.464 646.027 272.334 646.04 272.24 646.04C272.067 646.04 271.914 645.98 271.78 645.86C271.654 645.74 271.59 645.607 271.59 645.46V645.02C271.384 645.353 271.107 645.617 270.76 645.81C270.414 646.003 270.054 646.1 269.68 646.1C269.32 646.1 268.987 646.03 268.68 645.89C268.38 645.743 268.117 645.543 267.89 645.29C267.67 645.037 267.497 644.75 267.37 644.43C267.25 644.103 267.19 643.76 267.19 643.4ZM271.47 644.17V642.67C271.39 642.443 271.26 642.24 271.08 642.06C270.9 641.873 270.697 641.727 270.47 641.62C270.25 641.507 270.03 641.45 269.81 641.45C269.55 641.45 269.314 641.507 269.1 641.62C268.894 641.727 268.714 641.873 268.56 642.06C268.414 642.24 268.3 642.447 268.22 642.68C268.14 642.913 268.1 643.157 268.1 643.41C268.1 643.67 268.144 643.917 268.23 644.15C268.324 644.383 268.45 644.59 268.61 644.77C268.777 644.95 268.967 645.09 269.18 645.19C269.4 645.29 269.637 645.34 269.89 645.34C270.05 645.34 270.214 645.31 270.38 645.25C270.554 645.19 270.717 645.107 270.87 645C271.024 644.893 271.154 644.77 271.26 644.63C271.367 644.483 271.437 644.33 271.47 644.17ZM273.769 643.91V640.78H274.649V643.74C274.649 644.273 274.743 644.673 274.929 644.94C275.116 645.207 275.393 645.34 275.759 645.34C275.999 645.34 276.229 645.29 276.449 645.19C276.676 645.083 276.879 644.933 277.059 644.74C277.239 644.547 277.379 644.317 277.479 644.05V640.78H278.359V645C278.359 645.107 278.379 645.187 278.419 645.24C278.466 645.287 278.539 645.313 278.639 645.32V646C278.539 646.013 278.459 646.02 278.399 646.02C278.346 646.027 278.293 646.03 278.239 646.03C278.073 646.03 277.929 645.98 277.809 645.88C277.689 645.773 277.626 645.643 277.619 645.49L277.599 644.88C277.373 645.267 277.066 645.567 276.679 645.78C276.299 645.993 275.883 646.1 275.429 646.1C274.883 646.1 274.469 645.917 274.189 645.55C273.909 645.177 273.769 644.63 273.769 643.91ZM288.635 646V640.58L286.295 644.75H285.745L283.395 640.58V646H282.495V638.9H283.445L286.015 643.51L288.595 638.9H289.535V646H288.635ZM290.636 644.49C290.636 644.157 290.729 643.87 290.916 643.63C291.109 643.383 291.373 643.193 291.706 643.06C292.039 642.927 292.426 642.86 292.866 642.86C293.099 642.86 293.346 642.88 293.606 642.92C293.866 642.953 294.096 643.007 294.296 643.08V642.7C294.296 642.3 294.176 641.987 293.936 641.76C293.696 641.527 293.356 641.41 292.916 641.41C292.629 641.41 292.353 641.463 292.086 641.57C291.826 641.67 291.549 641.817 291.256 642.01L290.936 641.39C291.276 641.157 291.616 640.983 291.956 640.87C292.296 640.75 292.649 640.69 293.016 640.69C293.683 640.69 294.209 640.877 294.596 641.25C294.983 641.617 295.176 642.13 295.176 642.79V645C295.176 645.107 295.196 645.187 295.236 645.24C295.283 645.287 295.356 645.313 295.456 645.32V646C295.369 646.013 295.293 646.023 295.226 646.03C295.166 646.037 295.116 646.04 295.076 646.04C294.869 646.04 294.713 645.983 294.606 645.87C294.506 645.757 294.449 645.637 294.436 645.51L294.416 645.18C294.189 645.473 293.893 645.7 293.526 645.86C293.159 646.02 292.796 646.1 292.436 646.1C292.089 646.1 291.779 646.03 291.506 645.89C291.233 645.743 291.019 645.55 290.866 645.31C290.713 645.063 290.636 644.79 290.636 644.49ZM294.036 644.86C294.116 644.767 294.179 644.673 294.226 644.58C294.273 644.48 294.296 644.397 294.296 644.33V643.68C294.089 643.6 293.873 643.54 293.646 643.5C293.419 643.453 293.196 643.43 292.976 643.43C292.529 643.43 292.166 643.52 291.886 643.7C291.613 643.873 291.476 644.113 291.476 644.42C291.476 644.587 291.519 644.75 291.606 644.91C291.699 645.063 291.833 645.19 292.006 645.29C292.186 645.39 292.406 645.44 292.666 645.44C292.939 645.44 293.199 645.387 293.446 645.28C293.693 645.167 293.889 645.027 294.036 644.86ZM296.583 646V640.78H297.463V646H296.583ZM296.583 639.8V638.7H297.463V639.8H296.583ZM298.908 638.7H299.788V644.65C299.788 644.937 299.828 645.113 299.908 645.18C299.988 645.247 300.084 645.28 300.198 645.28C300.338 645.28 300.471 645.267 300.598 645.24C300.724 645.207 300.831 645.173 300.918 645.14L301.058 645.86C300.911 645.92 300.738 645.97 300.538 646.01C300.338 646.05 300.161 646.07 300.008 646.07C299.668 646.07 299.398 645.973 299.198 645.78C299.004 645.587 298.908 645.317 298.908 644.97V638.7Z" fill="black"/>
<path d="M282.584 235.622C282.749 235.735 282.974 235.843 283.26 235.947C283.555 236.042 283.902 236.09 284.3 236.09C284.708 236.09 285.041 236.025 285.301 235.895C285.561 235.756 285.761 235.553 285.899 235.284C286.038 235.007 286.133 234.656 286.185 234.231C286.237 233.806 286.263 233.304 286.263 232.723V227.77H287.433V232.463C287.433 233.148 287.399 233.776 287.329 234.348C287.26 234.92 287.121 235.418 286.913 235.843C286.705 236.259 286.393 236.58 285.977 236.805C285.57 237.03 285.024 237.143 284.339 237.143C283.906 237.143 283.525 237.095 283.195 237C282.866 236.905 282.563 236.762 282.285 236.571L282.584 235.622ZM288.715 235.037C288.715 234.604 288.836 234.231 289.079 233.919C289.33 233.598 289.672 233.351 290.106 233.178C290.539 233.005 291.042 232.918 291.614 232.918C291.917 232.918 292.238 232.944 292.576 232.996C292.914 233.039 293.213 233.109 293.473 233.204V232.71C293.473 232.19 293.317 231.783 293.005 231.488C292.693 231.185 292.251 231.033 291.679 231.033C291.306 231.033 290.946 231.102 290.6 231.241C290.262 231.371 289.902 231.562 289.521 231.813L289.105 231.007C289.547 230.704 289.989 230.478 290.431 230.331C290.873 230.175 291.332 230.097 291.809 230.097C292.675 230.097 293.36 230.34 293.863 230.825C294.365 231.302 294.617 231.969 294.617 232.827V235.7C294.617 235.839 294.643 235.943 294.695 236.012C294.755 236.073 294.851 236.107 294.981 236.116V237C294.868 237.017 294.768 237.03 294.682 237.039C294.604 237.048 294.539 237.052 294.487 237.052C294.218 237.052 294.014 236.978 293.876 236.831C293.746 236.684 293.672 236.528 293.655 236.363L293.629 235.934C293.334 236.315 292.948 236.61 292.472 236.818C291.995 237.026 291.523 237.13 291.055 237.13C290.604 237.13 290.201 237.039 289.846 236.857C289.49 236.666 289.213 236.415 289.014 236.103C288.814 235.782 288.715 235.427 288.715 235.037ZM293.135 235.518C293.239 235.397 293.321 235.275 293.382 235.154C293.442 235.024 293.473 234.916 293.473 234.829V233.984C293.204 233.88 292.922 233.802 292.628 233.75C292.333 233.689 292.043 233.659 291.757 233.659C291.176 233.659 290.704 233.776 290.34 234.01C289.984 234.235 289.807 234.547 289.807 234.946C289.807 235.163 289.863 235.375 289.976 235.583C290.097 235.782 290.27 235.947 290.496 236.077C290.73 236.207 291.016 236.272 291.354 236.272C291.709 236.272 292.047 236.203 292.368 236.064C292.688 235.917 292.944 235.735 293.135 235.518ZM300.034 231.215C299.462 231.224 298.955 231.371 298.513 231.657C298.08 231.934 297.772 232.32 297.59 232.814V237H296.446V230.214H297.512V231.787C297.746 231.319 298.054 230.942 298.435 230.656C298.825 230.361 299.232 230.197 299.657 230.162C299.744 230.162 299.817 230.162 299.878 230.162C299.939 230.162 299.991 230.166 300.034 230.175V231.215ZM300.6 233.62C300.6 232.979 300.73 232.394 300.99 231.865C301.258 231.328 301.622 230.899 302.082 230.578C302.55 230.257 303.083 230.097 303.681 230.097C304.227 230.097 304.716 230.24 305.15 230.526C305.583 230.812 305.921 231.159 306.164 231.566V227.51H307.308V235.7C307.308 235.839 307.334 235.943 307.386 236.012C307.446 236.073 307.542 236.107 307.672 236.116V237C307.455 237.035 307.286 237.052 307.165 237.052C306.939 237.052 306.74 236.974 306.567 236.818C306.402 236.662 306.32 236.489 306.32 236.298V235.726C306.051 236.159 305.691 236.502 305.241 236.753C304.79 237.004 304.322 237.13 303.837 237.13C303.369 237.13 302.935 237.039 302.537 236.857C302.147 236.666 301.804 236.406 301.51 236.077C301.224 235.748 300.998 235.375 300.834 234.959C300.678 234.534 300.6 234.088 300.6 233.62ZM306.164 234.621V232.671C306.06 232.376 305.891 232.112 305.657 231.878C305.423 231.635 305.158 231.445 304.864 231.306C304.578 231.159 304.292 231.085 304.006 231.085C303.668 231.085 303.36 231.159 303.083 231.306C302.814 231.445 302.58 231.635 302.381 231.878C302.19 232.112 302.043 232.381 301.939 232.684C301.835 232.987 301.783 233.304 301.783 233.633C301.783 233.971 301.839 234.292 301.952 234.595C302.073 234.898 302.238 235.167 302.446 235.401C302.662 235.635 302.909 235.817 303.187 235.947C303.473 236.077 303.78 236.142 304.11 236.142C304.318 236.142 304.53 236.103 304.747 236.025C304.972 235.947 305.184 235.839 305.384 235.7C305.583 235.561 305.752 235.401 305.891 235.219C306.029 235.028 306.12 234.829 306.164 234.621ZM309.217 237V230.214H310.361V237H309.217ZM309.217 228.94V227.51H310.361V228.94H309.217ZM318.103 237H316.959V233.204C316.959 232.485 316.846 231.96 316.621 231.631C316.404 231.293 316.07 231.124 315.62 231.124C315.308 231.124 314.996 231.202 314.684 231.358C314.38 231.514 314.107 231.726 313.865 231.995C313.631 232.255 313.462 232.558 313.358 232.905V237H312.214V230.214H313.254V231.67C313.436 231.349 313.67 231.072 313.956 230.838C314.242 230.604 314.567 230.422 314.931 230.292C315.295 230.162 315.676 230.097 316.075 230.097C316.465 230.097 316.79 230.171 317.05 230.318C317.318 230.457 317.526 230.656 317.674 230.916C317.83 231.167 317.938 231.466 317.999 231.813C318.068 232.16 318.103 232.537 318.103 232.944V237ZM322.728 233.62C322.728 232.979 322.858 232.394 323.118 231.865C323.386 231.328 323.75 230.899 324.21 230.578C324.678 230.257 325.211 230.097 325.809 230.097C326.355 230.097 326.844 230.24 327.278 230.526C327.711 230.812 328.049 231.159 328.292 231.566V227.51H329.436V235.7C329.436 235.839 329.462 235.943 329.514 236.012C329.574 236.073 329.67 236.107 329.8 236.116V237C329.583 237.035 329.414 237.052 329.293 237.052C329.067 237.052 328.868 236.974 328.695 236.818C328.53 236.662 328.448 236.489 328.448 236.298V235.726C328.179 236.159 327.819 236.502 327.369 236.753C326.918 237.004 326.45 237.13 325.965 237.13C325.497 237.13 325.063 237.039 324.665 236.857C324.275 236.666 323.932 236.406 323.638 236.077C323.352 235.748 323.126 235.375 322.962 234.959C322.806 234.534 322.728 234.088 322.728 233.62ZM328.292 234.621V232.671C328.188 232.376 328.019 232.112 327.785 231.878C327.551 231.635 327.286 231.445 326.992 231.306C326.706 231.159 326.42 231.085 326.134 231.085C325.796 231.085 325.488 231.159 325.211 231.306C324.942 231.445 324.708 231.635 324.509 231.878C324.318 232.112 324.171 232.381 324.067 232.684C323.963 232.987 323.911 233.304 323.911 233.633C323.911 233.971 323.967 234.292 324.08 234.595C324.201 234.898 324.366 235.167 324.574 235.401C324.79 235.635 325.037 235.817 325.315 235.947C325.601 236.077 325.908 236.142 326.238 236.142C326.446 236.142 326.658 236.103 326.875 236.025C327.1 235.947 327.312 235.839 327.512 235.7C327.711 235.561 327.88 235.401 328.019 235.219C328.157 235.028 328.248 234.829 328.292 234.621ZM334.348 237.13C333.837 237.13 333.369 237.039 332.944 236.857C332.528 236.666 332.164 236.411 331.852 236.09C331.549 235.761 331.311 235.384 331.137 234.959C330.973 234.534 330.89 234.084 330.89 233.607C330.89 232.966 331.038 232.381 331.332 231.852C331.627 231.323 332.034 230.899 332.554 230.578C333.083 230.257 333.685 230.097 334.361 230.097C335.046 230.097 335.64 230.262 336.142 230.591C336.654 230.912 337.048 231.336 337.325 231.865C337.611 232.385 337.754 232.948 337.754 233.555C337.754 233.642 337.75 233.728 337.741 233.815C337.741 233.893 337.737 233.954 337.728 233.997H332.099C332.134 234.439 332.255 234.833 332.463 235.18C332.68 235.518 332.957 235.787 333.295 235.986C333.633 236.177 333.997 236.272 334.387 236.272C334.803 236.272 335.193 236.168 335.557 235.96C335.93 235.752 336.186 235.479 336.324 235.141L337.312 235.414C337.165 235.743 336.944 236.038 336.649 236.298C336.363 236.558 336.021 236.762 335.622 236.909C335.232 237.056 334.808 237.13 334.348 237.13ZM332.06 233.204H336.688C336.654 232.762 336.528 232.372 336.311 232.034C336.095 231.696 335.817 231.432 335.479 231.241C335.141 231.05 334.769 230.955 334.361 230.955C333.963 230.955 333.594 231.05 333.256 231.241C332.918 231.432 332.641 231.696 332.424 232.034C332.216 232.372 332.095 232.762 332.06 233.204ZM341.353 237.13C340.79 237.13 340.261 237.039 339.767 236.857C339.273 236.666 338.848 236.385 338.493 236.012L338.935 235.206C339.325 235.57 339.715 235.83 340.105 235.986C340.495 236.142 340.894 236.22 341.301 236.22C341.769 236.22 342.15 236.133 342.445 235.96C342.74 235.778 342.887 235.514 342.887 235.167C342.887 234.916 342.809 234.729 342.653 234.608C342.506 234.487 342.293 234.387 342.016 234.309C341.739 234.222 341.409 234.127 341.028 234.023C340.56 233.884 340.166 233.737 339.845 233.581C339.524 233.425 339.282 233.23 339.117 232.996C338.952 232.762 338.87 232.467 338.87 232.112C338.87 231.679 338.983 231.315 339.208 231.02C339.433 230.717 339.741 230.487 340.131 230.331C340.53 230.175 340.98 230.097 341.483 230.097C341.986 230.097 342.441 230.175 342.848 230.331C343.255 230.487 343.606 230.717 343.901 231.02L343.381 231.813C343.112 231.536 342.818 231.332 342.497 231.202C342.176 231.063 341.817 230.994 341.418 230.994C341.184 230.994 340.954 231.024 340.729 231.085C340.504 231.137 340.317 231.237 340.17 231.384C340.023 231.523 339.949 231.722 339.949 231.982C339.949 232.199 340.005 232.372 340.118 232.502C340.239 232.623 340.413 232.727 340.638 232.814C340.872 232.901 341.154 232.996 341.483 233.1C341.994 233.247 342.436 233.395 342.809 233.542C343.19 233.689 343.485 233.88 343.693 234.114C343.901 234.348 344.005 234.673 344.005 235.089C344.005 235.73 343.762 236.233 343.277 236.597C342.792 236.952 342.15 237.13 341.353 237.13ZM348.844 237V227.77H352.692C353.099 227.77 353.472 227.857 353.81 228.03C354.148 228.195 354.442 228.42 354.694 228.706C354.945 228.983 355.14 229.3 355.279 229.655C355.417 230.002 355.487 230.357 355.487 230.721C355.487 231.224 355.374 231.705 355.149 232.164C354.923 232.615 354.607 232.983 354.2 233.269C353.792 233.546 353.316 233.685 352.77 233.685H350.014V237H348.844ZM350.014 232.645H352.705C353.025 232.645 353.303 232.558 353.537 232.385C353.779 232.212 353.966 231.978 354.096 231.683C354.234 231.388 354.304 231.068 354.304 230.721C354.304 230.357 354.226 230.032 354.07 229.746C353.914 229.451 353.71 229.222 353.459 229.057C353.207 228.892 352.93 228.81 352.627 228.81H350.014V232.645ZM356.787 227.51H357.931V235.245C357.931 235.618 357.983 235.847 358.087 235.934C358.191 236.021 358.317 236.064 358.464 236.064C358.646 236.064 358.82 236.047 358.984 236.012C359.149 235.969 359.288 235.925 359.4 235.882L359.582 236.818C359.392 236.896 359.166 236.961 358.906 237.013C358.646 237.065 358.417 237.091 358.217 237.091C357.775 237.091 357.424 236.965 357.164 236.714C356.913 236.463 356.787 236.112 356.787 235.661V227.51ZM359.948 235.037C359.948 234.604 360.069 234.231 360.312 233.919C360.563 233.598 360.906 233.351 361.339 233.178C361.772 233.005 362.275 232.918 362.847 232.918C363.15 232.918 363.471 232.944 363.809 232.996C364.147 233.039 364.446 233.109 364.706 233.204V232.71C364.706 232.19 364.55 231.783 364.238 231.488C363.926 231.185 363.484 231.033 362.912 231.033C362.539 231.033 362.18 231.102 361.833 231.241C361.495 231.371 361.135 231.562 360.754 231.813L360.338 231.007C360.78 230.704 361.222 230.478 361.664 230.331C362.106 230.175 362.565 230.097 363.042 230.097C363.909 230.097 364.593 230.34 365.096 230.825C365.599 231.302 365.85 231.969 365.85 232.827V235.7C365.85 235.839 365.876 235.943 365.928 236.012C365.989 236.073 366.084 236.107 366.214 236.116V237C366.101 237.017 366.002 237.03 365.915 237.039C365.837 237.048 365.772 237.052 365.72 237.052C365.451 237.052 365.248 236.978 365.109 236.831C364.979 236.684 364.905 236.528 364.888 236.363L364.862 235.934C364.567 236.315 364.182 236.61 363.705 236.818C363.228 237.026 362.756 237.13 362.288 237.13C361.837 237.13 361.434 237.039 361.079 236.857C360.724 236.666 360.446 236.415 360.247 236.103C360.048 235.782 359.948 235.427 359.948 235.037ZM364.368 235.518C364.472 235.397 364.554 235.275 364.615 235.154C364.676 235.024 364.706 234.916 364.706 234.829V233.984C364.437 233.88 364.156 233.802 363.861 233.75C363.566 233.689 363.276 233.659 362.99 233.659C362.409 233.659 361.937 233.776 361.573 234.01C361.218 234.235 361.04 234.547 361.04 234.946C361.04 235.163 361.096 235.375 361.209 235.583C361.33 235.782 361.504 235.947 361.729 236.077C361.963 236.207 362.249 236.272 362.587 236.272C362.942 236.272 363.28 236.203 363.601 236.064C363.922 235.917 364.177 235.735 364.368 235.518ZM373.568 237H372.424V233.204C372.424 232.485 372.312 231.96 372.086 231.631C371.87 231.293 371.536 231.124 371.085 231.124C370.773 231.124 370.461 231.202 370.149 231.358C369.846 231.514 369.573 231.726 369.33 231.995C369.096 232.255 368.927 232.558 368.823 232.905V237H367.679V230.214H368.719V231.67C368.901 231.349 369.135 231.072 369.421 230.838C369.707 230.604 370.032 230.422 370.396 230.292C370.76 230.162 371.142 230.097 371.54 230.097C371.93 230.097 372.255 230.171 372.515 230.318C372.784 230.457 372.992 230.656 373.139 230.916C373.295 231.167 373.404 231.466 373.464 231.813C373.534 232.16 373.568 232.537 373.568 232.944V237ZM378.794 236.662C378.699 236.705 378.569 236.762 378.404 236.831C378.239 236.9 378.049 236.961 377.832 237.013C377.615 237.065 377.386 237.091 377.143 237.091C376.866 237.091 376.61 237.043 376.376 236.948C376.142 236.844 375.956 236.688 375.817 236.48C375.678 236.263 375.609 235.995 375.609 235.674V231.111H374.686V230.214H375.609V227.952H376.753V230.214H378.274V231.111H376.753V235.323C376.77 235.566 376.853 235.748 377 235.869C377.147 235.982 377.321 236.038 377.52 236.038C377.745 236.038 377.953 235.999 378.144 235.921C378.335 235.843 378.46 235.787 378.521 235.752L378.794 236.662ZM382.768 237.13C382.257 237.13 381.789 237.039 381.364 236.857C380.948 236.666 380.584 236.411 380.272 236.09C379.969 235.761 379.731 235.384 379.557 234.959C379.393 234.534 379.31 234.084 379.31 233.607C379.31 232.966 379.458 232.381 379.752 231.852C380.047 231.323 380.454 230.899 380.974 230.578C381.503 230.257 382.105 230.097 382.781 230.097C383.466 230.097 384.06 230.262 384.562 230.591C385.074 230.912 385.468 231.336 385.745 231.865C386.031 232.385 386.174 232.948 386.174 233.555C386.174 233.642 386.17 233.728 386.161 233.815C386.161 233.893 386.157 233.954 386.148 233.997H380.519C380.554 234.439 380.675 234.833 380.883 235.18C381.1 235.518 381.377 235.787 381.715 235.986C382.053 236.177 382.417 236.272 382.807 236.272C383.223 236.272 383.613 236.168 383.977 235.96C384.35 235.752 384.606 235.479 384.744 235.141L385.732 235.414C385.585 235.743 385.364 236.038 385.069 236.298C384.783 236.558 384.441 236.762 384.042 236.909C383.652 237.056 383.228 237.13 382.768 237.13ZM380.48 233.204H385.108C385.074 232.762 384.948 232.372 384.731 232.034C384.515 231.696 384.237 231.432 383.899 231.241C383.561 231.05 383.189 230.955 382.781 230.955C382.383 230.955 382.014 231.05 381.676 231.241C381.338 231.432 381.061 231.696 380.844 232.034C380.636 232.372 380.515 232.762 380.48 233.204ZM389.773 237.13C389.21 237.13 388.681 237.039 388.187 236.857C387.693 236.666 387.268 236.385 386.913 236.012L387.355 235.206C387.745 235.57 388.135 235.83 388.525 235.986C388.915 236.142 389.314 236.22 389.721 236.22C390.189 236.22 390.57 236.133 390.865 235.96C391.16 235.778 391.307 235.514 391.307 235.167C391.307 234.916 391.229 234.729 391.073 234.608C390.926 234.487 390.713 234.387 390.436 234.309C390.159 234.222 389.829 234.127 389.448 234.023C388.98 233.884 388.586 233.737 388.265 233.581C387.944 233.425 387.702 233.23 387.537 232.996C387.372 232.762 387.29 232.467 387.29 232.112C387.29 231.679 387.403 231.315 387.628 231.02C387.853 230.717 388.161 230.487 388.551 230.331C388.95 230.175 389.4 230.097 389.903 230.097C390.406 230.097 390.861 230.175 391.268 230.331C391.675 230.487 392.026 230.717 392.321 231.02L391.801 231.813C391.532 231.536 391.238 231.332 390.917 231.202C390.596 231.063 390.237 230.994 389.838 230.994C389.604 230.994 389.374 231.024 389.149 231.085C388.924 231.137 388.737 231.237 388.59 231.384C388.443 231.523 388.369 231.722 388.369 231.982C388.369 232.199 388.425 232.372 388.538 232.502C388.659 232.623 388.833 232.727 389.058 232.814C389.292 232.901 389.574 232.996 389.903 233.1C390.414 233.247 390.856 233.395 391.229 233.542C391.61 233.689 391.905 233.88 392.113 234.114C392.321 234.348 392.425 234.673 392.425 235.089C392.425 235.73 392.182 236.233 391.697 236.597C391.212 236.952 390.57 237.13 389.773 237.13Z" fill="black"/>
<path d="M181.772 126V118.9H182.672V125.2H186.632V126H181.772ZM186.93 127.42C187.017 127.427 187.104 127.433 187.19 127.44C187.277 127.453 187.344 127.46 187.39 127.46C187.497 127.46 187.59 127.423 187.67 127.35C187.75 127.277 187.837 127.133 187.93 126.92C188.03 126.713 188.157 126.407 188.31 126L186.1 120.78H187.03L188.79 125.11L190.38 120.78H191.25L188.71 127.37C188.65 127.523 188.56 127.667 188.44 127.8C188.327 127.94 188.18 128.05 188 128.13C187.82 128.21 187.604 128.25 187.35 128.25C187.29 128.25 187.227 128.247 187.16 128.24C187.1 128.233 187.024 128.22 186.93 128.2V127.42ZM194.264 126.1C193.871 126.1 193.511 126.03 193.184 125.89C192.864 125.743 192.584 125.543 192.344 125.29C192.111 125.037 191.927 124.747 191.794 124.42C191.667 124.093 191.604 123.747 191.604 123.38C191.604 122.887 191.714 122.437 191.934 122.03C192.154 121.623 192.464 121.3 192.864 121.06C193.264 120.813 193.727 120.69 194.254 120.69C194.767 120.69 195.214 120.807 195.594 121.04C195.981 121.267 196.267 121.573 196.454 121.96L195.594 122.23C195.461 121.983 195.274 121.793 195.034 121.66C194.794 121.52 194.527 121.45 194.234 121.45C193.914 121.45 193.621 121.533 193.354 121.7C193.094 121.867 192.887 122.097 192.734 122.39C192.581 122.677 192.504 123.007 192.504 123.38C192.504 123.747 192.581 124.08 192.734 124.38C192.894 124.673 193.104 124.907 193.364 125.08C193.631 125.253 193.924 125.34 194.244 125.34C194.451 125.34 194.647 125.303 194.834 125.23C195.027 125.157 195.194 125.06 195.334 124.94C195.481 124.813 195.581 124.677 195.634 124.53L196.494 124.79C196.387 125.043 196.224 125.27 196.004 125.47C195.791 125.663 195.534 125.817 195.234 125.93C194.941 126.043 194.617 126.1 194.264 126.1ZM199.752 126.1C199.359 126.1 198.999 126.03 198.672 125.89C198.352 125.743 198.072 125.547 197.832 125.3C197.599 125.047 197.416 124.757 197.282 124.43C197.156 124.103 197.092 123.757 197.092 123.39C197.092 122.897 197.206 122.447 197.432 122.04C197.659 121.633 197.972 121.307 198.372 121.06C198.779 120.813 199.242 120.69 199.762 120.69C200.289 120.69 200.746 120.817 201.132 121.07C201.526 121.317 201.829 121.643 202.042 122.05C202.262 122.45 202.372 122.883 202.372 123.35C202.372 123.417 202.369 123.483 202.362 123.55C202.362 123.61 202.359 123.657 202.352 123.69H198.022C198.049 124.03 198.142 124.333 198.302 124.6C198.469 124.86 198.682 125.067 198.942 125.22C199.202 125.367 199.482 125.44 199.782 125.44C200.102 125.44 200.402 125.36 200.682 125.2C200.969 125.04 201.166 124.83 201.272 124.57L202.032 124.78C201.919 125.033 201.749 125.26 201.522 125.46C201.302 125.66 201.039 125.817 200.732 125.93C200.432 126.043 200.106 126.1 199.752 126.1ZM197.992 123.08H201.552C201.526 122.74 201.429 122.44 201.262 122.18C201.096 121.92 200.882 121.717 200.622 121.57C200.362 121.423 200.076 121.35 199.762 121.35C199.456 121.35 199.172 121.423 198.912 121.57C198.652 121.717 198.439 121.92 198.272 122.18C198.112 122.44 198.019 122.74 197.992 123.08ZM200.032 119.91L199.452 119.71L200.032 118.7H200.912L200.032 119.91ZM205.661 126.1C205.267 126.1 204.907 126.03 204.581 125.89C204.261 125.743 203.981 125.547 203.741 125.3C203.507 125.047 203.324 124.757 203.191 124.43C203.064 124.103 203.001 123.757 203.001 123.39C203.001 122.897 203.114 122.447 203.341 122.04C203.567 121.633 203.881 121.307 204.281 121.06C204.687 120.813 205.151 120.69 205.671 120.69C206.197 120.69 206.654 120.817 207.041 121.07C207.434 121.317 207.737 121.643 207.951 122.05C208.171 122.45 208.281 122.883 208.281 123.35C208.281 123.417 208.277 123.483 208.271 123.55C208.271 123.61 208.267 123.657 208.261 123.69H203.931C203.957 124.03 204.051 124.333 204.211 124.6C204.377 124.86 204.591 125.067 204.851 125.22C205.111 125.367 205.391 125.44 205.691 125.44C206.011 125.44 206.311 125.36 206.591 125.2C206.877 125.04 207.074 124.83 207.181 124.57L207.941 124.78C207.827 125.033 207.657 125.26 207.431 125.46C207.211 125.66 206.947 125.817 206.641 125.93C206.341 126.043 206.014 126.1 205.661 126.1ZM203.901 123.08H207.461C207.434 122.74 207.337 122.44 207.171 122.18C207.004 121.92 206.791 121.717 206.531 121.57C206.271 121.423 205.984 121.35 205.671 121.35C205.364 121.35 205.081 121.423 204.821 121.57C204.561 121.717 204.347 121.92 204.181 122.18C204.021 122.44 203.927 122.74 203.901 123.08ZM153.459 136.94C153.586 137.027 153.759 137.11 153.979 137.19C154.206 137.263 154.473 137.3 154.779 137.3C155.093 137.3 155.349 137.25 155.549 137.15C155.749 137.043 155.903 136.887 156.009 136.68C156.116 136.467 156.189 136.197 156.229 135.87C156.269 135.543 156.289 135.157 156.289 134.71V130.9H157.189V134.51C157.189 135.037 157.163 135.52 157.109 135.96C157.056 136.4 156.949 136.783 156.789 137.11C156.629 137.43 156.389 137.677 156.069 137.85C155.756 138.023 155.336 138.11 154.809 138.11C154.476 138.11 154.183 138.073 153.929 138C153.676 137.927 153.443 137.817 153.229 137.67L153.459 136.94ZM160.865 138.1C160.472 138.1 160.115 138.03 159.795 137.89C159.475 137.743 159.198 137.547 158.965 137.3C158.732 137.047 158.552 136.757 158.425 136.43C158.298 136.103 158.235 135.76 158.235 135.4C158.235 135.033 158.298 134.687 158.425 134.36C158.552 134.033 158.732 133.747 158.965 133.5C159.198 133.247 159.475 133.05 159.795 132.91C160.122 132.763 160.478 132.69 160.865 132.69C161.258 132.69 161.615 132.763 161.935 132.91C162.255 133.05 162.532 133.247 162.765 133.5C163.005 133.747 163.188 134.033 163.315 134.36C163.442 134.687 163.505 135.033 163.505 135.4C163.505 135.76 163.442 136.103 163.315 136.43C163.188 136.757 163.008 137.047 162.775 137.3C162.542 137.547 162.262 137.743 161.935 137.89C161.615 138.03 161.258 138.1 160.865 138.1ZM159.135 135.41C159.135 135.77 159.212 136.097 159.365 136.39C159.525 136.683 159.735 136.917 159.995 137.09C160.255 137.257 160.545 137.34 160.865 137.34C161.185 137.34 161.475 137.253 161.735 137.08C162.002 136.907 162.212 136.673 162.365 136.38C162.525 136.08 162.605 135.75 162.605 135.39C162.605 135.03 162.525 134.703 162.365 134.41C162.212 134.117 162.002 133.883 161.735 133.71C161.475 133.537 161.185 133.45 160.865 133.45C160.545 133.45 160.255 133.54 159.995 133.72C159.735 133.893 159.525 134.127 159.365 134.42C159.212 134.713 159.135 135.043 159.135 135.41ZM164.161 136.49C164.161 136.157 164.255 135.87 164.441 135.63C164.635 135.383 164.898 135.193 165.231 135.06C165.565 134.927 165.951 134.86 166.391 134.86C166.625 134.86 166.871 134.88 167.131 134.92C167.391 134.953 167.621 135.007 167.821 135.08V134.7C167.821 134.3 167.701 133.987 167.461 133.76C167.221 133.527 166.881 133.41 166.441 133.41C166.155 133.41 165.878 133.463 165.611 133.57C165.351 133.67 165.075 133.817 164.781 134.01L164.461 133.39C164.801 133.157 165.141 132.983 165.481 132.87C165.821 132.75 166.175 132.69 166.541 132.69C167.208 132.69 167.735 132.877 168.121 133.25C168.508 133.617 168.701 134.13 168.701 134.79V137C168.701 137.107 168.721 137.187 168.761 137.24C168.808 137.287 168.881 137.313 168.981 137.32V138C168.895 138.013 168.818 138.023 168.751 138.03C168.691 138.037 168.641 138.04 168.601 138.04C168.395 138.04 168.238 137.983 168.131 137.87C168.031 137.757 167.975 137.637 167.961 137.51L167.941 137.18C167.715 137.473 167.418 137.7 167.051 137.86C166.685 138.02 166.321 138.1 165.961 138.1C165.615 138.1 165.305 138.03 165.031 137.89C164.758 137.743 164.545 137.55 164.391 137.31C164.238 137.063 164.161 136.79 164.161 136.49ZM167.561 136.86C167.641 136.767 167.705 136.673 167.751 136.58C167.798 136.48 167.821 136.397 167.821 136.33V135.68C167.615 135.6 167.398 135.54 167.171 135.5C166.945 135.453 166.721 135.43 166.501 135.43C166.055 135.43 165.691 135.52 165.411 135.7C165.138 135.873 165.001 136.113 165.001 136.42C165.001 136.587 165.045 136.75 165.131 136.91C165.225 137.063 165.358 137.19 165.531 137.29C165.711 137.39 165.931 137.44 166.191 137.44C166.465 137.44 166.725 137.387 166.971 137.28C167.218 137.167 167.415 137.027 167.561 136.86ZM172.418 138.1C172.025 138.1 171.665 138.03 171.338 137.89C171.018 137.743 170.738 137.543 170.498 137.29C170.265 137.037 170.082 136.747 169.948 136.42C169.822 136.093 169.758 135.747 169.758 135.38C169.758 134.887 169.868 134.437 170.088 134.03C170.308 133.623 170.618 133.3 171.018 133.06C171.418 132.813 171.882 132.69 172.408 132.69C172.922 132.69 173.368 132.807 173.748 133.04C174.135 133.267 174.422 133.573 174.608 133.96L173.748 134.23C173.615 133.983 173.428 133.793 173.188 133.66C172.948 133.52 172.682 133.45 172.388 133.45C172.068 133.45 171.775 133.533 171.508 133.7C171.248 133.867 171.042 134.097 170.888 134.39C170.735 134.677 170.658 135.007 170.658 135.38C170.658 135.747 170.735 136.08 170.888 136.38C171.048 136.673 171.258 136.907 171.518 137.08C171.785 137.253 172.078 137.34 172.398 137.34C172.605 137.34 172.802 137.303 172.988 137.23C173.182 137.157 173.348 137.06 173.488 136.94C173.635 136.813 173.735 136.677 173.788 136.53L174.648 136.79C174.542 137.043 174.378 137.27 174.158 137.47C173.945 137.663 173.688 137.817 173.388 137.93C173.095 138.043 172.772 138.1 172.418 138.1ZM180.176 138H179.296V135.08C179.296 134.547 179.199 134.147 179.006 133.88C178.819 133.613 178.549 133.48 178.196 133.48C177.969 133.48 177.739 133.54 177.506 133.66C177.279 133.78 177.079 133.943 176.906 134.15C176.732 134.35 176.606 134.583 176.526 134.85V138H175.646V130.7H176.526V133.9C176.732 133.527 177.012 133.233 177.366 133.02C177.726 132.8 178.112 132.69 178.526 132.69C178.839 132.69 179.099 132.747 179.306 132.86C179.519 132.967 179.689 133.12 179.816 133.32C179.942 133.52 180.032 133.753 180.086 134.02C180.146 134.28 180.176 134.567 180.176 134.88V138ZM181.544 138V132.78H182.424V138H181.544ZM181.544 131.8V130.7H182.424V131.8H181.544ZM191.719 138H190.839V135.08C190.839 134.533 190.749 134.13 190.569 133.87C190.395 133.61 190.135 133.48 189.789 133.48C189.435 133.48 189.115 133.61 188.829 133.87C188.542 134.123 188.339 134.453 188.219 134.86V138H187.339V135.08C187.339 134.527 187.252 134.123 187.079 133.87C186.905 133.61 186.645 133.48 186.299 133.48C185.952 133.48 185.632 133.607 185.339 133.86C185.052 134.107 184.849 134.437 184.729 134.85V138H183.849V132.78H184.649V133.9C184.862 133.513 185.139 133.217 185.479 133.01C185.819 132.797 186.202 132.69 186.629 132.69C187.062 132.69 187.409 132.81 187.669 133.05C187.929 133.283 188.089 133.587 188.149 133.96C188.382 133.547 188.665 133.233 188.999 133.02C189.332 132.8 189.712 132.69 190.139 132.69C190.439 132.69 190.689 132.747 190.889 132.86C191.095 132.967 191.259 133.12 191.379 133.32C191.499 133.513 191.585 133.743 191.639 134.01C191.692 134.277 191.719 134.567 191.719 134.88V138ZM195.276 135.4C195.276 134.907 195.376 134.457 195.576 134.05C195.783 133.637 196.063 133.307 196.416 133.06C196.776 132.813 197.186 132.69 197.646 132.69C198.066 132.69 198.443 132.8 198.776 133.02C199.11 133.24 199.37 133.507 199.556 133.82V130.7H200.436V137C200.436 137.107 200.456 137.187 200.496 137.24C200.543 137.287 200.616 137.313 200.716 137.32V138C200.55 138.027 200.42 138.04 200.326 138.04C200.153 138.04 200 137.98 199.866 137.86C199.74 137.74 199.676 137.607 199.676 137.46V137.02C199.47 137.353 199.193 137.617 198.846 137.81C198.5 138.003 198.14 138.1 197.766 138.1C197.406 138.1 197.073 138.03 196.766 137.89C196.466 137.743 196.203 137.543 195.976 137.29C195.756 137.037 195.583 136.75 195.456 136.43C195.336 136.103 195.276 135.76 195.276 135.4ZM199.556 136.17V134.67C199.476 134.443 199.346 134.24 199.166 134.06C198.986 133.873 198.783 133.727 198.556 133.62C198.336 133.507 198.116 133.45 197.896 133.45C197.636 133.45 197.4 133.507 197.186 133.62C196.98 133.727 196.8 133.873 196.646 134.06C196.5 134.24 196.386 134.447 196.306 134.68C196.226 134.913 196.186 135.157 196.186 135.41C196.186 135.67 196.23 135.917 196.316 136.15C196.41 136.383 196.536 136.59 196.696 136.77C196.863 136.95 197.053 137.09 197.266 137.19C197.486 137.29 197.723 137.34 197.976 137.34C198.136 137.34 198.3 137.31 198.466 137.25C198.64 137.19 198.803 137.107 198.956 137C199.11 136.893 199.24 136.77 199.346 136.63C199.453 136.483 199.523 136.33 199.556 136.17ZM201.855 135.91V132.78H202.735V135.74C202.735 136.273 202.829 136.673 203.015 136.94C203.202 137.207 203.479 137.34 203.845 137.34C204.085 137.34 204.315 137.29 204.535 137.19C204.762 137.083 204.965 136.933 205.145 136.74C205.325 136.547 205.465 136.317 205.565 136.05V132.78H206.445V137C206.445 137.107 206.465 137.187 206.505 137.24C206.552 137.287 206.625 137.313 206.725 137.32V138C206.625 138.013 206.545 138.02 206.485 138.02C206.432 138.027 206.379 138.03 206.325 138.03C206.159 138.03 206.015 137.98 205.895 137.88C205.775 137.773 205.712 137.643 205.705 137.49L205.685 136.88C205.459 137.267 205.152 137.567 204.765 137.78C204.385 137.993 203.969 138.1 203.515 138.1C202.969 138.1 202.555 137.917 202.275 137.55C201.995 137.177 201.855 136.63 201.855 135.91ZM216.03 136.17C216.03 136.537 215.937 136.857 215.75 137.13C215.564 137.403 215.31 137.617 214.99 137.77C214.677 137.923 214.33 138 213.95 138H210.58V130.9H214.11C214.444 130.9 214.73 130.99 214.97 131.17C215.217 131.343 215.404 131.57 215.53 131.85C215.664 132.123 215.73 132.41 215.73 132.71C215.73 133.057 215.64 133.383 215.46 133.69C215.287 133.99 215.037 134.213 214.71 134.36C215.117 134.48 215.437 134.703 215.67 135.03C215.91 135.35 216.03 135.73 216.03 136.17ZM215.12 136.01C215.12 135.79 215.07 135.587 214.97 135.4C214.877 135.213 214.747 135.063 214.58 134.95C214.42 134.837 214.234 134.78 214.02 134.78H211.48V137.22H213.95C214.17 137.22 214.367 137.163 214.54 137.05C214.72 136.937 214.86 136.79 214.96 136.61C215.067 136.423 215.12 136.223 215.12 136.01ZM211.48 131.68V134.05H213.74C213.954 134.05 214.14 133.997 214.3 133.89C214.467 133.783 214.597 133.64 214.69 133.46C214.79 133.28 214.84 133.083 214.84 132.87C214.84 132.643 214.794 132.443 214.7 132.27C214.614 132.09 214.49 131.947 214.33 131.84C214.177 131.733 214 131.68 213.8 131.68H211.48ZM219.459 138.1C219.066 138.1 218.706 138.03 218.379 137.89C218.059 137.743 217.779 137.547 217.539 137.3C217.306 137.047 217.123 136.757 216.989 136.43C216.863 136.103 216.799 135.757 216.799 135.39C216.799 134.897 216.913 134.447 217.139 134.04C217.366 133.633 217.679 133.307 218.079 133.06C218.486 132.813 218.949 132.69 219.469 132.69C219.996 132.69 220.453 132.817 220.839 133.07C221.233 133.317 221.536 133.643 221.749 134.05C221.969 134.45 222.079 134.883 222.079 135.35C222.079 135.417 222.076 135.483 222.069 135.55C222.069 135.61 222.066 135.657 222.059 135.69H217.729C217.756 136.03 217.849 136.333 218.009 136.6C218.176 136.86 218.389 137.067 218.649 137.22C218.909 137.367 219.189 137.44 219.489 137.44C219.809 137.44 220.109 137.36 220.389 137.2C220.676 137.04 220.873 136.83 220.979 136.57L221.739 136.78C221.626 137.033 221.456 137.26 221.229 137.46C221.009 137.66 220.746 137.817 220.439 137.93C220.139 138.043 219.813 138.1 219.459 138.1ZM217.699 135.08H221.259C221.233 134.74 221.136 134.44 220.969 134.18C220.803 133.92 220.589 133.717 220.329 133.57C220.069 133.423 219.783 133.35 219.469 133.35C219.163 133.35 218.879 133.423 218.619 133.57C218.359 133.717 218.146 133.92 217.979 134.18C217.819 134.44 217.726 134.74 217.699 135.08ZM223.078 130.7H223.958V136.65C223.958 136.937 223.998 137.113 224.078 137.18C224.158 137.247 224.254 137.28 224.368 137.28C224.508 137.28 224.641 137.267 224.768 137.24C224.894 137.207 225.001 137.173 225.088 137.14L225.228 137.86C225.081 137.92 224.908 137.97 224.708 138.01C224.508 138.05 224.331 138.07 224.178 138.07C223.838 138.07 223.568 137.973 223.368 137.78C223.174 137.587 223.078 137.317 223.078 136.97V130.7ZM225.939 130.7H226.819V136.65C226.819 136.937 226.859 137.113 226.939 137.18C227.019 137.247 227.116 137.28 227.229 137.28C227.369 137.28 227.502 137.267 227.629 137.24C227.756 137.207 227.862 137.173 227.949 137.14L228.089 137.86C227.942 137.92 227.769 137.97 227.569 138.01C227.369 138.05 227.192 138.07 227.039 138.07C226.699 138.07 226.429 137.973 226.229 137.78C226.036 137.587 225.939 137.317 225.939 136.97V130.7ZM228.37 136.49C228.37 136.157 228.464 135.87 228.65 135.63C228.844 135.383 229.107 135.193 229.44 135.06C229.774 134.927 230.16 134.86 230.6 134.86C230.834 134.86 231.08 134.88 231.34 134.92C231.6 134.953 231.83 135.007 232.03 135.08V134.7C232.03 134.3 231.91 133.987 231.67 133.76C231.43 133.527 231.09 133.41 230.65 133.41C230.364 133.41 230.087 133.463 229.82 133.57C229.56 133.67 229.284 133.817 228.99 134.01L228.67 133.39C229.01 133.157 229.35 132.983 229.69 132.87C230.03 132.75 230.384 132.69 230.75 132.69C231.417 132.69 231.944 132.877 232.33 133.25C232.717 133.617 232.91 134.13 232.91 134.79V137C232.91 137.107 232.93 137.187 232.97 137.24C233.017 137.287 233.09 137.313 233.19 137.32V138C233.104 138.013 233.027 138.023 232.96 138.03C232.9 138.037 232.85 138.04 232.81 138.04C232.604 138.04 232.447 137.983 232.34 137.87C232.24 137.757 232.184 137.637 232.17 137.51L232.15 137.18C231.924 137.473 231.627 137.7 231.26 137.86C230.894 138.02 230.53 138.1 230.17 138.1C229.824 138.1 229.514 138.03 229.24 137.89C228.967 137.743 228.754 137.55 228.6 137.31C228.447 137.063 228.37 136.79 228.37 136.49ZM231.77 136.86C231.85 136.767 231.914 136.673 231.96 136.58C232.007 136.48 232.03 136.397 232.03 136.33V135.68C231.824 135.6 231.607 135.54 231.38 135.5C231.154 135.453 230.93 135.43 230.71 135.43C230.264 135.43 229.9 135.52 229.62 135.7C229.347 135.873 229.21 136.113 229.21 136.42C229.21 136.587 229.254 136.75 229.34 136.91C229.434 137.063 229.567 137.19 229.74 137.29C229.92 137.39 230.14 137.44 230.4 137.44C230.674 137.44 230.934 137.387 231.18 137.28C231.427 137.167 231.624 137.027 231.77 136.86ZM234.391 139.42C234.478 139.427 234.565 139.433 234.651 139.44C234.738 139.453 234.805 139.46 234.851 139.46C234.958 139.46 235.051 139.423 235.131 139.35C235.211 139.277 235.298 139.133 235.391 138.92C235.491 138.713 235.618 138.407 235.771 138L233.561 132.78H234.491L236.251 137.11L237.841 132.78H238.711L236.171 139.37C236.111 139.523 236.021 139.667 235.901 139.8C235.788 139.94 235.641 140.05 235.461 140.13C235.281 140.21 235.065 140.25 234.811 140.25C234.751 140.25 234.688 140.247 234.621 140.24C234.561 140.233 234.485 140.22 234.391 140.2V139.42Z" fill="black"/>
<rect x="10" y="17" width="755" height="731" stroke="#7FBD8F" stroke-width="20"/>
<rect x="10" y="17" width="755" height="731" stroke="#7FBD8F" stroke-width="20"/>
<path d="M371.266 612V604.9H374.226C374.539 604.9 374.826 604.967 375.086 605.1C375.346 605.227 375.573 605.4 375.766 605.62C375.959 605.833 376.109 606.077 376.216 606.35C376.323 606.617 376.376 606.89 376.376 607.17C376.376 607.557 376.289 607.927 376.116 608.28C375.943 608.627 375.699 608.91 375.386 609.13C375.073 609.343 374.706 609.45 374.286 609.45H372.166V612H371.266ZM372.166 608.65H374.236C374.483 608.65 374.696 608.583 374.876 608.45C375.063 608.317 375.206 608.137 375.306 607.91C375.413 607.683 375.466 607.437 375.466 607.17C375.466 606.89 375.406 606.64 375.286 606.42C375.166 606.193 375.009 606.017 374.816 605.89C374.623 605.763 374.409 605.7 374.176 605.7H372.166V608.65ZM376.888 610.49C376.888 610.157 376.981 609.87 377.168 609.63C377.361 609.383 377.625 609.193 377.958 609.06C378.291 608.927 378.678 608.86 379.118 608.86C379.351 608.86 379.598 608.88 379.858 608.92C380.118 608.953 380.348 609.007 380.548 609.08V608.7C380.548 608.3 380.428 607.987 380.188 607.76C379.948 607.527 379.608 607.41 379.168 607.41C378.881 607.41 378.605 607.463 378.338 607.57C378.078 607.67 377.801 607.817 377.508 608.01L377.188 607.39C377.528 607.157 377.868 606.983 378.208 606.87C378.548 606.75 378.901 606.69 379.268 606.69C379.935 606.69 380.461 606.877 380.848 607.25C381.235 607.617 381.428 608.13 381.428 608.79V611C381.428 611.107 381.448 611.187 381.488 611.24C381.535 611.287 381.608 611.313 381.708 611.32V612C381.621 612.013 381.545 612.023 381.478 612.03C381.418 612.037 381.368 612.04 381.328 612.04C381.121 612.04 380.965 611.983 380.858 611.87C380.758 611.757 380.701 611.637 380.688 611.51L380.668 611.18C380.441 611.473 380.145 611.7 379.778 611.86C379.411 612.02 379.048 612.1 378.688 612.1C378.341 612.1 378.031 612.03 377.758 611.89C377.485 611.743 377.271 611.55 377.118 611.31C376.965 611.063 376.888 610.79 376.888 610.49ZM380.288 610.86C380.368 610.767 380.431 610.673 380.478 610.58C380.525 610.48 380.548 610.397 380.548 610.33V609.68C380.341 609.6 380.125 609.54 379.898 609.5C379.671 609.453 379.448 609.43 379.228 609.43C378.781 609.43 378.418 609.52 378.138 609.7C377.865 609.873 377.728 610.113 377.728 610.42C377.728 610.587 377.771 610.75 377.858 610.91C377.951 611.063 378.085 611.19 378.258 611.29C378.438 611.39 378.658 611.44 378.918 611.44C379.191 611.44 379.451 611.387 379.698 611.28C379.945 611.167 380.141 611.027 380.288 610.86ZM382.855 604.7H383.735V610.65C383.735 610.937 383.775 611.113 383.855 611.18C383.935 611.247 384.032 611.28 384.145 611.28C384.285 611.28 384.418 611.267 384.545 611.24C384.672 611.207 384.778 611.173 384.865 611.14L385.005 611.86C384.858 611.92 384.685 611.97 384.485 612.01C384.285 612.05 384.108 612.07 383.955 612.07C383.615 612.07 383.345 611.973 383.145 611.78C382.952 611.587 382.855 611.317 382.855 610.97V604.7ZM385.286 610.49C385.286 610.157 385.38 609.87 385.566 609.63C385.76 609.383 386.023 609.193 386.356 609.06C386.69 608.927 387.076 608.86 387.516 608.86C387.75 608.86 387.996 608.88 388.256 608.92C388.516 608.953 388.746 609.007 388.946 609.08V608.7C388.946 608.3 388.826 607.987 388.586 607.76C388.346 607.527 388.006 607.41 387.566 607.41C387.28 607.41 387.003 607.463 386.736 607.57C386.476 607.67 386.2 607.817 385.906 608.01L385.586 607.39C385.926 607.157 386.266 606.983 386.606 606.87C386.946 606.75 387.3 606.69 387.666 606.69C388.333 606.69 388.86 606.877 389.246 607.25C389.633 607.617 389.826 608.13 389.826 608.79V611C389.826 611.107 389.846 611.187 389.886 611.24C389.933 611.287 390.006 611.313 390.106 611.32V612C390.02 612.013 389.943 612.023 389.876 612.03C389.816 612.037 389.766 612.04 389.726 612.04C389.52 612.04 389.363 611.983 389.256 611.87C389.156 611.757 389.1 611.637 389.086 611.51L389.066 611.18C388.84 611.473 388.543 611.7 388.176 611.86C387.81 612.02 387.446 612.1 387.086 612.1C386.74 612.1 386.43 612.03 386.156 611.89C385.883 611.743 385.67 611.55 385.516 611.31C385.363 611.063 385.286 610.79 385.286 610.49ZM388.686 610.86C388.766 610.767 388.83 610.673 388.876 610.58C388.923 610.48 388.946 610.397 388.946 610.33V609.68C388.74 609.6 388.523 609.54 388.296 609.5C388.07 609.453 387.846 609.43 387.626 609.43C387.18 609.43 386.816 609.52 386.536 609.7C386.263 609.873 386.126 610.113 386.126 610.42C386.126 610.587 386.17 610.75 386.256 610.91C386.35 611.063 386.483 611.19 386.656 611.29C386.836 611.39 387.056 611.44 387.316 611.44C387.59 611.44 387.85 611.387 388.096 611.28C388.343 611.167 388.54 611.027 388.686 610.86ZM391.233 612V606.78H392.113V612H391.233ZM391.233 605.8V604.7H392.113V605.8H391.233ZM395.328 612.1C394.895 612.1 394.488 612.03 394.108 611.89C393.728 611.743 393.401 611.527 393.128 611.24L393.468 610.62C393.768 610.9 394.068 611.1 394.368 611.22C394.668 611.34 394.975 611.4 395.288 611.4C395.648 611.4 395.941 611.333 396.168 611.2C396.395 611.06 396.508 610.857 396.508 610.59C396.508 610.397 396.448 610.253 396.328 610.16C396.215 610.067 396.051 609.99 395.838 609.93C395.625 609.863 395.371 609.79 395.078 609.71C394.718 609.603 394.415 609.49 394.168 609.37C393.921 609.25 393.735 609.1 393.608 608.92C393.481 608.74 393.418 608.513 393.418 608.24C393.418 607.907 393.505 607.627 393.678 607.4C393.851 607.167 394.088 606.99 394.388 606.87C394.695 606.75 395.041 606.69 395.428 606.69C395.815 606.69 396.165 606.75 396.478 606.87C396.791 606.99 397.061 607.167 397.288 607.4L396.888 608.01C396.681 607.797 396.455 607.64 396.208 607.54C395.961 607.433 395.685 607.38 395.378 607.38C395.198 607.38 395.021 607.403 394.848 607.45C394.675 607.49 394.531 607.567 394.418 607.68C394.305 607.787 394.248 607.94 394.248 608.14C394.248 608.307 394.291 608.44 394.378 608.54C394.471 608.633 394.605 608.713 394.778 608.78C394.958 608.847 395.175 608.92 395.428 609C395.821 609.113 396.161 609.227 396.448 609.34C396.741 609.453 396.968 609.6 397.128 609.78C397.288 609.96 397.368 610.21 397.368 610.53C397.368 611.023 397.181 611.41 396.808 611.69C396.435 611.963 395.941 612.1 395.328 612.1ZM400.61 609.4C400.61 608.907 400.71 608.457 400.91 608.05C401.117 607.637 401.397 607.307 401.75 607.06C402.11 606.813 402.52 606.69 402.98 606.69C403.4 606.69 403.777 606.8 404.11 607.02C404.444 607.24 404.704 607.507 404.89 607.82V604.7H405.77V611C405.77 611.107 405.79 611.187 405.83 611.24C405.877 611.287 405.95 611.313 406.05 611.32V612C405.884 612.027 405.754 612.04 405.66 612.04C405.487 612.04 405.334 611.98 405.2 611.86C405.074 611.74 405.01 611.607 405.01 611.46V611.02C404.804 611.353 404.527 611.617 404.18 611.81C403.834 612.003 403.474 612.1 403.1 612.1C402.74 612.1 402.407 612.03 402.1 611.89C401.8 611.743 401.537 611.543 401.31 611.29C401.09 611.037 400.917 610.75 400.79 610.43C400.67 610.103 400.61 609.76 400.61 609.4ZM404.89 610.17V608.67C404.81 608.443 404.68 608.24 404.5 608.06C404.32 607.873 404.117 607.727 403.89 607.62C403.67 607.507 403.45 607.45 403.23 607.45C402.97 607.45 402.734 607.507 402.52 607.62C402.314 607.727 402.134 607.873 401.98 608.06C401.834 608.24 401.72 608.447 401.64 608.68C401.56 608.913 401.52 609.157 401.52 609.41C401.52 609.67 401.564 609.917 401.65 610.15C401.744 610.383 401.87 610.59 402.03 610.77C402.197 610.95 402.387 611.09 402.6 611.19C402.82 611.29 403.057 611.34 403.31 611.34C403.47 611.34 403.634 611.31 403.8 611.25C403.974 611.19 404.137 611.107 404.29 611C404.444 610.893 404.574 610.77 404.68 610.63C404.787 610.483 404.857 610.33 404.89 610.17ZM409.549 612.1C409.156 612.1 408.796 612.03 408.469 611.89C408.149 611.743 407.869 611.547 407.629 611.3C407.396 611.047 407.213 610.757 407.079 610.43C406.953 610.103 406.889 609.757 406.889 609.39C406.889 608.897 407.003 608.447 407.229 608.04C407.456 607.633 407.769 607.307 408.169 607.06C408.576 606.813 409.039 606.69 409.559 606.69C410.086 606.69 410.543 606.817 410.929 607.07C411.323 607.317 411.626 607.643 411.839 608.05C412.059 608.45 412.169 608.883 412.169 609.35C412.169 609.417 412.166 609.483 412.159 609.55C412.159 609.61 412.156 609.657 412.149 609.69H407.819C407.846 610.03 407.939 610.333 408.099 610.6C408.266 610.86 408.479 611.067 408.739 611.22C408.999 611.367 409.279 611.44 409.579 611.44C409.899 611.44 410.199 611.36 410.479 611.2C410.766 611.04 410.963 610.83 411.069 610.57L411.829 610.78C411.716 611.033 411.546 611.26 411.319 611.46C411.099 611.66 410.836 611.817 410.529 611.93C410.229 612.043 409.903 612.1 409.549 612.1ZM407.789 609.08H411.349C411.323 608.74 411.226 608.44 411.059 608.18C410.893 607.92 410.679 607.717 410.419 607.57C410.159 607.423 409.873 607.35 409.559 607.35C409.253 607.35 408.969 607.423 408.709 607.57C408.449 607.717 408.236 607.92 408.069 608.18C407.909 608.44 407.816 608.74 407.789 609.08ZM415.043 610.94C415.17 611.027 415.343 611.11 415.563 611.19C415.79 611.263 416.057 611.3 416.363 611.3C416.677 611.3 416.933 611.25 417.133 611.15C417.333 611.043 417.487 610.887 417.593 610.68C417.7 610.467 417.773 610.197 417.813 609.87C417.853 609.543 417.873 609.157 417.873 608.71V604.9H418.773V608.51C418.773 609.037 418.747 609.52 418.693 609.96C418.64 610.4 418.533 610.783 418.373 611.11C418.213 611.43 417.973 611.677 417.653 611.85C417.34 612.023 416.92 612.11 416.393 612.11C416.06 612.11 415.767 612.073 415.513 612C415.26 611.927 415.027 611.817 414.813 611.67L415.043 610.94ZM420.139 609.91V606.78H421.019V609.74C421.019 610.273 421.112 610.673 421.299 610.94C421.485 611.207 421.762 611.34 422.129 611.34C422.369 611.34 422.599 611.29 422.819 611.19C423.045 611.083 423.249 610.933 423.429 610.74C423.609 610.547 423.749 610.317 423.849 610.05V606.78H424.729V611C424.729 611.107 424.749 611.187 424.789 611.24C424.835 611.287 424.909 611.313 425.009 611.32V612C424.909 612.013 424.829 612.02 424.769 612.02C424.715 612.027 424.662 612.03 424.609 612.03C424.442 612.03 424.299 611.98 424.179 611.88C424.059 611.773 423.995 611.643 423.989 611.49L423.969 610.88C423.742 611.267 423.435 611.567 423.049 611.78C422.669 611.993 422.252 612.1 421.799 612.1C421.252 612.1 420.839 611.917 420.559 611.55C420.279 611.177 420.139 610.63 420.139 609.91ZM427.984 612.1C427.551 612.1 427.144 612.03 426.764 611.89C426.384 611.743 426.058 611.527 425.784 611.24L426.124 610.62C426.424 610.9 426.724 611.1 427.024 611.22C427.324 611.34 427.631 611.4 427.944 611.4C428.304 611.4 428.598 611.333 428.824 611.2C429.051 611.06 429.164 610.857 429.164 610.59C429.164 610.397 429.104 610.253 428.984 610.16C428.871 610.067 428.708 609.99 428.494 609.93C428.281 609.863 428.028 609.79 427.734 609.71C427.374 609.603 427.071 609.49 426.824 609.37C426.578 609.25 426.391 609.1 426.264 608.92C426.138 608.74 426.074 608.513 426.074 608.24C426.074 607.907 426.161 607.627 426.334 607.4C426.508 607.167 426.744 606.99 427.044 606.87C427.351 606.75 427.698 606.69 428.084 606.69C428.471 606.69 428.821 606.75 429.134 606.87C429.448 606.99 429.718 607.167 429.944 607.4L429.544 608.01C429.338 607.797 429.111 607.64 428.864 607.54C428.618 607.433 428.341 607.38 428.034 607.38C427.854 607.38 427.678 607.403 427.504 607.45C427.331 607.49 427.188 607.567 427.074 607.68C426.961 607.787 426.904 607.94 426.904 608.14C426.904 608.307 426.948 608.44 427.034 608.54C427.128 608.633 427.261 608.713 427.434 608.78C427.614 608.847 427.831 608.92 428.084 609C428.478 609.113 428.818 609.227 429.104 609.34C429.398 609.453 429.624 609.6 429.784 609.78C429.944 609.96 430.024 610.21 430.024 610.53C430.024 611.023 429.838 611.41 429.464 611.69C429.091 611.963 428.598 612.1 427.984 612.1ZM433.777 611.74C433.704 611.773 433.604 611.817 433.477 611.87C433.351 611.923 433.204 611.97 433.037 612.01C432.871 612.05 432.694 612.07 432.507 612.07C432.294 612.07 432.097 612.033 431.917 611.96C431.737 611.88 431.594 611.76 431.487 611.6C431.381 611.433 431.327 611.227 431.327 610.98V607.47H430.617V606.78H431.327V605.04H432.207V606.78H433.377V607.47H432.207V610.71C432.221 610.897 432.284 611.037 432.397 611.13C432.511 611.217 432.644 611.26 432.797 611.26C432.971 611.26 433.131 611.23 433.277 611.17C433.424 611.11 433.521 611.067 433.567 611.04L433.777 611.74ZM434.593 612V606.78H435.473V612H434.593ZM434.593 605.8V604.7H435.473V605.8H434.593ZM439.208 612.1C438.814 612.1 438.454 612.03 438.128 611.89C437.808 611.743 437.528 611.543 437.288 611.29C437.054 611.037 436.871 610.747 436.738 610.42C436.611 610.093 436.548 609.747 436.548 609.38C436.548 608.887 436.658 608.437 436.878 608.03C437.098 607.623 437.408 607.3 437.808 607.06C438.208 606.813 438.671 606.69 439.198 606.69C439.711 606.69 440.158 606.807 440.538 607.04C440.924 607.267 441.211 607.573 441.398 607.96L440.538 608.23C440.404 607.983 440.218 607.793 439.978 607.66C439.738 607.52 439.471 607.45 439.178 607.45C438.858 607.45 438.564 607.533 438.298 607.7C438.038 607.867 437.831 608.097 437.678 608.39C437.524 608.677 437.448 609.007 437.448 609.38C437.448 609.747 437.524 610.08 437.678 610.38C437.838 610.673 438.048 610.907 438.308 611.08C438.574 611.253 438.868 611.34 439.188 611.34C439.394 611.34 439.591 611.303 439.778 611.23C439.971 611.157 440.138 611.06 440.278 610.94C440.424 610.813 440.524 610.677 440.578 610.53L441.438 610.79C441.331 611.043 441.168 611.27 440.948 611.47C440.734 611.663 440.478 611.817 440.178 611.93C439.884 612.043 439.561 612.1 439.208 612.1ZM444.696 612.1C444.302 612.1 443.942 612.03 443.616 611.89C443.296 611.743 443.016 611.547 442.776 611.3C442.542 611.047 442.359 610.757 442.226 610.43C442.099 610.103 442.036 609.757 442.036 609.39C442.036 608.897 442.149 608.447 442.376 608.04C442.602 607.633 442.916 607.307 443.316 607.06C443.722 606.813 444.186 606.69 444.706 606.69C445.232 606.69 445.689 606.817 446.076 607.07C446.469 607.317 446.772 607.643 446.986 608.05C447.206 608.45 447.316 608.883 447.316 609.35C447.316 609.417 447.312 609.483 447.306 609.55C447.306 609.61 447.302 609.657 447.296 609.69H442.966C442.992 610.03 443.086 610.333 443.246 610.6C443.412 610.86 443.626 611.067 443.886 611.22C444.146 611.367 444.426 611.44 444.726 611.44C445.046 611.44 445.346 611.36 445.626 611.2C445.912 611.04 446.109 610.83 446.216 610.57L446.976 610.78C446.862 611.033 446.692 611.26 446.466 611.46C446.246 611.66 445.982 611.817 445.676 611.93C445.376 612.043 445.049 612.1 444.696 612.1ZM442.936 609.08H446.496C446.469 608.74 446.372 608.44 446.206 608.18C446.039 607.92 445.826 607.717 445.566 607.57C445.306 607.423 445.019 607.35 444.706 607.35C444.399 607.35 444.116 607.423 443.856 607.57C443.596 607.717 443.382 607.92 443.216 608.18C443.056 608.44 442.962 608.74 442.936 609.08Z" fill="black"/>
<path d="M169.629 248.207C169.386 248.574 169.081 248.833 168.714 248.983C168.346 249.133 167.951 249.179 167.529 249.121C167.114 249.067 166.716 248.915 166.336 248.663L162.962 246.434L167.659 239.325L171.193 241.661C171.527 241.881 171.754 242.161 171.875 242.5C172.008 242.837 172.045 243.187 171.986 243.551C171.939 243.913 171.816 244.244 171.618 244.544C171.388 244.892 171.082 245.159 170.699 245.347C170.327 245.533 169.929 245.591 169.505 245.522C169.833 245.911 170.005 246.346 170.023 246.827C170.051 247.307 169.92 247.766 169.629 248.207ZM168.824 247.445C168.969 247.225 169.054 246.988 169.077 246.735C169.107 246.486 169.076 246.25 168.984 246.026C168.899 245.807 168.75 245.627 168.536 245.486L165.993 243.805L164.379 246.248L166.852 247.882C167.072 248.028 167.307 248.101 167.555 248.102C167.81 248.108 168.047 248.054 168.267 247.94C168.497 247.823 168.683 247.658 168.824 247.445ZM168.044 240.702L166.476 243.074L168.739 244.57C168.952 244.711 169.175 244.781 169.405 244.78C169.643 244.783 169.868 244.726 170.08 244.607C170.299 244.493 170.48 244.329 170.621 244.116C170.771 243.889 170.856 243.658 170.877 243.423C170.91 243.185 170.881 242.96 170.791 242.747C170.709 242.539 170.567 242.369 170.367 242.236L168.044 240.702ZM171.755 252.388C171.361 252.128 171.051 251.822 170.823 251.47C170.6 251.111 170.453 250.731 170.382 250.33C170.316 249.922 170.328 249.513 170.417 249.102C170.506 248.691 170.67 248.305 170.908 247.945C171.151 247.578 171.444 247.273 171.787 247.029C172.129 246.786 172.499 246.618 172.896 246.525C173.297 246.426 173.704 246.412 174.117 246.484C174.541 246.553 174.947 246.716 175.334 246.971C175.728 247.232 176.037 247.541 176.26 247.9C176.488 248.251 176.635 248.631 176.701 249.039C176.778 249.445 176.772 249.853 176.682 250.264C176.593 250.675 176.427 251.064 176.184 251.431C175.946 251.792 175.656 252.093 175.313 252.337C174.97 252.58 174.598 252.751 174.197 252.85C173.8 252.943 173.389 252.955 172.965 252.885C172.552 252.814 172.149 252.648 171.755 252.388ZM171.803 248.55C171.565 248.911 171.425 249.288 171.385 249.684C171.351 250.083 171.407 250.456 171.552 250.801C171.702 251.14 171.938 251.415 172.258 251.627C172.578 251.839 172.926 251.944 173.301 251.942C173.683 251.945 174.047 251.85 174.395 251.658C174.753 251.464 175.052 251.186 175.29 250.826C175.528 250.465 175.664 250.085 175.698 249.686C175.739 249.291 175.683 248.918 175.53 248.568C175.385 248.223 175.152 247.944 174.831 247.732C174.511 247.521 174.161 247.419 173.782 247.427C173.407 247.429 173.042 247.523 172.688 247.711C172.34 247.903 172.045 248.183 171.803 248.55ZM176.865 252.614L178.935 249.48L179.816 250.063L177.858 253.026C177.505 253.56 177.334 254.022 177.345 254.413C177.355 254.803 177.544 255.12 177.911 255.362C178.151 255.521 178.415 255.623 178.701 255.669C178.999 255.712 179.301 255.696 179.609 255.622C179.918 255.547 180.21 255.409 180.486 255.209L182.65 251.935L183.531 252.517L180.739 256.742C180.668 256.849 180.636 256.942 180.64 257.022C180.656 257.099 180.712 257.175 180.808 257.247L180.358 257.928C180.249 257.875 180.164 257.829 180.104 257.79C180.046 257.761 179.991 257.729 179.937 257.694C179.771 257.583 179.66 257.439 179.606 257.259C179.557 257.073 179.579 256.901 179.674 256.743L180.057 256.119C179.575 256.356 179.069 256.454 178.541 256.411C178.019 256.374 177.532 256.205 177.078 255.905C176.531 255.543 176.238 255.086 176.2 254.534C176.167 253.975 176.388 253.335 176.865 252.614ZM186.394 251.417L187.275 252L183.339 257.957C183.15 258.244 183.073 258.447 183.109 258.567C183.145 258.686 183.219 258.784 183.333 258.859C183.473 258.951 183.615 259.026 183.76 259.083C183.909 259.134 184.038 259.171 184.146 259.195L183.81 260.008C183.624 259.971 183.417 259.907 183.19 259.814C182.964 259.722 182.774 259.625 182.62 259.524C182.28 259.299 182.073 259.023 182.001 258.698C181.935 258.376 182.017 258.042 182.246 257.695L186.394 251.417ZM186.656 262.234C186.262 261.974 185.948 261.665 185.714 261.309C185.491 260.951 185.34 260.569 185.263 260.163C185.197 259.755 185.206 259.343 185.288 258.928C185.377 258.517 185.543 258.128 185.786 257.761C186.112 257.267 186.523 256.892 187.019 256.634C187.515 256.377 188.045 256.257 188.609 256.275C189.179 256.297 189.725 256.48 190.245 256.824C190.773 257.173 191.146 257.601 191.365 258.111C191.596 258.618 191.684 259.146 191.628 259.694C191.584 260.24 191.407 260.747 191.099 261.214C191.055 261.281 191.007 261.345 190.956 261.408C190.917 261.468 190.882 261.512 190.854 261.541L186.519 258.677C186.32 259.035 186.213 259.4 186.197 259.773C186.192 260.143 186.269 260.492 186.427 260.817C186.591 261.136 186.823 261.395 187.123 261.593C187.443 261.805 187.797 261.923 188.183 261.948C188.576 261.978 188.911 261.897 189.19 261.708L189.812 262.421C189.531 262.599 189.211 262.714 188.852 262.764C188.499 262.819 188.132 262.801 187.75 262.712C187.375 262.627 187.01 262.468 186.656 262.234ZM186.892 258.046L190.456 260.401C190.654 260.043 190.756 259.679 190.761 259.308C190.766 258.938 190.687 258.593 190.524 258.274C190.361 257.955 190.122 257.692 189.809 257.485C189.502 257.282 189.169 257.168 188.812 257.143C188.455 257.118 188.107 257.18 187.768 257.33C187.436 257.485 187.144 257.723 186.892 258.046ZM191.69 265.416L193.091 258.834L194.012 259.442L192.756 264.912L197.296 261.612L198.157 262.181L192.651 266.051L191.69 265.416ZM196.046 266.123C196.267 265.789 196.55 265.564 196.896 265.447C197.252 265.328 197.642 265.312 198.064 265.399C198.486 265.486 198.917 265.675 199.357 265.966C199.591 266.121 199.825 266.304 200.058 266.516C200.297 266.721 200.492 266.927 200.643 267.132L200.895 266.752C201.159 266.352 201.247 265.958 201.156 265.573C201.07 265.18 200.807 264.839 200.367 264.548C200.08 264.358 199.767 264.228 199.43 264.159C199.103 264.087 198.729 264.051 198.308 264.05L198.397 263.218C198.892 263.209 199.347 263.26 199.763 263.372C200.182 263.477 200.576 263.65 200.943 263.893C201.61 264.334 202.014 264.869 202.154 265.499C202.299 266.122 202.153 266.763 201.716 267.424L200.254 269.637C200.184 269.744 200.151 269.837 200.156 269.917C200.171 269.994 200.227 270.07 200.323 270.142L199.873 270.823C199.778 270.779 199.694 270.739 199.623 270.701C199.558 270.668 199.506 270.638 199.466 270.612C199.259 270.475 199.14 270.315 199.108 270.131C199.083 269.951 199.106 269.794 199.176 269.658L199.374 269.314C198.953 269.458 198.506 269.489 198.033 269.406C197.56 269.324 197.144 269.164 196.783 268.926C196.436 268.696 196.172 268.421 195.991 268.1C195.815 267.772 195.729 267.438 195.734 267.096C195.744 266.748 195.848 266.423 196.046 266.123ZM199.206 268.743C199.347 268.702 199.473 268.65 199.581 268.588C199.694 268.519 199.772 268.451 199.817 268.384L200.247 267.733C200.093 267.516 199.915 267.313 199.715 267.123C199.519 266.926 199.311 266.755 199.09 266.61C198.643 266.314 198.22 266.164 197.82 266.159C197.432 266.152 197.137 266.301 196.934 266.608C196.823 266.775 196.759 266.968 196.74 267.185C196.732 267.4 196.781 267.615 196.889 267.83C197.003 268.049 197.19 268.245 197.45 268.417C197.724 268.598 198.02 268.716 198.337 268.773C198.659 268.822 198.948 268.812 199.206 268.743ZM206.709 268.94C206.264 268.655 205.798 268.511 205.312 268.506C204.837 268.499 204.404 268.639 204.013 268.927L201.883 272.151L201.002 271.569L204.455 266.343L205.276 266.885L204.475 268.097C204.894 267.855 205.322 267.722 205.762 267.695C206.212 267.667 206.609 267.747 206.954 267.937C207.021 267.981 207.078 268.018 207.124 268.049C207.171 268.08 207.209 268.11 207.238 268.139L206.709 268.94ZM205.92 271.08C206.247 270.586 206.645 270.201 207.114 269.926C207.594 269.649 208.093 269.504 208.61 269.491C209.133 269.482 209.626 269.63 210.086 269.934C210.507 270.212 210.811 270.571 210.999 271.012C211.187 271.453 211.271 271.892 211.251 272.329L213.315 269.205L214.196 269.788L210.028 276.095C209.958 276.202 209.925 276.295 209.929 276.375C209.945 276.453 210.001 276.528 210.097 276.601L209.647 277.281C209.462 277.198 209.323 277.125 209.23 277.063C209.056 276.949 208.943 276.787 208.888 276.579C208.841 276.375 208.866 276.2 208.963 276.053L209.254 275.612C208.827 275.809 208.375 275.89 207.9 275.854C207.425 275.818 207.001 275.677 206.627 275.43C206.267 275.192 205.979 274.901 205.765 274.558C205.562 274.213 205.43 273.838 205.371 273.435C205.318 273.036 205.334 272.634 205.419 272.23C205.515 271.823 205.682 271.44 205.92 271.08ZM209.696 274.682L210.688 273.18C210.758 272.9 210.763 272.611 210.702 272.311C210.645 272.005 210.538 271.724 210.382 271.467C210.237 271.208 210.054 271.006 209.834 270.861C209.573 270.689 209.299 270.589 209.01 270.561C208.733 270.531 208.456 270.559 208.179 270.644C207.913 270.727 207.662 270.859 207.428 271.04C207.194 271.221 206.993 271.438 206.825 271.692C206.653 271.952 206.533 272.228 206.466 272.518C206.405 272.814 206.395 273.105 206.436 273.391C206.484 273.681 206.581 273.947 206.729 274.188C206.883 274.434 207.087 274.64 207.34 274.808C207.5 274.914 207.684 274.992 207.89 275.042C208.104 275.097 208.322 275.121 208.546 275.116C208.77 275.111 208.982 275.073 209.182 275.004C209.385 274.927 209.557 274.82 209.696 274.682ZM217.963 277.599C218.25 277.165 218.603 276.789 219.024 276.473C219.455 276.154 219.927 275.919 220.438 275.768C220.961 275.615 221.499 275.577 222.052 275.655C222.609 275.726 223.155 275.938 223.689 276.29C224.323 276.709 224.77 277.216 225.03 277.809C225.294 278.396 225.386 278.989 225.307 279.589L224.292 279.58C224.35 279.187 224.326 278.831 224.221 278.511C224.126 278.19 223.976 277.909 223.771 277.668C223.573 277.431 223.353 277.234 223.113 277.075C222.719 276.815 222.316 276.663 221.903 276.621C221.497 276.582 221.102 276.628 220.719 276.759C220.335 276.889 219.98 277.086 219.653 277.349C219.337 277.61 219.068 277.907 218.848 278.241C218.605 278.608 218.431 279.001 218.327 279.421C218.229 279.845 218.204 280.26 218.252 280.666C218.3 281.072 218.424 281.451 218.623 281.803C218.822 282.155 219.098 282.448 219.452 282.681C219.699 282.845 219.981 282.969 220.299 283.054C220.616 283.139 220.948 283.167 221.294 283.136C221.644 283.099 221.983 282.978 222.311 282.773L222.791 283.679C222.41 283.936 221.985 284.087 221.514 284.131C221.044 284.175 220.577 284.134 220.113 284.01C219.655 283.89 219.243 283.708 218.876 283.466C218.389 283.144 218.01 282.745 217.739 282.269C217.473 281.786 217.305 281.272 217.234 280.727C217.174 280.179 217.204 279.633 217.324 279.089C217.454 278.543 217.668 278.046 217.963 277.599ZM223.315 284.141C223.535 283.807 223.818 283.582 224.164 283.465C224.521 283.346 224.91 283.33 225.332 283.417C225.754 283.504 226.185 283.693 226.626 283.984C226.859 284.139 227.093 284.322 227.327 284.534C227.565 284.739 227.76 284.945 227.912 285.15L228.163 284.77C228.428 284.37 228.515 283.976 228.425 283.591C228.339 283.198 228.076 282.857 227.635 282.566C227.348 282.376 227.036 282.246 226.698 282.177C226.372 282.105 225.998 282.069 225.576 282.068L225.666 281.236C226.161 281.227 226.616 281.278 227.031 281.39C227.451 281.495 227.844 281.668 228.211 281.911C228.879 282.352 229.283 282.887 229.423 283.517C229.567 284.14 229.421 284.781 228.985 285.442L227.523 287.655C227.452 287.762 227.419 287.855 227.424 287.935C227.44 288.012 227.496 288.088 227.591 288.16L227.142 288.841C227.046 288.797 226.963 288.757 226.891 288.719C226.827 288.686 226.775 288.656 226.735 288.63C226.528 288.493 226.408 288.333 226.377 288.149C226.351 287.969 226.374 287.812 226.445 287.676L226.643 287.332C226.222 287.476 225.775 287.507 225.302 287.424C224.829 287.342 224.412 287.182 224.052 286.944C223.705 286.714 223.441 286.439 223.26 286.118C223.083 285.79 222.997 285.456 223.003 285.114C223.012 284.766 223.116 284.441 223.315 284.141ZM226.474 286.761C226.616 286.72 226.741 286.668 226.849 286.606C226.962 286.537 227.041 286.469 227.085 286.402L227.515 285.751C227.361 285.534 227.184 285.331 226.983 285.141C226.787 284.944 226.579 284.773 226.359 284.628C225.912 284.332 225.488 284.182 225.089 284.177C224.701 284.17 224.405 284.319 224.202 284.626C224.092 284.793 224.027 284.986 224.008 285.203C224 285.418 224.05 285.633 224.157 285.848C224.271 286.067 224.458 286.263 224.719 286.435C224.992 286.616 225.288 286.734 225.605 286.791C225.927 286.84 226.217 286.83 226.474 286.761ZM233.977 286.958C233.532 286.673 233.067 286.529 232.581 286.524C232.106 286.517 231.673 286.657 231.281 286.945L229.151 290.169L228.27 289.587L231.723 284.361L232.544 284.903L231.744 286.115C232.162 285.873 232.591 285.74 233.03 285.713C233.48 285.685 233.878 285.765 234.223 285.955C234.289 285.999 234.346 286.036 234.393 286.067C234.44 286.098 234.477 286.128 234.506 286.157L233.977 286.958ZM236.442 294.987L235.561 294.405L237.493 291.481C237.859 290.927 238.039 290.466 238.033 290.098C238.038 289.727 237.867 289.427 237.52 289.198C237.28 289.039 237 288.941 236.68 288.902C236.367 288.868 236.049 288.892 235.726 288.976C235.413 289.057 235.129 289.205 234.872 289.419L232.788 292.572L231.907 291.99L235.36 286.764L236.161 287.293L235.42 288.415C235.724 288.26 236.045 288.166 236.384 288.131C236.724 288.096 237.067 288.122 237.413 288.207C237.76 288.292 238.086 288.436 238.393 288.639C238.694 288.837 238.907 289.059 239.032 289.305C239.168 289.549 239.227 289.808 239.208 290.083C239.2 290.356 239.132 290.641 239.002 290.939C238.879 291.242 238.714 291.55 238.506 291.863L236.442 294.987ZM240.029 297.501C239.635 297.24 239.324 296.934 239.097 296.583C238.873 296.224 238.726 295.844 238.656 295.443C238.59 295.035 238.602 294.625 238.691 294.215C238.78 293.804 238.944 293.418 239.182 293.058C239.425 292.691 239.717 292.385 240.06 292.142C240.403 291.899 240.773 291.731 241.17 291.638C241.571 291.539 241.978 291.525 242.391 291.597C242.815 291.666 243.221 291.828 243.608 292.084C244.002 292.344 244.31 292.654 244.534 293.012C244.761 293.364 244.908 293.744 244.974 294.152C245.051 294.558 245.045 294.966 244.956 295.377C244.867 295.788 244.701 296.177 244.458 296.544C244.22 296.904 243.93 297.206 243.587 297.449C243.244 297.693 242.872 297.864 242.471 297.963C242.074 298.056 241.663 298.068 241.239 297.998C240.826 297.927 240.423 297.761 240.029 297.501ZM240.077 293.663C239.838 294.023 239.699 294.401 239.658 294.796C239.625 295.196 239.681 295.568 239.826 295.914C239.976 296.253 240.211 296.528 240.532 296.74C240.852 296.951 241.2 297.057 241.575 297.055C241.956 297.058 242.321 296.963 242.669 296.771C243.027 296.576 243.326 296.299 243.564 295.939C243.802 295.578 243.938 295.198 243.972 294.799C244.012 294.404 243.957 294.031 243.804 293.681C243.659 293.335 243.426 293.057 243.105 292.845C242.785 292.633 242.435 292.532 242.056 292.54C241.681 292.541 241.316 292.636 240.962 292.824C240.614 293.016 240.319 293.296 240.077 293.663ZM246.603 301.327C246.507 301.311 246.379 301.289 246.217 301.258C246.054 301.228 245.877 301.178 245.683 301.107C245.49 301.037 245.3 300.94 245.113 300.817C244.899 300.676 244.727 300.509 244.595 300.316C244.468 300.117 244.404 299.902 244.403 299.672C244.406 299.434 244.49 299.192 244.653 298.945L246.975 295.431L246.264 294.961L246.72 294.27L247.431 294.74L248.582 292.998L249.463 293.58L248.312 295.322L249.484 296.096L249.027 296.787L247.856 296.013L245.712 299.257C245.602 299.452 245.573 299.635 245.625 299.803C245.681 299.965 245.786 300.096 245.939 300.198C246.113 300.312 246.293 300.388 246.479 300.425C246.666 300.462 246.791 300.483 246.856 300.487L246.603 301.327Z" fill="white"/>
<path d="M465.905 351.968C465.949 352.406 465.875 352.799 465.685 353.147C465.494 353.496 465.217 353.781 464.853 354.002C464.497 354.222 464.093 354.355 463.639 354.4L459.615 354.801L458.77 346.323L462.985 345.903C463.383 345.864 463.736 345.937 464.044 346.123C464.359 346.301 464.609 346.549 464.794 346.869C464.986 347.179 465.099 347.514 465.135 347.872C465.176 348.286 465.108 348.687 464.929 349.074C464.758 349.453 464.486 349.749 464.113 349.963C464.613 350.058 465.022 350.287 465.339 350.649C465.664 351.003 465.853 351.442 465.905 351.968ZM464.799 351.885C464.773 351.622 464.689 351.385 464.548 351.174C464.414 350.963 464.241 350.799 464.028 350.683C463.824 350.567 463.594 350.522 463.339 350.547L460.306 350.849L460.597 353.763L463.546 353.469C463.809 353.443 464.037 353.352 464.23 353.196C464.432 353.039 464.582 352.847 464.68 352.62C464.785 352.385 464.825 352.14 464.799 351.885ZM459.938 347.148L460.22 349.978L462.918 349.709C463.173 349.683 463.39 349.597 463.568 349.451C463.754 349.304 463.892 349.117 463.982 348.891C464.08 348.664 464.117 348.424 464.091 348.169C464.064 347.898 463.985 347.665 463.853 347.469C463.728 347.264 463.564 347.108 463.36 347C463.164 346.89 462.947 346.848 462.708 346.872L459.938 347.148ZM470.193 353.868C469.724 353.915 469.289 353.874 468.891 353.744C468.491 353.607 468.137 353.405 467.829 353.139C467.52 352.864 467.271 352.539 467.081 352.164C466.891 351.789 466.774 351.387 466.732 350.957C466.688 350.519 466.722 350.097 466.835 349.692C466.947 349.287 467.128 348.923 467.377 348.601C467.626 348.271 467.933 348.003 468.298 347.798C468.671 347.584 469.088 347.454 469.55 347.408C470.019 347.361 470.454 347.406 470.853 347.543C471.252 347.672 471.606 347.874 471.915 348.149C472.231 348.415 472.484 348.736 472.674 349.111C472.864 349.486 472.981 349.892 473.024 350.33C473.067 350.76 473.032 351.177 472.92 351.582C472.808 351.987 472.627 352.355 472.379 352.685C472.129 353.008 471.819 353.276 471.446 353.49C471.08 353.695 470.663 353.821 470.193 353.868ZM467.807 350.862C467.85 351.291 467.981 351.672 468.199 352.004C468.425 352.336 468.703 352.589 469.034 352.765C469.364 352.933 469.721 352.998 470.103 352.96C470.485 352.922 470.821 352.784 471.111 352.546C471.409 352.308 471.631 352.004 471.78 351.636C471.935 351.258 471.991 350.855 471.948 350.425C471.906 349.995 471.771 349.614 471.545 349.283C471.327 348.951 471.049 348.698 470.71 348.522C470.379 348.346 470.022 348.277 469.64 348.315C469.258 348.353 468.922 348.495 468.633 348.741C468.343 348.979 468.12 349.283 467.964 349.652C467.816 350.021 467.764 350.424 467.807 350.862ZM474.299 350.818L473.926 347.08L474.977 346.976L475.329 350.51C475.393 351.147 475.552 351.614 475.806 351.91C476.061 352.206 476.407 352.332 476.845 352.289C477.132 352.26 477.4 352.173 477.651 352.027C477.909 351.873 478.134 351.67 478.326 351.418C478.518 351.165 478.658 350.874 478.745 350.544L478.356 346.639L479.407 346.534L479.909 351.573C479.922 351.701 479.955 351.794 480.009 351.853C480.071 351.903 480.161 351.926 480.282 351.922L480.362 352.734C480.245 352.762 480.15 352.779 480.078 352.787C480.015 352.801 479.952 352.811 479.888 352.818C479.689 352.837 479.512 352.795 479.357 352.69C479.201 352.576 479.11 352.429 479.084 352.246L478.987 351.52C478.763 352.009 478.432 352.404 477.996 352.705C477.568 353.005 477.083 353.181 476.541 353.235C475.889 353.3 475.373 353.131 474.995 352.726C474.616 352.314 474.384 351.678 474.299 350.818ZM480.934 343.874L481.985 343.769L482.693 350.874C482.727 351.216 482.795 351.422 482.899 351.493C483.002 351.563 483.122 351.591 483.257 351.577C483.424 351.561 483.582 351.529 483.73 351.482C483.877 351.427 484.001 351.375 484.1 351.325L484.353 352.168C484.185 352.257 483.984 352.337 483.75 352.409C483.516 352.48 483.307 352.525 483.124 352.543C482.718 352.584 482.384 352.501 482.122 352.293C481.869 352.086 481.721 351.775 481.68 351.361L480.934 343.874ZM487.965 352.097C487.496 352.144 487.058 352.103 486.651 351.975C486.251 351.838 485.894 351.636 485.578 351.37C485.269 351.096 485.015 350.771 484.817 350.397C484.627 350.022 484.51 349.616 484.467 349.178C484.408 348.589 484.49 348.038 484.712 347.525C484.934 347.013 485.27 346.585 485.718 346.243C486.174 345.9 486.713 345.698 487.334 345.636C487.963 345.573 488.523 345.67 489.015 345.927C489.514 346.175 489.915 346.529 490.218 346.989C490.528 347.44 490.711 347.945 490.767 348.502C490.775 348.581 490.779 348.661 490.779 348.742C490.786 348.813 490.787 348.87 490.783 348.91L485.613 349.425C485.685 349.828 485.833 350.179 486.056 350.479C486.285 350.769 486.565 350.991 486.894 351.143C487.221 351.287 487.564 351.341 487.923 351.306C488.305 351.267 488.654 351.136 488.969 350.912C489.292 350.687 489.502 350.413 489.598 350.089L490.531 350.25C490.426 350.566 490.25 350.857 490.003 351.122C489.764 351.387 489.468 351.606 489.115 351.778C488.771 351.949 488.387 352.055 487.965 352.097ZM485.505 348.7L489.755 348.277C489.683 347.874 489.532 347.527 489.302 347.237C489.072 346.946 488.793 346.729 488.465 346.585C488.137 346.44 487.786 346.387 487.412 346.424C487.046 346.461 486.716 346.582 486.423 346.788C486.13 346.994 485.9 347.262 485.732 347.592C485.572 347.922 485.496 348.291 485.505 348.7ZM493.878 351.388L490.809 345.398L491.908 345.289L494.387 350.324L495.824 344.899L496.851 344.796L495.024 351.273L493.878 351.388ZM497.703 349.186C497.663 348.787 497.741 348.434 497.935 348.125C498.136 347.808 498.428 347.55 498.81 347.351C499.193 347.152 499.646 347.026 500.172 346.974C500.45 346.946 500.747 346.941 501.063 346.957C501.377 346.966 501.658 347.003 501.906 347.066L501.86 346.613C501.813 346.135 501.632 345.775 501.319 345.533C501.004 345.283 500.584 345.184 500.059 345.236C499.717 345.271 499.393 345.367 499.087 345.526C498.788 345.677 498.475 345.885 498.148 346.15L497.692 345.448C498.071 345.129 498.456 344.882 498.848 344.706C499.24 344.522 499.655 344.408 500.093 344.365C500.889 344.286 501.54 344.446 502.046 344.846C502.551 345.237 502.843 345.827 502.922 346.615L503.185 349.254C503.197 349.382 503.231 349.475 503.285 349.534C503.346 349.584 503.437 349.607 503.557 349.603L503.638 350.415C503.536 350.441 503.446 350.462 503.367 350.478C503.296 350.493 503.237 350.503 503.189 350.508C502.942 350.533 502.748 350.484 502.608 350.361C502.475 350.238 502.393 350.101 502.362 349.951L502.299 349.56C502.063 349.937 501.736 350.243 501.317 350.478C500.898 350.712 500.474 350.851 500.044 350.894C499.63 350.935 499.251 350.888 498.908 350.754C498.564 350.611 498.287 350.406 498.075 350.137C497.863 349.861 497.739 349.544 497.703 349.186ZM501.807 349.223C501.891 349.102 501.956 348.983 502 348.866C502.044 348.741 502.062 348.639 502.054 348.559L501.977 347.783C501.721 347.712 501.455 347.666 501.179 347.645C500.903 347.617 500.634 347.615 500.371 347.641C499.838 347.695 499.414 347.845 499.102 348.093C498.796 348.333 498.661 348.636 498.698 349.002C498.717 349.201 498.789 349.391 498.911 349.572C499.041 349.744 499.215 349.879 499.434 349.978C499.661 350.076 499.929 350.109 500.24 350.078C500.566 350.046 500.87 349.951 501.152 349.795C501.433 349.63 501.652 349.439 501.807 349.223ZM507.75 344.639C507.226 344.699 506.773 344.881 506.394 345.184C506.021 345.479 505.774 345.861 505.652 346.331L506.035 350.176L504.984 350.281L504.363 344.048L505.342 343.95L505.486 345.395C505.658 344.944 505.906 344.569 506.23 344.272C506.562 343.966 506.921 343.777 507.308 343.706C507.387 343.698 507.455 343.692 507.511 343.686C507.566 343.681 507.614 343.68 507.655 343.684L507.75 344.639ZM508.49 346.796C508.431 346.207 508.497 345.658 508.688 345.149C508.885 344.63 509.18 344.203 509.573 343.867C509.973 343.529 510.448 343.333 510.997 343.278C511.499 343.228 511.962 343.315 512.386 343.538C512.81 343.761 513.152 344.049 513.413 344.4L513.041 340.675L514.092 340.57L514.842 348.093C514.854 348.22 514.888 348.313 514.942 348.372C515.003 348.423 515.094 348.446 515.214 348.442L515.295 349.254C515.099 349.305 514.946 349.337 514.834 349.348C514.627 349.369 514.437 349.315 514.263 349.188C514.098 349.059 514.006 348.908 513.989 348.733L513.937 348.207C513.729 348.63 513.43 348.977 513.04 349.249C512.649 349.521 512.23 349.68 511.784 349.724C511.355 349.767 510.948 349.723 510.565 349.592C510.19 349.453 509.851 349.245 509.551 348.97C509.258 348.694 509.017 348.372 508.827 348.005C508.645 347.629 508.533 347.226 508.49 346.796ZM513.692 347.207L513.514 345.415C513.391 345.154 513.212 344.927 512.975 344.733C512.738 344.532 512.478 344.381 512.195 344.281C511.919 344.171 511.649 344.13 511.386 344.156C511.076 344.187 510.8 344.283 510.559 344.444C510.325 344.596 510.127 344.792 509.966 345.033C509.813 345.266 509.702 345.526 509.634 345.814C509.566 346.102 509.548 346.397 509.578 346.7C509.609 347.01 509.69 347.3 509.821 347.568C509.96 347.836 510.136 348.067 510.348 348.263C510.569 348.458 510.812 348.603 511.079 348.697C511.354 348.79 511.642 348.822 511.945 348.792C512.136 348.773 512.327 348.717 512.519 348.626C512.719 348.534 512.904 348.415 513.074 348.269C513.245 348.123 513.385 347.961 513.496 347.781C513.606 347.593 513.671 347.402 513.692 347.207ZM527.234 341.299C527.128 341.197 526.99 341.102 526.82 341.015C526.651 340.927 526.462 340.853 526.255 340.793C526.048 340.726 525.822 340.68 525.579 340.656C525.342 340.623 525.097 340.619 524.842 340.645C524.189 340.71 523.72 340.881 523.434 341.159C523.148 341.437 523.026 341.79 523.069 342.22C523.099 342.523 523.203 342.754 523.379 342.913C523.556 343.072 523.813 343.191 524.151 343.27C524.496 343.348 524.93 343.422 525.451 343.49C526.053 343.559 526.578 343.664 527.026 343.804C527.474 343.944 527.829 344.158 528.091 344.446C528.352 344.725 528.507 345.119 528.558 345.629C528.599 346.035 528.554 346.397 528.425 346.716C528.303 347.025 528.113 347.293 527.854 347.52C527.595 347.739 527.283 347.915 526.918 348.048C526.552 348.172 526.151 348.257 525.713 348.3C525.283 348.343 524.857 348.341 524.434 348.295C524.019 348.24 523.619 348.143 523.236 348.004C522.852 347.866 522.488 347.681 522.143 347.45L522.566 346.491C522.707 346.614 522.884 346.733 523.096 346.848C523.316 346.955 523.559 347.052 523.824 347.138C524.098 347.223 524.39 347.286 524.7 347.328C525.008 347.361 525.322 347.362 525.641 347.331C526.246 347.27 526.705 347.116 527.017 346.868C527.33 346.612 527.465 346.273 527.423 345.851C527.391 345.532 527.27 345.287 527.06 345.115C526.858 344.942 526.567 344.81 526.188 344.719C525.81 344.629 525.351 344.546 524.813 344.471C524.225 344.384 523.728 344.277 523.322 344.149C522.914 344.013 522.597 343.815 522.37 343.556C522.151 343.297 522.02 342.944 521.975 342.498C521.921 341.957 522.007 341.486 522.233 341.086C522.458 340.685 522.792 340.367 523.235 340.13C523.677 339.893 524.189 339.745 524.77 339.687C525.153 339.649 525.511 339.654 525.845 339.701C526.187 339.747 526.509 339.828 526.81 339.942C527.111 340.057 527.39 340.202 527.649 340.377L527.234 341.299ZM529.363 346.031C529.323 345.633 529.4 345.28 529.595 344.971C529.796 344.653 530.088 344.395 530.47 344.196C530.852 343.997 531.306 343.872 531.831 343.82C532.11 343.792 532.407 343.786 532.722 343.803C533.037 343.812 533.318 343.848 533.565 343.912L533.52 343.458C533.472 342.981 533.292 342.621 532.978 342.379C532.664 342.129 532.244 342.03 531.719 342.082C531.376 342.116 531.052 342.213 530.747 342.372C530.448 342.522 530.135 342.73 529.808 342.996L529.352 342.294C529.73 341.975 530.116 341.727 530.508 341.552C530.9 341.368 531.315 341.254 531.752 341.211C532.548 341.131 533.2 341.291 533.706 341.691C534.211 342.083 534.503 342.673 534.581 343.461L534.844 346.1C534.857 346.227 534.89 346.321 534.945 346.38C535.006 346.43 535.097 346.453 535.217 346.449L535.298 347.261C535.196 347.287 535.105 347.308 535.027 347.324C534.956 347.339 534.896 347.349 534.849 347.354C534.602 347.378 534.408 347.329 534.267 347.207C534.134 347.083 534.052 346.947 534.021 346.797L533.958 346.405C533.723 346.783 533.395 347.089 532.976 347.323C532.558 347.558 532.133 347.697 531.703 347.74C531.29 347.781 530.911 347.734 530.568 347.599C530.224 347.457 529.946 347.251 529.735 346.983C529.522 346.707 529.398 346.389 529.363 346.031ZM533.466 346.069C533.551 345.948 533.615 345.829 533.66 345.712C533.704 345.587 533.722 345.484 533.714 345.405L533.637 344.629C533.38 344.558 533.114 344.512 532.839 344.491C532.563 344.462 532.293 344.461 532.031 344.487C531.497 344.54 531.074 344.691 530.761 344.939C530.455 345.179 530.321 345.482 530.357 345.848C530.377 346.047 530.448 346.237 530.571 346.417C530.7 346.589 530.875 346.725 531.094 346.823C531.32 346.921 531.589 346.955 531.9 346.924C532.226 346.892 532.53 346.797 532.812 346.64C533.093 346.476 533.311 346.285 533.466 346.069ZM536.644 347.127L536.023 340.894L537.073 340.789L537.694 347.022L536.644 347.127ZM535.906 339.723L535.775 338.41L536.826 338.305L536.957 339.619L535.906 339.723ZM544.805 346.314L543.754 346.418L543.407 342.932C543.341 342.271 543.189 341.8 542.952 341.518C542.722 341.227 542.4 341.102 541.986 341.144C541.7 341.172 541.42 341.272 541.148 341.444C540.884 341.615 540.652 341.835 540.454 342.104C540.263 342.364 540.135 342.659 540.072 342.987L540.446 346.748L539.396 346.853L538.775 340.619L539.73 340.524L539.863 341.862C540.001 341.55 540.19 341.274 540.432 341.033C540.673 340.792 540.955 340.595 541.277 340.442C541.6 340.29 541.944 340.195 542.31 340.159C542.669 340.123 542.974 340.161 543.226 340.272C543.486 340.375 543.695 340.539 543.854 340.765C544.02 340.981 544.147 341.246 544.235 341.559C544.33 341.871 544.396 342.214 544.434 342.588L544.805 346.314ZM549.574 345.525C549.49 345.574 549.376 345.637 549.231 345.716C549.086 345.795 548.916 345.868 548.722 345.935C548.528 346.003 548.319 346.048 548.096 346.07C547.842 346.095 547.602 346.075 547.379 346.009C547.154 345.935 546.969 345.809 546.823 345.63C546.675 345.444 546.587 345.203 546.558 344.909L546.14 340.718L545.292 340.802L545.21 339.978L546.058 339.894L545.851 337.816L546.902 337.711L547.109 339.789L548.506 339.65L548.588 340.474L547.191 340.613L547.576 344.482C547.615 344.703 547.707 344.863 547.853 344.961C547.999 345.051 548.163 345.087 548.346 345.068C548.553 345.048 548.741 344.993 548.909 344.904C549.077 344.815 549.187 344.751 549.24 344.714L549.574 345.525ZM550.218 342.965L550.123 342.009L553.645 341.658L553.74 342.614L550.218 342.965ZM563.127 344.488L562.482 338.016L560.184 343.274L559.527 343.339L556.225 338.64L556.87 345.112L555.795 345.219L554.95 336.741L556.085 336.628L559.702 341.827L562.234 336.015L563.357 335.903L564.201 344.381L563.127 344.488ZM566.064 344.196L565.443 337.962L566.494 337.858L567.115 344.091L566.064 344.196ZM565.327 336.792L565.196 335.479L566.247 335.374L566.378 336.687L565.327 336.792ZM571.587 343.766C571.117 343.813 570.679 343.772 570.272 343.644C569.872 343.507 569.514 343.301 569.198 343.027C568.889 342.752 568.635 342.428 568.437 342.054C568.247 341.679 568.13 341.272 568.087 340.834C568.028 340.245 568.106 339.695 568.32 339.183C568.534 338.671 568.866 338.248 569.315 337.914C569.764 337.572 570.302 337.37 570.931 337.307C571.544 337.246 572.091 337.332 572.573 337.566C573.061 337.79 573.44 338.122 573.709 338.562L572.714 338.987C572.526 338.708 572.28 338.503 571.978 338.373C571.675 338.234 571.348 338.182 570.998 338.217C570.615 338.255 570.275 338.389 569.976 338.62C569.686 338.85 569.466 339.149 569.318 339.518C569.169 339.878 569.117 340.282 569.161 340.727C569.205 341.165 569.336 341.554 569.555 341.894C569.781 342.225 570.059 342.479 570.391 342.655C570.73 342.83 571.09 342.899 571.472 342.861C571.719 342.836 571.95 342.769 572.164 342.659C572.386 342.549 572.573 342.413 572.726 342.253C572.886 342.085 572.989 341.91 573.036 341.728L574.094 341.936C573.996 342.252 573.828 342.542 573.589 342.807C573.358 343.063 573.069 343.277 572.725 343.448C572.388 343.618 572.008 343.724 571.587 343.766ZM580.837 342.724L579.787 342.828L579.439 339.342C579.376 338.705 579.213 338.239 578.95 337.943C578.695 337.647 578.357 337.52 577.935 337.562C577.665 337.589 577.397 337.688 577.133 337.859C576.876 338.029 576.657 338.248 576.475 338.515C576.291 338.775 576.168 339.069 576.104 339.397L576.479 343.158L575.428 343.263L574.56 334.546L575.61 334.441L575.991 338.262C576.194 337.792 576.493 337.408 576.889 337.111C577.293 336.806 577.742 336.629 578.235 336.579C578.61 336.542 578.927 336.579 579.187 336.69C579.454 336.792 579.676 336.954 579.851 337.178C580.026 337.402 580.161 337.67 580.256 337.982C580.359 338.285 580.429 338.624 580.466 338.998L580.837 342.724ZM585.242 342.405C584.772 342.452 584.334 342.412 583.927 342.283C583.527 342.146 583.17 341.945 582.854 341.679C582.545 341.404 582.292 341.079 582.094 340.705C581.903 340.33 581.787 339.924 581.743 339.486C581.684 338.897 581.766 338.346 581.988 337.833C582.211 337.321 582.546 336.894 582.994 336.551C583.45 336.209 583.989 336.006 584.61 335.944C585.239 335.882 585.799 335.979 586.291 336.235C586.79 336.483 587.191 336.837 587.494 337.297C587.805 337.748 587.987 338.253 588.043 338.81C588.051 338.89 588.055 338.97 588.055 339.05C588.062 339.122 588.064 339.178 588.06 339.218L582.889 339.734C582.961 340.136 583.109 340.487 583.332 340.787C583.562 341.077 583.841 341.299 584.17 341.451C584.498 341.595 584.841 341.649 585.199 341.614C585.581 341.576 585.93 341.445 586.245 341.22C586.568 340.995 586.778 340.721 586.875 340.398L587.807 340.558C587.702 340.874 587.526 341.165 587.279 341.431C587.04 341.696 586.744 341.914 586.392 342.086C586.047 342.257 585.664 342.363 585.242 342.405ZM582.781 339.009L587.032 338.585C586.959 338.182 586.808 337.836 586.578 337.545C586.348 337.254 586.069 337.037 585.742 336.893C585.414 336.749 585.063 336.695 584.688 336.732C584.322 336.769 583.993 336.89 583.7 337.096C583.407 337.302 583.176 337.57 583.008 337.901C582.848 338.23 582.772 338.6 582.781 339.009ZM588.682 333.139L589.733 333.034L590.44 340.139C590.474 340.481 590.543 340.687 590.647 340.757C590.75 340.828 590.87 340.856 591.005 340.842C591.172 340.826 591.33 340.794 591.478 340.747C591.625 340.692 591.748 340.64 591.848 340.59L592.101 341.433C591.933 341.522 591.732 341.602 591.498 341.674C591.264 341.745 591.055 341.79 590.872 341.808C590.466 341.849 590.132 341.765 589.87 341.558C589.616 341.351 589.469 341.04 589.428 340.626L588.682 333.139Z" fill="white"/>
<path d="M354 301C345.177 301 338 308.196 338 317.041C338 330.22 352.407 343.088 353.021 343.63C353.301 343.877 353.65 344 354 344C354.35 344 354.699 343.877 354.979 343.63C355.592 343.088 370 330.22 370 317.041C370 308.196 362.823 301 354 301ZM354 340.48C350.815 337.387 340.963 327.011 340.963 317.041C340.963 309.834 346.811 303.969 354 303.969C361.189 303.969 367.037 309.834 367.037 317.041C367.037 327.011 357.185 337.387 354 340.48Z" fill="white"/>
<path d="M354 309.569C349.916 309.569 346.593 312.921 346.593 317.041C346.593 321.162 349.916 324.514 354 324.514C358.084 324.514 361.407 321.162 361.407 317.041C361.407 312.921 358.084 309.569 354 309.569ZM354 321.545C351.549 321.545 349.556 319.524 349.556 317.041C349.556 314.558 351.549 312.538 354 312.538C356.451 312.538 358.444 314.558 358.444 317.041C358.444 319.524 356.451 321.545 354 321.545Z" fill="white"/>
</svg>
