<svg width="775" height="758" viewBox="0 0 775 758" fill="none" xmlns="http://www.w3.org/2000/svg">
<rect x="10" y="10" width="755" height="731" fill="#223B2D" stroke="#223B2D" stroke-width="20"/>
<path d="M349.5 361.5L438 432L658.5 499L768.5 504M349.5 361.5L6 142M349.5 361.5L709.5 327.5L770 288" stroke="white" stroke-width="15"/>
<path d="M195.5 257L352.5 10.5M9.5 747L124 628L279 322.5M24.5 750.5L139.5 628L292.5 329M670.5 501L712.5 528.234M767.5 566L712.5 528.234M541 461L727 319.5M360 536L534 461M549 59.5L705 326.5M80 180.5L195.5 13M184.5 546.5L615.5 750H700.5L763 650L752 608L712.5 561L706 548L712.5 528.234" stroke="white" stroke-width="10"/>
<path d="M433.5 714L503.146 567.5M547.5 471L503.146 567.5M478 486L580.927 571.5M503.146 567.5L567 599.5L579.5 573L647.5 501.5M719 495L750 422.5L701.5 387.172M599.5 421L610 431L729 374L771 328.5M683 356.5L702.5 386.693" stroke="white" stroke-width="5"/>
<path d="M482.5 16.5L614.5 78.2419L741 137.411M772.5 150.5L741 137.411M452 225.5L578 11M643 225.5H700.5L741 137.411" stroke="white" stroke-width="5"/>
<path d="M643 226.5L717 79M717 79L772 110M717 79L657 8.5M613.5 177L654 99M643 92.5L676 32" stroke="white" stroke-width="5"/>
<path d="M712.5 203.5L752 222L768 203.5M726.5 12L771.5 42.5M398 521L505.5 287M505.5 287L574 293.5L608 330M505.5 287L413.5 180.5L294.5 109M641 330L559.5 142M574 114.5L548.5 166L467 197" stroke="white" stroke-width="5"/>
<path d="M107.5 143L223 211M179 44L200 55.7188M291 106.5L200 55.7188M200 55.7188L263.5 29.5L321 65M350.5 18.5L421 65M350.5 143L365.888 127.5M483 10L463.181 29.5M365.888 127.5L378 135.5L470.5 44L463.181 29.5M365.888 127.5L463.181 29.5" stroke="white" stroke-width="5"/>
<path d="M168 534.5L3 397M10.5 543.5L144 403.5L201 470.5M255 363L196.5 352.213M196.5 352.213L184.5 350L107.5 311.5H87.5L64.5 330L87.5 377.5H94.5M196.5 352.213L127.5 377.5H120.5M120.5 377.5L196.5 266M120.5 377.5H94.5M120.5 377.5L119.684 429M92.5 310.5L3 201.5L10 217L56 176M94.5 377.5V425L109.5 437.5M147 621.5L235 671L255 697.5L365.5 754.5M314.5 745.5L324 709.5L348.5 697.5L357 682L348.5 657.5L362.5 632.5M324 608L362.5 534.5L314.5 510.142M227 466L314.5 510.142M246 420L338.5 460.575M410.5 492L338.5 460.575M338.5 460.575L314.5 510.142" stroke="white" stroke-width="5"/>
<path d="M641 417L732 460M527.5 315.5H594M105.5 668.5L235 751M273.5 708L254 751M5 677.5L83.5 605.5M8 529.5L57.5 580.25M116.5 633.5L57.5 580.25M57.5 580.25L123 497M35 155L125 11.5M7 93L59 9.5M7 11.5L138.5 101M5 78.5L105.5 142" stroke="white" stroke-width="5"/>
<path d="M318.5 332L344 289.5L393.5 306L410 289.5L484.5 332" stroke="white"/>
<path d="M327.5 612.5L355 606L373.5 561L366 535.5M428.5 664.5L475 577.5M127.5 368.5L94.5 351L81 332L99.5 318.017L86.5 312L147 340M704.5 561L638.5 675.5L659.5 698.5L649.5 711.5L691.5 737H704.5" stroke="white"/>
<path d="M229.873 645.728C230.025 645.832 230.233 645.932 230.497 646.028C230.769 646.116 231.089 646.16 231.457 646.16C231.833 646.16 232.141 646.1 232.381 645.98C232.621 645.852 232.805 645.664 232.933 645.416C233.061 645.16 233.149 644.836 233.197 644.444C233.245 644.052 233.269 643.588 233.269 643.052V638.48H234.349V642.812C234.349 643.444 234.317 644.024 234.253 644.552C234.189 645.08 234.061 645.54 233.869 645.932C233.677 646.316 233.389 646.612 233.005 646.82C232.629 647.028 232.125 647.132 231.493 647.132C231.093 647.132 230.741 647.088 230.437 647C230.133 646.912 229.853 646.78 229.597 646.604L229.873 645.728ZM235.532 645.188C235.532 644.788 235.644 644.444 235.868 644.156C236.1 643.86 236.416 643.632 236.816 643.472C237.216 643.312 237.68 643.232 238.208 643.232C238.488 643.232 238.784 643.256 239.096 643.304C239.408 643.344 239.684 643.408 239.924 643.496V643.04C239.924 642.56 239.78 642.184 239.492 641.912C239.204 641.632 238.796 641.492 238.268 641.492C237.924 641.492 237.592 641.556 237.272 641.684C236.96 641.804 236.628 641.98 236.276 642.212L235.892 641.468C236.3 641.188 236.708 640.98 237.116 640.844C237.524 640.7 237.948 640.628 238.388 640.628C239.188 640.628 239.82 640.852 240.284 641.3C240.748 641.74 240.98 642.356 240.98 643.148V645.8C240.98 645.928 241.004 646.024 241.052 646.088C241.108 646.144 241.196 646.176 241.316 646.184V647C241.212 647.016 241.12 647.028 241.04 647.036C240.968 647.044 240.908 647.048 240.86 647.048C240.612 647.048 240.424 646.98 240.296 646.844C240.176 646.708 240.108 646.564 240.092 646.412L240.068 646.016C239.796 646.368 239.44 646.64 239 646.832C238.56 647.024 238.124 647.12 237.692 647.12C237.276 647.12 236.904 647.036 236.576 646.868C236.248 646.692 235.992 646.46 235.808 646.172C235.624 645.876 235.532 645.548 235.532 645.188ZM239.612 645.632C239.708 645.52 239.784 645.408 239.84 645.296C239.896 645.176 239.924 645.076 239.924 644.996V644.216C239.676 644.12 239.416 644.048 239.144 644C238.872 643.944 238.604 643.916 238.34 643.916C237.804 643.916 237.368 644.024 237.032 644.24C236.704 644.448 236.54 644.736 236.54 645.104C236.54 645.304 236.592 645.5 236.696 645.692C236.808 645.876 236.968 646.028 237.176 646.148C237.392 646.268 237.656 646.328 237.968 646.328C238.296 646.328 238.608 646.264 238.904 646.136C239.2 646 239.436 645.832 239.612 645.632ZM245.98 641.66C245.452 641.668 244.984 641.804 244.576 642.068C244.176 642.324 243.892 642.68 243.724 643.136V647H242.668V640.736H243.652V642.188C243.868 641.756 244.152 641.408 244.504 641.144C244.864 640.872 245.24 640.72 245.632 640.688C245.712 640.688 245.78 640.688 245.836 640.688C245.892 640.688 245.94 640.692 245.98 640.7V641.66ZM246.503 643.88C246.503 643.288 246.623 642.748 246.863 642.26C247.111 641.764 247.447 641.368 247.871 641.072C248.303 640.776 248.795 640.628 249.347 640.628C249.851 640.628 250.303 640.76 250.703 641.024C251.103 641.288 251.415 641.608 251.639 641.984V638.24H252.695V645.8C252.695 645.928 252.719 646.024 252.767 646.088C252.823 646.144 252.911 646.176 253.031 646.184V647C252.831 647.032 252.675 647.048 252.563 647.048C252.355 647.048 252.171 646.976 252.011 646.832C251.859 646.688 251.783 646.528 251.783 646.352V645.824C251.535 646.224 251.203 646.54 250.787 646.772C250.371 647.004 249.939 647.12 249.491 647.12C249.059 647.12 248.659 647.036 248.291 646.868C247.931 646.692 247.615 646.452 247.343 646.148C247.079 645.844 246.871 645.5 246.719 645.116C246.575 644.724 246.503 644.312 246.503 643.88ZM251.639 644.804V643.004C251.543 642.732 251.387 642.488 251.171 642.272C250.955 642.048 250.711 641.872 250.439 641.744C250.175 641.608 249.911 641.54 249.647 641.54C249.335 641.54 249.051 641.608 248.795 641.744C248.547 641.872 248.331 642.048 248.147 642.272C247.971 642.488 247.835 642.736 247.739 643.016C247.643 643.296 247.595 643.588 247.595 643.892C247.595 644.204 247.647 644.5 247.751 644.78C247.863 645.06 248.015 645.308 248.207 645.524C248.407 645.74 248.635 645.908 248.891 646.028C249.155 646.148 249.439 646.208 249.743 646.208C249.935 646.208 250.131 646.172 250.331 646.1C250.539 646.028 250.735 645.928 250.919 645.8C251.103 645.672 251.259 645.524 251.387 645.356C251.515 645.18 251.599 644.996 251.639 644.804ZM254.457 647V640.736H255.513V647H254.457ZM254.457 639.56V638.24H255.513V639.56H254.457ZM262.659 647H261.603V643.496C261.603 642.832 261.499 642.348 261.291 642.044C261.091 641.732 260.783 641.576 260.367 641.576C260.079 641.576 259.791 641.648 259.503 641.792C259.223 641.936 258.971 642.132 258.747 642.38C258.531 642.62 258.375 642.9 258.279 643.22V647H257.223V640.736H258.183V642.08C258.351 641.784 258.567 641.528 258.831 641.312C259.095 641.096 259.395 640.928 259.731 640.808C260.067 640.688 260.419 640.628 260.787 640.628C261.147 640.628 261.447 640.696 261.687 640.832C261.935 640.96 262.127 641.144 262.263 641.384C262.407 641.616 262.507 641.892 262.563 642.212C262.627 642.532 262.659 642.88 262.659 643.256V647ZM266.928 643.88C266.928 643.288 267.048 642.748 267.288 642.26C267.536 641.764 267.872 641.368 268.296 641.072C268.728 640.776 269.22 640.628 269.772 640.628C270.276 640.628 270.728 640.76 271.128 641.024C271.528 641.288 271.84 641.608 272.064 641.984V638.24H273.12V645.8C273.12 645.928 273.144 646.024 273.192 646.088C273.248 646.144 273.336 646.176 273.456 646.184V647C273.256 647.032 273.1 647.048 272.988 647.048C272.78 647.048 272.596 646.976 272.436 646.832C272.284 646.688 272.208 646.528 272.208 646.352V645.824C271.96 646.224 271.628 646.54 271.212 646.772C270.796 647.004 270.364 647.12 269.916 647.12C269.484 647.12 269.084 647.036 268.716 646.868C268.356 646.692 268.04 646.452 267.768 646.148C267.504 645.844 267.296 645.5 267.144 645.116C267 644.724 266.928 644.312 266.928 643.88ZM272.064 644.804V643.004C271.968 642.732 271.812 642.488 271.596 642.272C271.38 642.048 271.136 641.872 270.864 641.744C270.6 641.608 270.336 641.54 270.072 641.54C269.76 641.54 269.476 641.608 269.22 641.744C268.972 641.872 268.756 642.048 268.572 642.272C268.396 642.488 268.26 642.736 268.164 643.016C268.068 643.296 268.02 643.588 268.02 643.892C268.02 644.204 268.072 644.5 268.176 644.78C268.288 645.06 268.44 645.308 268.632 645.524C268.832 645.74 269.06 645.908 269.316 646.028C269.58 646.148 269.864 646.208 270.168 646.208C270.36 646.208 270.556 646.172 270.756 646.1C270.964 646.028 271.16 645.928 271.344 645.8C271.528 645.672 271.684 645.524 271.812 645.356C271.94 645.18 272.024 644.996 272.064 644.804ZM274.823 644.492V640.736H275.879V644.288C275.879 644.928 275.991 645.408 276.215 645.728C276.439 646.048 276.771 646.208 277.211 646.208C277.499 646.208 277.775 646.148 278.039 646.028C278.311 645.9 278.555 645.72 278.771 645.488C278.987 645.256 279.155 644.98 279.275 644.66V640.736H280.331V645.8C280.331 645.928 280.355 646.024 280.403 646.088C280.459 646.144 280.547 646.176 280.667 646.184V647C280.547 647.016 280.451 647.024 280.379 647.024C280.315 647.032 280.251 647.036 280.187 647.036C279.987 647.036 279.815 646.976 279.671 646.856C279.527 646.728 279.451 646.572 279.443 646.388L279.419 645.656C279.147 646.12 278.779 646.48 278.315 646.736C277.859 646.992 277.359 647.12 276.815 647.12C276.159 647.12 275.663 646.9 275.327 646.46C274.991 646.012 274.823 645.356 274.823 644.492ZM292.661 647V640.496L289.853 645.5H289.193L286.373 640.496V647H285.293V638.48H286.433L289.517 644.012L292.613 638.48H293.741V647H292.661ZM295.063 645.188C295.063 644.788 295.175 644.444 295.399 644.156C295.631 643.86 295.947 643.632 296.347 643.472C296.747 643.312 297.211 643.232 297.739 643.232C298.019 643.232 298.315 643.256 298.627 643.304C298.939 643.344 299.215 643.408 299.455 643.496V643.04C299.455 642.56 299.311 642.184 299.023 641.912C298.735 641.632 298.327 641.492 297.799 641.492C297.455 641.492 297.123 641.556 296.803 641.684C296.491 641.804 296.159 641.98 295.807 642.212L295.423 641.468C295.831 641.188 296.239 640.98 296.647 640.844C297.055 640.7 297.479 640.628 297.919 640.628C298.719 640.628 299.351 640.852 299.815 641.3C300.279 641.74 300.511 642.356 300.511 643.148V645.8C300.511 645.928 300.535 646.024 300.583 646.088C300.639 646.144 300.727 646.176 300.847 646.184V647C300.743 647.016 300.651 647.028 300.571 647.036C300.499 647.044 300.439 647.048 300.391 647.048C300.143 647.048 299.955 646.98 299.827 646.844C299.707 646.708 299.639 646.564 299.623 646.412L299.599 646.016C299.327 646.368 298.971 646.64 298.531 646.832C298.091 647.024 297.655 647.12 297.223 647.12C296.807 647.12 296.435 647.036 296.107 646.868C295.779 646.692 295.523 646.46 295.339 646.172C295.155 645.876 295.063 645.548 295.063 645.188ZM299.143 645.632C299.239 645.52 299.315 645.408 299.371 645.296C299.427 645.176 299.455 645.076 299.455 644.996V644.216C299.207 644.12 298.947 644.048 298.675 644C298.403 643.944 298.135 643.916 297.871 643.916C297.335 643.916 296.899 644.024 296.563 644.24C296.235 644.448 296.071 644.736 296.071 645.104C296.071 645.304 296.123 645.5 296.227 645.692C296.339 645.876 296.499 646.028 296.707 646.148C296.923 646.268 297.187 646.328 297.499 646.328C297.827 646.328 298.139 646.264 298.435 646.136C298.731 646 298.967 645.832 299.143 645.632ZM302.2 647V640.736H303.256V647H302.2ZM302.2 639.56V638.24H303.256V639.56H302.2ZM304.989 638.24H306.045V645.38C306.045 645.724 306.093 645.936 306.189 646.016C306.285 646.096 306.401 646.136 306.537 646.136C306.705 646.136 306.865 646.12 307.017 646.088C307.169 646.048 307.297 646.008 307.401 645.968L307.569 646.832C307.393 646.904 307.185 646.964 306.945 647.012C306.705 647.06 306.493 647.084 306.309 647.084C305.901 647.084 305.577 646.968 305.337 646.736C305.105 646.504 304.989 646.18 304.989 645.764V638.24Z" fill="white"/>
<path d="M282.584 235.622C282.749 235.735 282.974 235.843 283.26 235.947C283.555 236.042 283.902 236.09 284.3 236.09C284.708 236.09 285.041 236.025 285.301 235.895C285.561 235.756 285.761 235.553 285.899 235.284C286.038 235.007 286.133 234.656 286.185 234.231C286.237 233.806 286.263 233.304 286.263 232.723V227.77H287.433V232.463C287.433 233.148 287.399 233.776 287.329 234.348C287.26 234.92 287.121 235.418 286.913 235.843C286.705 236.259 286.393 236.58 285.977 236.805C285.57 237.03 285.024 237.143 284.339 237.143C283.906 237.143 283.525 237.095 283.195 237C282.866 236.905 282.563 236.762 282.285 236.571L282.584 235.622ZM288.715 235.037C288.715 234.604 288.836 234.231 289.079 233.919C289.33 233.598 289.672 233.351 290.106 233.178C290.539 233.005 291.042 232.918 291.614 232.918C291.917 232.918 292.238 232.944 292.576 232.996C292.914 233.039 293.213 233.109 293.473 233.204V232.71C293.473 232.19 293.317 231.783 293.005 231.488C292.693 231.185 292.251 231.033 291.679 231.033C291.306 231.033 290.946 231.102 290.6 231.241C290.262 231.371 289.902 231.562 289.521 231.813L289.105 231.007C289.547 230.704 289.989 230.478 290.431 230.331C290.873 230.175 291.332 230.097 291.809 230.097C292.675 230.097 293.36 230.34 293.863 230.825C294.365 231.302 294.617 231.969 294.617 232.827V235.7C294.617 235.839 294.643 235.943 294.695 236.012C294.755 236.073 294.851 236.107 294.981 236.116V237C294.868 237.017 294.768 237.03 294.682 237.039C294.604 237.048 294.539 237.052 294.487 237.052C294.218 237.052 294.014 236.978 293.876 236.831C293.746 236.684 293.672 236.528 293.655 236.363L293.629 235.934C293.334 236.315 292.948 236.61 292.472 236.818C291.995 237.026 291.523 237.13 291.055 237.13C290.604 237.13 290.201 237.039 289.846 236.857C289.49 236.666 289.213 236.415 289.014 236.103C288.814 235.782 288.715 235.427 288.715 235.037ZM293.135 235.518C293.239 235.397 293.321 235.275 293.382 235.154C293.442 235.024 293.473 234.916 293.473 234.829V233.984C293.204 233.88 292.922 233.802 292.628 233.75C292.333 233.689 292.043 233.659 291.757 233.659C291.176 233.659 290.704 233.776 290.34 234.01C289.984 234.235 289.807 234.547 289.807 234.946C289.807 235.163 289.863 235.375 289.976 235.583C290.097 235.782 290.27 235.947 290.496 236.077C290.73 236.207 291.016 236.272 291.354 236.272C291.709 236.272 292.047 236.203 292.368 236.064C292.688 235.917 292.944 235.735 293.135 235.518ZM300.034 231.215C299.462 231.224 298.955 231.371 298.513 231.657C298.08 231.934 297.772 232.32 297.59 232.814V237H296.446V230.214H297.512V231.787C297.746 231.319 298.054 230.942 298.435 230.656C298.825 230.361 299.232 230.197 299.657 230.162C299.744 230.162 299.817 230.162 299.878 230.162C299.939 230.162 299.991 230.166 300.034 230.175V231.215ZM300.6 233.62C300.6 232.979 300.73 232.394 300.99 231.865C301.258 231.328 301.622 230.899 302.082 230.578C302.55 230.257 303.083 230.097 303.681 230.097C304.227 230.097 304.716 230.24 305.15 230.526C305.583 230.812 305.921 231.159 306.164 231.566V227.51H307.308V235.7C307.308 235.839 307.334 235.943 307.386 236.012C307.446 236.073 307.542 236.107 307.672 236.116V237C307.455 237.035 307.286 237.052 307.165 237.052C306.939 237.052 306.74 236.974 306.567 236.818C306.402 236.662 306.32 236.489 306.32 236.298V235.726C306.051 236.159 305.691 236.502 305.241 236.753C304.79 237.004 304.322 237.13 303.837 237.13C303.369 237.13 302.935 237.039 302.537 236.857C302.147 236.666 301.804 236.406 301.51 236.077C301.224 235.748 300.998 235.375 300.834 234.959C300.678 234.534 300.6 234.088 300.6 233.62ZM306.164 234.621V232.671C306.06 232.376 305.891 232.112 305.657 231.878C305.423 231.635 305.158 231.445 304.864 231.306C304.578 231.159 304.292 231.085 304.006 231.085C303.668 231.085 303.36 231.159 303.083 231.306C302.814 231.445 302.58 231.635 302.381 231.878C302.19 232.112 302.043 232.381 301.939 232.684C301.835 232.987 301.783 233.304 301.783 233.633C301.783 233.971 301.839 234.292 301.952 234.595C302.073 234.898 302.238 235.167 302.446 235.401C302.662 235.635 302.909 235.817 303.187 235.947C303.473 236.077 303.78 236.142 304.11 236.142C304.318 236.142 304.53 236.103 304.747 236.025C304.972 235.947 305.184 235.839 305.384 235.7C305.583 235.561 305.752 235.401 305.891 235.219C306.029 235.028 306.12 234.829 306.164 234.621ZM309.217 237V230.214H310.361V237H309.217ZM309.217 228.94V227.51H310.361V228.94H309.217ZM318.103 237H316.959V233.204C316.959 232.485 316.846 231.96 316.621 231.631C316.404 231.293 316.07 231.124 315.62 231.124C315.308 231.124 314.996 231.202 314.684 231.358C314.38 231.514 314.107 231.726 313.865 231.995C313.631 232.255 313.462 232.558 313.358 232.905V237H312.214V230.214H313.254V231.67C313.436 231.349 313.67 231.072 313.956 230.838C314.242 230.604 314.567 230.422 314.931 230.292C315.295 230.162 315.676 230.097 316.075 230.097C316.465 230.097 316.79 230.171 317.05 230.318C317.318 230.457 317.526 230.656 317.674 230.916C317.83 231.167 317.938 231.466 317.999 231.813C318.068 232.16 318.103 232.537 318.103 232.944V237ZM322.728 233.62C322.728 232.979 322.858 232.394 323.118 231.865C323.386 231.328 323.75 230.899 324.21 230.578C324.678 230.257 325.211 230.097 325.809 230.097C326.355 230.097 326.844 230.24 327.278 230.526C327.711 230.812 328.049 231.159 328.292 231.566V227.51H329.436V235.7C329.436 235.839 329.462 235.943 329.514 236.012C329.574 236.073 329.67 236.107 329.8 236.116V237C329.583 237.035 329.414 237.052 329.293 237.052C329.067 237.052 328.868 236.974 328.695 236.818C328.53 236.662 328.448 236.489 328.448 236.298V235.726C328.179 236.159 327.819 236.502 327.369 236.753C326.918 237.004 326.45 237.13 325.965 237.13C325.497 237.13 325.063 237.039 324.665 236.857C324.275 236.666 323.932 236.406 323.638 236.077C323.352 235.748 323.126 235.375 322.962 234.959C322.806 234.534 322.728 234.088 322.728 233.62ZM328.292 234.621V232.671C328.188 232.376 328.019 232.112 327.785 231.878C327.551 231.635 327.286 231.445 326.992 231.306C326.706 231.159 326.42 231.085 326.134 231.085C325.796 231.085 325.488 231.159 325.211 231.306C324.942 231.445 324.708 231.635 324.509 231.878C324.318 232.112 324.171 232.381 324.067 232.684C323.963 232.987 323.911 233.304 323.911 233.633C323.911 233.971 323.967 234.292 324.08 234.595C324.201 234.898 324.366 235.167 324.574 235.401C324.79 235.635 325.037 235.817 325.315 235.947C325.601 236.077 325.908 236.142 326.238 236.142C326.446 236.142 326.658 236.103 326.875 236.025C327.1 235.947 327.312 235.839 327.512 235.7C327.711 235.561 327.88 235.401 328.019 235.219C328.157 235.028 328.248 234.829 328.292 234.621ZM334.348 237.13C333.837 237.13 333.369 237.039 332.944 236.857C332.528 236.666 332.164 236.411 331.852 236.09C331.549 235.761 331.311 235.384 331.137 234.959C330.973 234.534 330.89 234.084 330.89 233.607C330.89 232.966 331.038 232.381 331.332 231.852C331.627 231.323 332.034 230.899 332.554 230.578C333.083 230.257 333.685 230.097 334.361 230.097C335.046 230.097 335.64 230.262 336.142 230.591C336.654 230.912 337.048 231.336 337.325 231.865C337.611 232.385 337.754 232.948 337.754 233.555C337.754 233.642 337.75 233.728 337.741 233.815C337.741 233.893 337.737 233.954 337.728 233.997H332.099C332.134 234.439 332.255 234.833 332.463 235.18C332.68 235.518 332.957 235.787 333.295 235.986C333.633 236.177 333.997 236.272 334.387 236.272C334.803 236.272 335.193 236.168 335.557 235.96C335.93 235.752 336.186 235.479 336.324 235.141L337.312 235.414C337.165 235.743 336.944 236.038 336.649 236.298C336.363 236.558 336.021 236.762 335.622 236.909C335.232 237.056 334.808 237.13 334.348 237.13ZM332.06 233.204H336.688C336.654 232.762 336.528 232.372 336.311 232.034C336.095 231.696 335.817 231.432 335.479 231.241C335.141 231.05 334.769 230.955 334.361 230.955C333.963 230.955 333.594 231.05 333.256 231.241C332.918 231.432 332.641 231.696 332.424 232.034C332.216 232.372 332.095 232.762 332.06 233.204ZM341.353 237.13C340.79 237.13 340.261 237.039 339.767 236.857C339.273 236.666 338.848 236.385 338.493 236.012L338.935 235.206C339.325 235.57 339.715 235.83 340.105 235.986C340.495 236.142 340.894 236.22 341.301 236.22C341.769 236.22 342.15 236.133 342.445 235.96C342.74 235.778 342.887 235.514 342.887 235.167C342.887 234.916 342.809 234.729 342.653 234.608C342.506 234.487 342.293 234.387 342.016 234.309C341.739 234.222 341.409 234.127 341.028 234.023C340.56 233.884 340.166 233.737 339.845 233.581C339.524 233.425 339.282 233.23 339.117 232.996C338.952 232.762 338.87 232.467 338.87 232.112C338.87 231.679 338.983 231.315 339.208 231.02C339.433 230.717 339.741 230.487 340.131 230.331C340.53 230.175 340.98 230.097 341.483 230.097C341.986 230.097 342.441 230.175 342.848 230.331C343.255 230.487 343.606 230.717 343.901 231.02L343.381 231.813C343.112 231.536 342.818 231.332 342.497 231.202C342.176 231.063 341.817 230.994 341.418 230.994C341.184 230.994 340.954 231.024 340.729 231.085C340.504 231.137 340.317 231.237 340.17 231.384C340.023 231.523 339.949 231.722 339.949 231.982C339.949 232.199 340.005 232.372 340.118 232.502C340.239 232.623 340.413 232.727 340.638 232.814C340.872 232.901 341.154 232.996 341.483 233.1C341.994 233.247 342.436 233.395 342.809 233.542C343.19 233.689 343.485 233.88 343.693 234.114C343.901 234.348 344.005 234.673 344.005 235.089C344.005 235.73 343.762 236.233 343.277 236.597C342.792 236.952 342.15 237.13 341.353 237.13ZM348.844 237V227.77H352.692C353.099 227.77 353.472 227.857 353.81 228.03C354.148 228.195 354.442 228.42 354.694 228.706C354.945 228.983 355.14 229.3 355.279 229.655C355.417 230.002 355.487 230.357 355.487 230.721C355.487 231.224 355.374 231.705 355.149 232.164C354.923 232.615 354.607 232.983 354.2 233.269C353.792 233.546 353.316 233.685 352.77 233.685H350.014V237H348.844ZM350.014 232.645H352.705C353.025 232.645 353.303 232.558 353.537 232.385C353.779 232.212 353.966 231.978 354.096 231.683C354.234 231.388 354.304 231.068 354.304 230.721C354.304 230.357 354.226 230.032 354.07 229.746C353.914 229.451 353.71 229.222 353.459 229.057C353.207 228.892 352.93 228.81 352.627 228.81H350.014V232.645ZM356.787 227.51H357.931V235.245C357.931 235.618 357.983 235.847 358.087 235.934C358.191 236.021 358.317 236.064 358.464 236.064C358.646 236.064 358.82 236.047 358.984 236.012C359.149 235.969 359.288 235.925 359.4 235.882L359.582 236.818C359.392 236.896 359.166 236.961 358.906 237.013C358.646 237.065 358.417 237.091 358.217 237.091C357.775 237.091 357.424 236.965 357.164 236.714C356.913 236.463 356.787 236.112 356.787 235.661V227.51ZM359.948 235.037C359.948 234.604 360.069 234.231 360.312 233.919C360.563 233.598 360.906 233.351 361.339 233.178C361.772 233.005 362.275 232.918 362.847 232.918C363.15 232.918 363.471 232.944 363.809 232.996C364.147 233.039 364.446 233.109 364.706 233.204V232.71C364.706 232.19 364.55 231.783 364.238 231.488C363.926 231.185 363.484 231.033 362.912 231.033C362.539 231.033 362.18 231.102 361.833 231.241C361.495 231.371 361.135 231.562 360.754 231.813L360.338 231.007C360.78 230.704 361.222 230.478 361.664 230.331C362.106 230.175 362.565 230.097 363.042 230.097C363.909 230.097 364.593 230.34 365.096 230.825C365.599 231.302 365.85 231.969 365.85 232.827V235.7C365.85 235.839 365.876 235.943 365.928 236.012C365.989 236.073 366.084 236.107 366.214 236.116V237C366.101 237.017 366.002 237.03 365.915 237.039C365.837 237.048 365.772 237.052 365.72 237.052C365.451 237.052 365.248 236.978 365.109 236.831C364.979 236.684 364.905 236.528 364.888 236.363L364.862 235.934C364.567 236.315 364.182 236.61 363.705 236.818C363.228 237.026 362.756 237.13 362.288 237.13C361.837 237.13 361.434 237.039 361.079 236.857C360.724 236.666 360.446 236.415 360.247 236.103C360.048 235.782 359.948 235.427 359.948 235.037ZM364.368 235.518C364.472 235.397 364.554 235.275 364.615 235.154C364.676 235.024 364.706 234.916 364.706 234.829V233.984C364.437 233.88 364.156 233.802 363.861 233.75C363.566 233.689 363.276 233.659 362.99 233.659C362.409 233.659 361.937 233.776 361.573 234.01C361.218 234.235 361.04 234.547 361.04 234.946C361.04 235.163 361.096 235.375 361.209 235.583C361.33 235.782 361.504 235.947 361.729 236.077C361.963 236.207 362.249 236.272 362.587 236.272C362.942 236.272 363.28 236.203 363.601 236.064C363.922 235.917 364.177 235.735 364.368 235.518ZM373.568 237H372.424V233.204C372.424 232.485 372.312 231.96 372.086 231.631C371.87 231.293 371.536 231.124 371.085 231.124C370.773 231.124 370.461 231.202 370.149 231.358C369.846 231.514 369.573 231.726 369.33 231.995C369.096 232.255 368.927 232.558 368.823 232.905V237H367.679V230.214H368.719V231.67C368.901 231.349 369.135 231.072 369.421 230.838C369.707 230.604 370.032 230.422 370.396 230.292C370.76 230.162 371.142 230.097 371.54 230.097C371.93 230.097 372.255 230.171 372.515 230.318C372.784 230.457 372.992 230.656 373.139 230.916C373.295 231.167 373.404 231.466 373.464 231.813C373.534 232.16 373.568 232.537 373.568 232.944V237ZM378.794 236.662C378.699 236.705 378.569 236.762 378.404 236.831C378.239 236.9 378.049 236.961 377.832 237.013C377.615 237.065 377.386 237.091 377.143 237.091C376.866 237.091 376.61 237.043 376.376 236.948C376.142 236.844 375.956 236.688 375.817 236.48C375.678 236.263 375.609 235.995 375.609 235.674V231.111H374.686V230.214H375.609V227.952H376.753V230.214H378.274V231.111H376.753V235.323C376.77 235.566 376.853 235.748 377 235.869C377.147 235.982 377.321 236.038 377.52 236.038C377.745 236.038 377.953 235.999 378.144 235.921C378.335 235.843 378.46 235.787 378.521 235.752L378.794 236.662ZM382.768 237.13C382.257 237.13 381.789 237.039 381.364 236.857C380.948 236.666 380.584 236.411 380.272 236.09C379.969 235.761 379.731 235.384 379.557 234.959C379.393 234.534 379.31 234.084 379.31 233.607C379.31 232.966 379.458 232.381 379.752 231.852C380.047 231.323 380.454 230.899 380.974 230.578C381.503 230.257 382.105 230.097 382.781 230.097C383.466 230.097 384.06 230.262 384.562 230.591C385.074 230.912 385.468 231.336 385.745 231.865C386.031 232.385 386.174 232.948 386.174 233.555C386.174 233.642 386.17 233.728 386.161 233.815C386.161 233.893 386.157 233.954 386.148 233.997H380.519C380.554 234.439 380.675 234.833 380.883 235.18C381.1 235.518 381.377 235.787 381.715 235.986C382.053 236.177 382.417 236.272 382.807 236.272C383.223 236.272 383.613 236.168 383.977 235.96C384.35 235.752 384.606 235.479 384.744 235.141L385.732 235.414C385.585 235.743 385.364 236.038 385.069 236.298C384.783 236.558 384.441 236.762 384.042 236.909C383.652 237.056 383.228 237.13 382.768 237.13ZM380.48 233.204H385.108C385.074 232.762 384.948 232.372 384.731 232.034C384.515 231.696 384.237 231.432 383.899 231.241C383.561 231.05 383.189 230.955 382.781 230.955C382.383 230.955 382.014 231.05 381.676 231.241C381.338 231.432 381.061 231.696 380.844 232.034C380.636 232.372 380.515 232.762 380.48 233.204ZM389.773 237.13C389.21 237.13 388.681 237.039 388.187 236.857C387.693 236.666 387.268 236.385 386.913 236.012L387.355 235.206C387.745 235.57 388.135 235.83 388.525 235.986C388.915 236.142 389.314 236.22 389.721 236.22C390.189 236.22 390.57 236.133 390.865 235.96C391.16 235.778 391.307 235.514 391.307 235.167C391.307 234.916 391.229 234.729 391.073 234.608C390.926 234.487 390.713 234.387 390.436 234.309C390.159 234.222 389.829 234.127 389.448 234.023C388.98 233.884 388.586 233.737 388.265 233.581C387.944 233.425 387.702 233.23 387.537 232.996C387.372 232.762 387.29 232.467 387.29 232.112C387.29 231.679 387.403 231.315 387.628 231.02C387.853 230.717 388.161 230.487 388.551 230.331C388.95 230.175 389.4 230.097 389.903 230.097C390.406 230.097 390.861 230.175 391.268 230.331C391.675 230.487 392.026 230.717 392.321 231.02L391.801 231.813C391.532 231.536 391.238 231.332 390.917 231.202C390.596 231.063 390.237 230.994 389.838 230.994C389.604 230.994 389.374 231.024 389.149 231.085C388.924 231.137 388.737 231.237 388.59 231.384C388.443 231.523 388.369 231.722 388.369 231.982C388.369 232.199 388.425 232.372 388.538 232.502C388.659 232.623 388.833 232.727 389.058 232.814C389.292 232.901 389.574 232.996 389.903 233.1C390.414 233.247 390.856 233.395 391.229 233.542C391.61 233.689 391.905 233.88 392.113 234.114C392.321 234.348 392.425 234.673 392.425 235.089C392.425 235.73 392.182 236.233 391.697 236.597C391.212 236.952 390.57 237.13 389.773 237.13Z" fill="white"/>
<path d="M181.772 126V118.9H182.672V125.2H186.632V126H181.772ZM186.93 127.42C187.017 127.427 187.104 127.433 187.19 127.44C187.277 127.453 187.344 127.46 187.39 127.46C187.497 127.46 187.59 127.423 187.67 127.35C187.75 127.277 187.837 127.133 187.93 126.92C188.03 126.713 188.157 126.407 188.31 126L186.1 120.78H187.03L188.79 125.11L190.38 120.78H191.25L188.71 127.37C188.65 127.523 188.56 127.667 188.44 127.8C188.327 127.94 188.18 128.05 188 128.13C187.82 128.21 187.604 128.25 187.35 128.25C187.29 128.25 187.227 128.247 187.16 128.24C187.1 128.233 187.024 128.22 186.93 128.2V127.42ZM194.264 126.1C193.871 126.1 193.511 126.03 193.184 125.89C192.864 125.743 192.584 125.543 192.344 125.29C192.111 125.037 191.927 124.747 191.794 124.42C191.667 124.093 191.604 123.747 191.604 123.38C191.604 122.887 191.714 122.437 191.934 122.03C192.154 121.623 192.464 121.3 192.864 121.06C193.264 120.813 193.727 120.69 194.254 120.69C194.767 120.69 195.214 120.807 195.594 121.04C195.981 121.267 196.267 121.573 196.454 121.96L195.594 122.23C195.461 121.983 195.274 121.793 195.034 121.66C194.794 121.52 194.527 121.45 194.234 121.45C193.914 121.45 193.621 121.533 193.354 121.7C193.094 121.867 192.887 122.097 192.734 122.39C192.581 122.677 192.504 123.007 192.504 123.38C192.504 123.747 192.581 124.08 192.734 124.38C192.894 124.673 193.104 124.907 193.364 125.08C193.631 125.253 193.924 125.34 194.244 125.34C194.451 125.34 194.647 125.303 194.834 125.23C195.027 125.157 195.194 125.06 195.334 124.94C195.481 124.813 195.581 124.677 195.634 124.53L196.494 124.79C196.387 125.043 196.224 125.27 196.004 125.47C195.791 125.663 195.534 125.817 195.234 125.93C194.941 126.043 194.617 126.1 194.264 126.1ZM199.752 126.1C199.359 126.1 198.999 126.03 198.672 125.89C198.352 125.743 198.072 125.547 197.832 125.3C197.599 125.047 197.416 124.757 197.282 124.43C197.156 124.103 197.092 123.757 197.092 123.39C197.092 122.897 197.206 122.447 197.432 122.04C197.659 121.633 197.972 121.307 198.372 121.06C198.779 120.813 199.242 120.69 199.762 120.69C200.289 120.69 200.746 120.817 201.132 121.07C201.526 121.317 201.829 121.643 202.042 122.05C202.262 122.45 202.372 122.883 202.372 123.35C202.372 123.417 202.369 123.483 202.362 123.55C202.362 123.61 202.359 123.657 202.352 123.69H198.022C198.049 124.03 198.142 124.333 198.302 124.6C198.469 124.86 198.682 125.067 198.942 125.22C199.202 125.367 199.482 125.44 199.782 125.44C200.102 125.44 200.402 125.36 200.682 125.2C200.969 125.04 201.166 124.83 201.272 124.57L202.032 124.78C201.919 125.033 201.749 125.26 201.522 125.46C201.302 125.66 201.039 125.817 200.732 125.93C200.432 126.043 200.106 126.1 199.752 126.1ZM197.992 123.08H201.552C201.526 122.74 201.429 122.44 201.262 122.18C201.096 121.92 200.882 121.717 200.622 121.57C200.362 121.423 200.076 121.35 199.762 121.35C199.456 121.35 199.172 121.423 198.912 121.57C198.652 121.717 198.439 121.92 198.272 122.18C198.112 122.44 198.019 122.74 197.992 123.08ZM200.032 119.91L199.452 119.71L200.032 118.7H200.912L200.032 119.91ZM205.661 126.1C205.267 126.1 204.907 126.03 204.581 125.89C204.261 125.743 203.981 125.547 203.741 125.3C203.507 125.047 203.324 124.757 203.191 124.43C203.064 124.103 203.001 123.757 203.001 123.39C203.001 122.897 203.114 122.447 203.341 122.04C203.567 121.633 203.881 121.307 204.281 121.06C204.687 120.813 205.151 120.69 205.671 120.69C206.197 120.69 206.654 120.817 207.041 121.07C207.434 121.317 207.737 121.643 207.951 122.05C208.171 122.45 208.281 122.883 208.281 123.35C208.281 123.417 208.277 123.483 208.271 123.55C208.271 123.61 208.267 123.657 208.261 123.69H203.931C203.957 124.03 204.051 124.333 204.211 124.6C204.377 124.86 204.591 125.067 204.851 125.22C205.111 125.367 205.391 125.44 205.691 125.44C206.011 125.44 206.311 125.36 206.591 125.2C206.877 125.04 207.074 124.83 207.181 124.57L207.941 124.78C207.827 125.033 207.657 125.26 207.431 125.46C207.211 125.66 206.947 125.817 206.641 125.93C206.341 126.043 206.014 126.1 205.661 126.1ZM203.901 123.08H207.461C207.434 122.74 207.337 122.44 207.171 122.18C207.004 121.92 206.791 121.717 206.531 121.57C206.271 121.423 205.984 121.35 205.671 121.35C205.364 121.35 205.081 121.423 204.821 121.57C204.561 121.717 204.347 121.92 204.181 122.18C204.021 122.44 203.927 122.74 203.901 123.08ZM153.459 136.94C153.586 137.027 153.759 137.11 153.979 137.19C154.206 137.263 154.473 137.3 154.779 137.3C155.093 137.3 155.349 137.25 155.549 137.15C155.749 137.043 155.903 136.887 156.009 136.68C156.116 136.467 156.189 136.197 156.229 135.87C156.269 135.543 156.289 135.157 156.289 134.71V130.9H157.189V134.51C157.189 135.037 157.163 135.52 157.109 135.96C157.056 136.4 156.949 136.783 156.789 137.11C156.629 137.43 156.389 137.677 156.069 137.85C155.756 138.023 155.336 138.11 154.809 138.11C154.476 138.11 154.183 138.073 153.929 138C153.676 137.927 153.443 137.817 153.229 137.67L153.459 136.94ZM160.865 138.1C160.472 138.1 160.115 138.03 159.795 137.89C159.475 137.743 159.198 137.547 158.965 137.3C158.732 137.047 158.552 136.757 158.425 136.43C158.298 136.103 158.235 135.76 158.235 135.4C158.235 135.033 158.298 134.687 158.425 134.36C158.552 134.033 158.732 133.747 158.965 133.5C159.198 133.247 159.475 133.05 159.795 132.91C160.122 132.763 160.478 132.69 160.865 132.69C161.258 132.69 161.615 132.763 161.935 132.91C162.255 133.05 162.532 133.247 162.765 133.5C163.005 133.747 163.188 134.033 163.315 134.36C163.442 134.687 163.505 135.033 163.505 135.4C163.505 135.76 163.442 136.103 163.315 136.43C163.188 136.757 163.008 137.047 162.775 137.3C162.542 137.547 162.262 137.743 161.935 137.89C161.615 138.03 161.258 138.1 160.865 138.1ZM159.135 135.41C159.135 135.77 159.212 136.097 159.365 136.39C159.525 136.683 159.735 136.917 159.995 137.09C160.255 137.257 160.545 137.34 160.865 137.34C161.185 137.34 161.475 137.253 161.735 137.08C162.002 136.907 162.212 136.673 162.365 136.38C162.525 136.08 162.605 135.75 162.605 135.39C162.605 135.03 162.525 134.703 162.365 134.41C162.212 134.117 162.002 133.883 161.735 133.71C161.475 133.537 161.185 133.45 160.865 133.45C160.545 133.45 160.255 133.54 159.995 133.72C159.735 133.893 159.525 134.127 159.365 134.42C159.212 134.713 159.135 135.043 159.135 135.41ZM164.161 136.49C164.161 136.157 164.255 135.87 164.441 135.63C164.635 135.383 164.898 135.193 165.231 135.06C165.565 134.927 165.951 134.86 166.391 134.86C166.625 134.86 166.871 134.88 167.131 134.92C167.391 134.953 167.621 135.007 167.821 135.08V134.7C167.821 134.3 167.701 133.987 167.461 133.76C167.221 133.527 166.881 133.41 166.441 133.41C166.155 133.41 165.878 133.463 165.611 133.57C165.351 133.67 165.075 133.817 164.781 134.01L164.461 133.39C164.801 133.157 165.141 132.983 165.481 132.87C165.821 132.75 166.175 132.69 166.541 132.69C167.208 132.69 167.735 132.877 168.121 133.25C168.508 133.617 168.701 134.13 168.701 134.79V137C168.701 137.107 168.721 137.187 168.761 137.24C168.808 137.287 168.881 137.313 168.981 137.32V138C168.895 138.013 168.818 138.023 168.751 138.03C168.691 138.037 168.641 138.04 168.601 138.04C168.395 138.04 168.238 137.983 168.131 137.87C168.031 137.757 167.975 137.637 167.961 137.51L167.941 137.18C167.715 137.473 167.418 137.7 167.051 137.86C166.685 138.02 166.321 138.1 165.961 138.1C165.615 138.1 165.305 138.03 165.031 137.89C164.758 137.743 164.545 137.55 164.391 137.31C164.238 137.063 164.161 136.79 164.161 136.49ZM167.561 136.86C167.641 136.767 167.705 136.673 167.751 136.58C167.798 136.48 167.821 136.397 167.821 136.33V135.68C167.615 135.6 167.398 135.54 167.171 135.5C166.945 135.453 166.721 135.43 166.501 135.43C166.055 135.43 165.691 135.52 165.411 135.7C165.138 135.873 165.001 136.113 165.001 136.42C165.001 136.587 165.045 136.75 165.131 136.91C165.225 137.063 165.358 137.19 165.531 137.29C165.711 137.39 165.931 137.44 166.191 137.44C166.465 137.44 166.725 137.387 166.971 137.28C167.218 137.167 167.415 137.027 167.561 136.86ZM172.418 138.1C172.025 138.1 171.665 138.03 171.338 137.89C171.018 137.743 170.738 137.543 170.498 137.29C170.265 137.037 170.082 136.747 169.948 136.42C169.822 136.093 169.758 135.747 169.758 135.38C169.758 134.887 169.868 134.437 170.088 134.03C170.308 133.623 170.618 133.3 171.018 133.06C171.418 132.813 171.882 132.69 172.408 132.69C172.922 132.69 173.368 132.807 173.748 133.04C174.135 133.267 174.422 133.573 174.608 133.96L173.748 134.23C173.615 133.983 173.428 133.793 173.188 133.66C172.948 133.52 172.682 133.45 172.388 133.45C172.068 133.45 171.775 133.533 171.508 133.7C171.248 133.867 171.042 134.097 170.888 134.39C170.735 134.677 170.658 135.007 170.658 135.38C170.658 135.747 170.735 136.08 170.888 136.38C171.048 136.673 171.258 136.907 171.518 137.08C171.785 137.253 172.078 137.34 172.398 137.34C172.605 137.34 172.802 137.303 172.988 137.23C173.182 137.157 173.348 137.06 173.488 136.94C173.635 136.813 173.735 136.677 173.788 136.53L174.648 136.79C174.542 137.043 174.378 137.27 174.158 137.47C173.945 137.663 173.688 137.817 173.388 137.93C173.095 138.043 172.772 138.1 172.418 138.1ZM180.176 138H179.296V135.08C179.296 134.547 179.199 134.147 179.006 133.88C178.819 133.613 178.549 133.48 178.196 133.48C177.969 133.48 177.739 133.54 177.506 133.66C177.279 133.78 177.079 133.943 176.906 134.15C176.732 134.35 176.606 134.583 176.526 134.85V138H175.646V130.7H176.526V133.9C176.732 133.527 177.012 133.233 177.366 133.02C177.726 132.8 178.112 132.69 178.526 132.69C178.839 132.69 179.099 132.747 179.306 132.86C179.519 132.967 179.689 133.12 179.816 133.32C179.942 133.52 180.032 133.753 180.086 134.02C180.146 134.28 180.176 134.567 180.176 134.88V138ZM181.544 138V132.78H182.424V138H181.544ZM181.544 131.8V130.7H182.424V131.8H181.544ZM191.719 138H190.839V135.08C190.839 134.533 190.749 134.13 190.569 133.87C190.395 133.61 190.135 133.48 189.789 133.48C189.435 133.48 189.115 133.61 188.829 133.87C188.542 134.123 188.339 134.453 188.219 134.86V138H187.339V135.08C187.339 134.527 187.252 134.123 187.079 133.87C186.905 133.61 186.645 133.48 186.299 133.48C185.952 133.48 185.632 133.607 185.339 133.86C185.052 134.107 184.849 134.437 184.729 134.85V138H183.849V132.78H184.649V133.9C184.862 133.513 185.139 133.217 185.479 133.01C185.819 132.797 186.202 132.69 186.629 132.69C187.062 132.69 187.409 132.81 187.669 133.05C187.929 133.283 188.089 133.587 188.149 133.96C188.382 133.547 188.665 133.233 188.999 133.02C189.332 132.8 189.712 132.69 190.139 132.69C190.439 132.69 190.689 132.747 190.889 132.86C191.095 132.967 191.259 133.12 191.379 133.32C191.499 133.513 191.585 133.743 191.639 134.01C191.692 134.277 191.719 134.567 191.719 134.88V138ZM195.276 135.4C195.276 134.907 195.376 134.457 195.576 134.05C195.783 133.637 196.063 133.307 196.416 133.06C196.776 132.813 197.186 132.69 197.646 132.69C198.066 132.69 198.443 132.8 198.776 133.02C199.11 133.24 199.37 133.507 199.556 133.82V130.7H200.436V137C200.436 137.107 200.456 137.187 200.496 137.24C200.543 137.287 200.616 137.313 200.716 137.32V138C200.55 138.027 200.42 138.04 200.326 138.04C200.153 138.04 200 137.98 199.866 137.86C199.74 137.74 199.676 137.607 199.676 137.46V137.02C199.47 137.353 199.193 137.617 198.846 137.81C198.5 138.003 198.14 138.1 197.766 138.1C197.406 138.1 197.073 138.03 196.766 137.89C196.466 137.743 196.203 137.543 195.976 137.29C195.756 137.037 195.583 136.75 195.456 136.43C195.336 136.103 195.276 135.76 195.276 135.4ZM199.556 136.17V134.67C199.476 134.443 199.346 134.24 199.166 134.06C198.986 133.873 198.783 133.727 198.556 133.62C198.336 133.507 198.116 133.45 197.896 133.45C197.636 133.45 197.4 133.507 197.186 133.62C196.98 133.727 196.8 133.873 196.646 134.06C196.5 134.24 196.386 134.447 196.306 134.68C196.226 134.913 196.186 135.157 196.186 135.41C196.186 135.67 196.23 135.917 196.316 136.15C196.41 136.383 196.536 136.59 196.696 136.77C196.863 136.95 197.053 137.09 197.266 137.19C197.486 137.29 197.723 137.34 197.976 137.34C198.136 137.34 198.3 137.31 198.466 137.25C198.64 137.19 198.803 137.107 198.956 137C199.11 136.893 199.24 136.77 199.346 136.63C199.453 136.483 199.523 136.33 199.556 136.17ZM201.855 135.91V132.78H202.735V135.74C202.735 136.273 202.829 136.673 203.015 136.94C203.202 137.207 203.479 137.34 203.845 137.34C204.085 137.34 204.315 137.29 204.535 137.19C204.762 137.083 204.965 136.933 205.145 136.74C205.325 136.547 205.465 136.317 205.565 136.05V132.78H206.445V137C206.445 137.107 206.465 137.187 206.505 137.24C206.552 137.287 206.625 137.313 206.725 137.32V138C206.625 138.013 206.545 138.02 206.485 138.02C206.432 138.027 206.379 138.03 206.325 138.03C206.159 138.03 206.015 137.98 205.895 137.88C205.775 137.773 205.712 137.643 205.705 137.49L205.685 136.88C205.459 137.267 205.152 137.567 204.765 137.78C204.385 137.993 203.969 138.1 203.515 138.1C202.969 138.1 202.555 137.917 202.275 137.55C201.995 137.177 201.855 136.63 201.855 135.91ZM216.03 136.17C216.03 136.537 215.937 136.857 215.75 137.13C215.564 137.403 215.31 137.617 214.99 137.77C214.677 137.923 214.33 138 213.95 138H210.58V130.9H214.11C214.444 130.9 214.73 130.99 214.97 131.17C215.217 131.343 215.404 131.57 215.53 131.85C215.664 132.123 215.73 132.41 215.73 132.71C215.73 133.057 215.64 133.383 215.46 133.69C215.287 133.99 215.037 134.213 214.71 134.36C215.117 134.48 215.437 134.703 215.67 135.03C215.91 135.35 216.03 135.73 216.03 136.17ZM215.12 136.01C215.12 135.79 215.07 135.587 214.97 135.4C214.877 135.213 214.747 135.063 214.58 134.95C214.42 134.837 214.234 134.78 214.02 134.78H211.48V137.22H213.95C214.17 137.22 214.367 137.163 214.54 137.05C214.72 136.937 214.86 136.79 214.96 136.61C215.067 136.423 215.12 136.223 215.12 136.01ZM211.48 131.68V134.05H213.74C213.954 134.05 214.14 133.997 214.3 133.89C214.467 133.783 214.597 133.64 214.69 133.46C214.79 133.28 214.84 133.083 214.84 132.87C214.84 132.643 214.794 132.443 214.7 132.27C214.614 132.09 214.49 131.947 214.33 131.84C214.177 131.733 214 131.68 213.8 131.68H211.48ZM219.459 138.1C219.066 138.1 218.706 138.03 218.379 137.89C218.059 137.743 217.779 137.547 217.539 137.3C217.306 137.047 217.123 136.757 216.989 136.43C216.863 136.103 216.799 135.757 216.799 135.39C216.799 134.897 216.913 134.447 217.139 134.04C217.366 133.633 217.679 133.307 218.079 133.06C218.486 132.813 218.949 132.69 219.469 132.69C219.996 132.69 220.453 132.817 220.839 133.07C221.233 133.317 221.536 133.643 221.749 134.05C221.969 134.45 222.079 134.883 222.079 135.35C222.079 135.417 222.076 135.483 222.069 135.55C222.069 135.61 222.066 135.657 222.059 135.69H217.729C217.756 136.03 217.849 136.333 218.009 136.6C218.176 136.86 218.389 137.067 218.649 137.22C218.909 137.367 219.189 137.44 219.489 137.44C219.809 137.44 220.109 137.36 220.389 137.2C220.676 137.04 220.873 136.83 220.979 136.57L221.739 136.78C221.626 137.033 221.456 137.26 221.229 137.46C221.009 137.66 220.746 137.817 220.439 137.93C220.139 138.043 219.813 138.1 219.459 138.1ZM217.699 135.08H221.259C221.233 134.74 221.136 134.44 220.969 134.18C220.803 133.92 220.589 133.717 220.329 133.57C220.069 133.423 219.783 133.35 219.469 133.35C219.163 133.35 218.879 133.423 218.619 133.57C218.359 133.717 218.146 133.92 217.979 134.18C217.819 134.44 217.726 134.74 217.699 135.08ZM223.078 130.7H223.958V136.65C223.958 136.937 223.998 137.113 224.078 137.18C224.158 137.247 224.254 137.28 224.368 137.28C224.508 137.28 224.641 137.267 224.768 137.24C224.894 137.207 225.001 137.173 225.088 137.14L225.228 137.86C225.081 137.92 224.908 137.97 224.708 138.01C224.508 138.05 224.331 138.07 224.178 138.07C223.838 138.07 223.568 137.973 223.368 137.78C223.174 137.587 223.078 137.317 223.078 136.97V130.7ZM225.939 130.7H226.819V136.65C226.819 136.937 226.859 137.113 226.939 137.18C227.019 137.247 227.116 137.28 227.229 137.28C227.369 137.28 227.502 137.267 227.629 137.24C227.756 137.207 227.862 137.173 227.949 137.14L228.089 137.86C227.942 137.92 227.769 137.97 227.569 138.01C227.369 138.05 227.192 138.07 227.039 138.07C226.699 138.07 226.429 137.973 226.229 137.78C226.036 137.587 225.939 137.317 225.939 136.97V130.7ZM228.37 136.49C228.37 136.157 228.464 135.87 228.65 135.63C228.844 135.383 229.107 135.193 229.44 135.06C229.774 134.927 230.16 134.86 230.6 134.86C230.834 134.86 231.08 134.88 231.34 134.92C231.6 134.953 231.83 135.007 232.03 135.08V134.7C232.03 134.3 231.91 133.987 231.67 133.76C231.43 133.527 231.09 133.41 230.65 133.41C230.364 133.41 230.087 133.463 229.82 133.57C229.56 133.67 229.284 133.817 228.99 134.01L228.67 133.39C229.01 133.157 229.35 132.983 229.69 132.87C230.03 132.75 230.384 132.69 230.75 132.69C231.417 132.69 231.944 132.877 232.33 133.25C232.717 133.617 232.91 134.13 232.91 134.79V137C232.91 137.107 232.93 137.187 232.97 137.24C233.017 137.287 233.09 137.313 233.19 137.32V138C233.104 138.013 233.027 138.023 232.96 138.03C232.9 138.037 232.85 138.04 232.81 138.04C232.604 138.04 232.447 137.983 232.34 137.87C232.24 137.757 232.184 137.637 232.17 137.51L232.15 137.18C231.924 137.473 231.627 137.7 231.26 137.86C230.894 138.02 230.53 138.1 230.17 138.1C229.824 138.1 229.514 138.03 229.24 137.89C228.967 137.743 228.754 137.55 228.6 137.31C228.447 137.063 228.37 136.79 228.37 136.49ZM231.77 136.86C231.85 136.767 231.914 136.673 231.96 136.58C232.007 136.48 232.03 136.397 232.03 136.33V135.68C231.824 135.6 231.607 135.54 231.38 135.5C231.154 135.453 230.93 135.43 230.71 135.43C230.264 135.43 229.9 135.52 229.62 135.7C229.347 135.873 229.21 136.113 229.21 136.42C229.21 136.587 229.254 136.75 229.34 136.91C229.434 137.063 229.567 137.19 229.74 137.29C229.92 137.39 230.14 137.44 230.4 137.44C230.674 137.44 230.934 137.387 231.18 137.28C231.427 137.167 231.624 137.027 231.77 136.86ZM234.391 139.42C234.478 139.427 234.565 139.433 234.651 139.44C234.738 139.453 234.805 139.46 234.851 139.46C234.958 139.46 235.051 139.423 235.131 139.35C235.211 139.277 235.298 139.133 235.391 138.92C235.491 138.713 235.618 138.407 235.771 138L233.561 132.78H234.491L236.251 137.11L237.841 132.78H238.711L236.171 139.37C236.111 139.523 236.021 139.667 235.901 139.8C235.788 139.94 235.641 140.05 235.461 140.13C235.281 140.21 235.065 140.25 234.811 140.25C234.751 140.25 234.688 140.247 234.621 140.24C234.561 140.233 234.485 140.22 234.391 140.2V139.42Z" fill="white"/>
<rect x="10" y="17" width="755" height="731" stroke="#223B2D" stroke-width="20"/>
<rect x="10" y="17" width="755" height="731" stroke="#223B2D" stroke-width="20"/>
<path d="M371.219 590V581.48H374.771C375.147 581.48 375.491 581.56 375.803 581.72C376.115 581.872 376.387 582.08 376.619 582.344C376.851 582.6 377.031 582.892 377.159 583.22C377.287 583.54 377.351 583.868 377.351 584.204C377.351 584.668 377.247 585.112 377.039 585.536C376.831 585.952 376.539 586.292 376.163 586.556C375.787 586.812 375.347 586.94 374.843 586.94H372.299V590H371.219ZM372.299 585.98H374.783C375.079 585.98 375.335 585.9 375.551 585.74C375.775 585.58 375.947 585.364 376.067 585.092C376.195 584.82 376.259 584.524 376.259 584.204C376.259 583.868 376.187 583.568 376.043 583.304C375.899 583.032 375.711 582.82 375.479 582.668C375.247 582.516 374.991 582.44 374.711 582.44H372.299V585.98ZM377.965 588.188C377.965 587.788 378.077 587.444 378.301 587.156C378.533 586.86 378.849 586.632 379.249 586.472C379.649 586.312 380.113 586.232 380.641 586.232C380.921 586.232 381.217 586.256 381.529 586.304C381.841 586.344 382.117 586.408 382.357 586.496V586.04C382.357 585.56 382.213 585.184 381.925 584.912C381.637 584.632 381.229 584.492 380.701 584.492C380.357 584.492 380.025 584.556 379.705 584.684C379.393 584.804 379.061 584.98 378.709 585.212L378.325 584.468C378.733 584.188 379.141 583.98 379.549 583.844C379.957 583.7 380.381 583.628 380.821 583.628C381.621 583.628 382.253 583.852 382.717 584.3C383.181 584.74 383.413 585.356 383.413 586.148V588.8C383.413 588.928 383.437 589.024 383.485 589.088C383.541 589.144 383.629 589.176 383.749 589.184V590C383.645 590.016 383.553 590.028 383.473 590.036C383.401 590.044 383.341 590.048 383.293 590.048C383.045 590.048 382.857 589.98 382.729 589.844C382.609 589.708 382.541 589.564 382.525 589.412L382.501 589.016C382.229 589.368 381.873 589.64 381.433 589.832C380.993 590.024 380.557 590.12 380.125 590.12C379.709 590.12 379.337 590.036 379.009 589.868C378.681 589.692 378.425 589.46 378.241 589.172C378.057 588.876 377.965 588.548 377.965 588.188ZM382.045 588.632C382.141 588.52 382.217 588.408 382.273 588.296C382.329 588.176 382.357 588.076 382.357 587.996V587.216C382.109 587.12 381.849 587.048 381.577 587C381.305 586.944 381.037 586.916 380.773 586.916C380.237 586.916 379.801 587.024 379.465 587.24C379.137 587.448 378.973 587.736 378.973 588.104C378.973 588.304 379.025 588.5 379.129 588.692C379.241 588.876 379.401 589.028 379.609 589.148C379.825 589.268 380.089 589.328 380.401 589.328C380.729 589.328 381.041 589.264 381.337 589.136C381.633 589 381.869 588.832 382.045 588.632ZM385.126 581.24H386.182V588.38C386.182 588.724 386.23 588.936 386.326 589.016C386.422 589.096 386.538 589.136 386.674 589.136C386.842 589.136 387.002 589.12 387.154 589.088C387.306 589.048 387.434 589.008 387.538 588.968L387.706 589.832C387.53 589.904 387.322 589.964 387.082 590.012C386.842 590.06 386.63 590.084 386.446 590.084C386.038 590.084 385.714 589.968 385.474 589.736C385.242 589.504 385.126 589.18 385.126 588.764V581.24ZM388.044 588.188C388.044 587.788 388.156 587.444 388.38 587.156C388.612 586.86 388.928 586.632 389.328 586.472C389.728 586.312 390.192 586.232 390.72 586.232C391 586.232 391.296 586.256 391.608 586.304C391.92 586.344 392.196 586.408 392.436 586.496V586.04C392.436 585.56 392.292 585.184 392.004 584.912C391.716 584.632 391.308 584.492 390.78 584.492C390.436 584.492 390.104 584.556 389.784 584.684C389.472 584.804 389.14 584.98 388.788 585.212L388.404 584.468C388.812 584.188 389.22 583.98 389.628 583.844C390.036 583.7 390.46 583.628 390.9 583.628C391.7 583.628 392.332 583.852 392.796 584.3C393.26 584.74 393.492 585.356 393.492 586.148V588.8C393.492 588.928 393.516 589.024 393.564 589.088C393.62 589.144 393.708 589.176 393.828 589.184V590C393.724 590.016 393.632 590.028 393.552 590.036C393.48 590.044 393.42 590.048 393.372 590.048C393.124 590.048 392.936 589.98 392.808 589.844C392.688 589.708 392.62 589.564 392.604 589.412L392.58 589.016C392.308 589.368 391.952 589.64 391.512 589.832C391.072 590.024 390.636 590.12 390.204 590.12C389.788 590.12 389.416 590.036 389.088 589.868C388.76 589.692 388.504 589.46 388.32 589.172C388.136 588.876 388.044 588.548 388.044 588.188ZM392.124 588.632C392.22 588.52 392.296 588.408 392.352 588.296C392.408 588.176 392.436 588.076 392.436 587.996V587.216C392.188 587.12 391.928 587.048 391.656 587C391.384 586.944 391.116 586.916 390.852 586.916C390.316 586.916 389.88 587.024 389.544 587.24C389.216 587.448 389.052 587.736 389.052 588.104C389.052 588.304 389.104 588.5 389.208 588.692C389.32 588.876 389.48 589.028 389.688 589.148C389.904 589.268 390.168 589.328 390.48 589.328C390.808 589.328 391.12 589.264 391.416 589.136C391.712 589 391.948 588.832 392.124 588.632ZM395.18 590V583.736H396.236V590H395.18ZM395.18 582.56V581.24H396.236V582.56H395.18ZM400.094 590.12C399.574 590.12 399.086 590.036 398.63 589.868C398.174 589.692 397.782 589.432 397.454 589.088L397.862 588.344C398.222 588.68 398.582 588.92 398.942 589.064C399.302 589.208 399.67 589.28 400.046 589.28C400.478 589.28 400.83 589.2 401.102 589.04C401.374 588.872 401.51 588.628 401.51 588.308C401.51 588.076 401.438 587.904 401.294 587.792C401.158 587.68 400.962 587.588 400.706 587.516C400.45 587.436 400.146 587.348 399.794 587.252C399.362 587.124 398.998 586.988 398.702 586.844C398.406 586.7 398.182 586.52 398.03 586.304C397.878 586.088 397.802 585.816 397.802 585.488C397.802 585.088 397.906 584.752 398.114 584.48C398.322 584.2 398.606 583.988 398.966 583.844C399.334 583.7 399.75 583.628 400.214 583.628C400.678 583.628 401.098 583.7 401.474 583.844C401.85 583.988 402.174 584.2 402.446 584.48L401.966 585.212C401.718 584.956 401.446 584.768 401.15 584.648C400.854 584.52 400.522 584.456 400.154 584.456C399.938 584.456 399.726 584.484 399.518 584.54C399.31 584.588 399.138 584.68 399.002 584.816C398.866 584.944 398.798 585.128 398.798 585.368C398.798 585.568 398.85 585.728 398.954 585.848C399.066 585.96 399.226 586.056 399.434 586.136C399.65 586.216 399.91 586.304 400.214 586.4C400.686 586.536 401.094 586.672 401.438 586.808C401.79 586.944 402.062 587.12 402.254 587.336C402.446 587.552 402.542 587.852 402.542 588.236C402.542 588.828 402.318 589.292 401.87 589.628C401.422 589.956 400.83 590.12 400.094 590.12ZM406.432 586.88C406.432 586.288 406.552 585.748 406.792 585.26C407.04 584.764 407.376 584.368 407.8 584.072C408.232 583.776 408.724 583.628 409.276 583.628C409.78 583.628 410.232 583.76 410.632 584.024C411.032 584.288 411.344 584.608 411.568 584.984V581.24H412.624V588.8C412.624 588.928 412.648 589.024 412.696 589.088C412.752 589.144 412.84 589.176 412.96 589.184V590C412.76 590.032 412.604 590.048 412.492 590.048C412.284 590.048 412.1 589.976 411.94 589.832C411.788 589.688 411.712 589.528 411.712 589.352V588.824C411.464 589.224 411.132 589.54 410.716 589.772C410.3 590.004 409.868 590.12 409.42 590.12C408.988 590.12 408.588 590.036 408.22 589.868C407.86 589.692 407.544 589.452 407.272 589.148C407.008 588.844 406.8 588.5 406.648 588.116C406.504 587.724 406.432 587.312 406.432 586.88ZM411.568 587.804V586.004C411.472 585.732 411.316 585.488 411.1 585.272C410.884 585.048 410.64 584.872 410.368 584.744C410.104 584.608 409.84 584.54 409.576 584.54C409.264 584.54 408.98 584.608 408.724 584.744C408.476 584.872 408.26 585.048 408.076 585.272C407.9 585.488 407.764 585.736 407.668 586.016C407.572 586.296 407.524 586.588 407.524 586.892C407.524 587.204 407.576 587.5 407.68 587.78C407.792 588.06 407.944 588.308 408.136 588.524C408.336 588.74 408.564 588.908 408.82 589.028C409.084 589.148 409.368 589.208 409.672 589.208C409.864 589.208 410.06 589.172 410.26 589.1C410.468 589.028 410.664 588.928 410.848 588.8C411.032 588.672 411.188 588.524 411.316 588.356C411.444 588.18 411.528 587.996 411.568 587.804ZM417.159 590.12C416.687 590.12 416.255 590.036 415.863 589.868C415.479 589.692 415.143 589.456 414.855 589.16C414.575 588.856 414.355 588.508 414.195 588.116C414.043 587.724 413.967 587.308 413.967 586.868C413.967 586.276 414.103 585.736 414.375 585.248C414.647 584.76 415.023 584.368 415.503 584.072C415.991 583.776 416.547 583.628 417.171 583.628C417.803 583.628 418.351 583.78 418.815 584.084C419.287 584.38 419.651 584.772 419.907 585.26C420.171 585.74 420.303 586.26 420.303 586.82C420.303 586.9 420.299 586.98 420.291 587.06C420.291 587.132 420.287 587.188 420.279 587.228H415.083C415.115 587.636 415.227 588 415.419 588.32C415.619 588.632 415.875 588.88 416.187 589.064C416.499 589.24 416.835 589.328 417.195 589.328C417.579 589.328 417.939 589.232 418.275 589.04C418.619 588.848 418.855 588.596 418.983 588.284L419.895 588.536C419.759 588.84 419.555 589.112 419.283 589.352C419.019 589.592 418.703 589.78 418.335 589.916C417.975 590.052 417.583 590.12 417.159 590.12ZM415.047 586.496H419.319C419.287 586.088 419.171 585.728 418.971 585.416C418.771 585.104 418.515 584.86 418.203 584.684C417.891 584.508 417.547 584.42 417.171 584.42C416.803 584.42 416.463 584.508 416.151 584.684C415.839 584.86 415.583 585.104 415.383 585.416C415.191 585.728 415.079 586.088 415.047 586.496ZM423.752 588.728C423.904 588.832 424.112 588.932 424.376 589.028C424.648 589.116 424.968 589.16 425.336 589.16C425.712 589.16 426.02 589.1 426.26 588.98C426.5 588.852 426.684 588.664 426.812 588.416C426.94 588.16 427.028 587.836 427.076 587.444C427.124 587.052 427.148 586.588 427.148 586.052V581.48H428.228V585.812C428.228 586.444 428.196 587.024 428.132 587.552C428.068 588.08 427.94 588.54 427.748 588.932C427.556 589.316 427.268 589.612 426.884 589.82C426.508 590.028 426.004 590.132 425.372 590.132C424.972 590.132 424.62 590.088 424.316 590C424.012 589.912 423.732 589.78 423.476 589.604L423.752 588.728ZM429.866 587.492V583.736H430.922V587.288C430.922 587.928 431.034 588.408 431.258 588.728C431.482 589.048 431.814 589.208 432.254 589.208C432.542 589.208 432.818 589.148 433.082 589.028C433.354 588.9 433.598 588.72 433.814 588.488C434.03 588.256 434.198 587.98 434.318 587.66V583.736H435.374V588.8C435.374 588.928 435.398 589.024 435.446 589.088C435.502 589.144 435.59 589.176 435.71 589.184V590C435.59 590.016 435.494 590.024 435.422 590.024C435.358 590.032 435.294 590.036 435.23 590.036C435.03 590.036 434.858 589.976 434.714 589.856C434.57 589.728 434.494 589.572 434.486 589.388L434.462 588.656C434.19 589.12 433.822 589.48 433.358 589.736C432.902 589.992 432.402 590.12 431.858 590.12C431.202 590.12 430.706 589.9 430.37 589.46C430.034 589.012 429.866 588.356 429.866 587.492ZM439.281 590.12C438.761 590.12 438.273 590.036 437.817 589.868C437.361 589.692 436.969 589.432 436.641 589.088L437.049 588.344C437.409 588.68 437.769 588.92 438.129 589.064C438.489 589.208 438.857 589.28 439.233 589.28C439.665 589.28 440.017 589.2 440.289 589.04C440.561 588.872 440.697 588.628 440.697 588.308C440.697 588.076 440.625 587.904 440.481 587.792C440.345 587.68 440.149 587.588 439.893 587.516C439.637 587.436 439.333 587.348 438.981 587.252C438.549 587.124 438.185 586.988 437.889 586.844C437.593 586.7 437.369 586.52 437.217 586.304C437.065 586.088 436.989 585.816 436.989 585.488C436.989 585.088 437.093 584.752 437.301 584.48C437.509 584.2 437.793 583.988 438.153 583.844C438.521 583.7 438.937 583.628 439.401 583.628C439.865 583.628 440.285 583.7 440.661 583.844C441.037 583.988 441.361 584.2 441.633 584.48L441.153 585.212C440.905 584.956 440.633 584.768 440.337 584.648C440.041 584.52 439.709 584.456 439.341 584.456C439.125 584.456 438.913 584.484 438.705 584.54C438.497 584.588 438.325 584.68 438.189 584.816C438.053 584.944 437.985 585.128 437.985 585.368C437.985 585.568 438.037 585.728 438.141 585.848C438.253 585.96 438.413 586.056 438.621 586.136C438.837 586.216 439.097 586.304 439.401 586.4C439.873 586.536 440.281 586.672 440.625 586.808C440.977 586.944 441.249 587.12 441.441 587.336C441.633 587.552 441.729 587.852 441.729 588.236C441.729 588.828 441.505 589.292 441.057 589.628C440.609 589.956 440.017 590.12 439.281 590.12ZM446.233 589.688C446.145 589.728 446.025 589.78 445.873 589.844C445.721 589.908 445.545 589.964 445.345 590.012C445.145 590.06 444.933 590.084 444.709 590.084C444.453 590.084 444.217 590.04 444.001 589.952C443.785 589.856 443.613 589.712 443.485 589.52C443.357 589.32 443.293 589.072 443.293 588.776V584.564H442.441V583.736H443.293V581.648H444.349V583.736H445.753V584.564H444.349V588.452C444.365 588.676 444.441 588.844 444.577 588.956C444.713 589.06 444.873 589.112 445.057 589.112C445.265 589.112 445.457 589.076 445.633 589.004C445.809 588.932 445.925 588.88 445.981 588.848L446.233 589.688ZM447.211 590V583.736H448.267V590H447.211ZM447.211 582.56V581.24H448.267V582.56H447.211ZM452.749 590.12C452.277 590.12 451.845 590.036 451.453 589.868C451.069 589.692 450.733 589.452 450.445 589.148C450.165 588.844 449.945 588.496 449.785 588.104C449.633 587.712 449.557 587.296 449.557 586.856C449.557 586.264 449.689 585.724 449.953 585.236C450.217 584.748 450.589 584.36 451.069 584.072C451.549 583.776 452.105 583.628 452.737 583.628C453.353 583.628 453.889 583.768 454.345 584.048C454.809 584.32 455.153 584.688 455.377 585.152L454.345 585.476C454.185 585.18 453.961 584.952 453.673 584.792C453.385 584.624 453.065 584.54 452.713 584.54C452.329 584.54 451.977 584.64 451.657 584.84C451.345 585.04 451.097 585.316 450.913 585.668C450.729 586.012 450.637 586.408 450.637 586.856C450.637 587.296 450.729 587.696 450.913 588.056C451.105 588.408 451.357 588.688 451.669 588.896C451.989 589.104 452.341 589.208 452.725 589.208C452.973 589.208 453.209 589.164 453.433 589.076C453.665 588.988 453.865 588.872 454.033 588.728C454.209 588.576 454.329 588.412 454.393 588.236L455.425 588.548C455.297 588.852 455.101 589.124 454.837 589.364C454.581 589.596 454.273 589.78 453.913 589.916C453.561 590.052 453.173 590.12 452.749 590.12ZM459.335 590.12C458.863 590.12 458.431 590.036 458.039 589.868C457.655 589.692 457.319 589.456 457.031 589.16C456.751 588.856 456.531 588.508 456.371 588.116C456.219 587.724 456.143 587.308 456.143 586.868C456.143 586.276 456.279 585.736 456.551 585.248C456.823 584.76 457.199 584.368 457.679 584.072C458.167 583.776 458.723 583.628 459.347 583.628C459.979 583.628 460.527 583.78 460.991 584.084C461.463 584.38 461.827 584.772 462.083 585.26C462.347 585.74 462.479 586.26 462.479 586.82C462.479 586.9 462.475 586.98 462.467 587.06C462.467 587.132 462.463 587.188 462.455 587.228H457.259C457.291 587.636 457.403 588 457.595 588.32C457.795 588.632 458.051 588.88 458.363 589.064C458.675 589.24 459.011 589.328 459.371 589.328C459.755 589.328 460.115 589.232 460.451 589.04C460.795 588.848 461.031 588.596 461.159 588.284L462.071 588.536C461.935 588.84 461.731 589.112 461.459 589.352C461.195 589.592 460.879 589.78 460.511 589.916C460.151 590.052 459.759 590.12 459.335 590.12ZM457.223 586.496H461.495C461.463 586.088 461.347 585.728 461.147 585.416C460.947 585.104 460.691 584.86 460.379 584.684C460.067 584.508 459.723 584.42 459.347 584.42C458.979 584.42 458.639 584.508 458.327 584.684C458.015 584.86 457.759 585.104 457.559 585.416C457.367 585.728 457.255 586.088 457.223 586.496Z" fill="white"/>
<path d="M162.751 244.597C162.475 245.029 162.124 245.337 161.698 245.519C161.272 245.701 160.812 245.762 160.319 245.702C159.833 245.647 159.367 245.477 158.918 245.191L154.94 242.654L160.285 234.273L164.451 236.93C164.845 237.181 165.115 237.503 165.263 237.897C165.424 238.287 165.474 238.695 165.412 239.121C165.364 239.544 165.227 239.932 165.001 240.286C164.74 240.696 164.388 241.014 163.945 241.24C163.514 241.464 163.051 241.539 162.555 241.466C162.945 241.914 163.154 242.419 163.184 242.98C163.226 243.538 163.082 244.077 162.751 244.597ZM161.797 243.723C161.963 243.463 162.057 243.185 162.079 242.89C162.11 242.599 162.069 242.324 161.958 242.065C161.854 241.811 161.676 241.603 161.424 241.443L158.426 239.531L156.59 242.411L159.505 244.27C159.765 244.436 160.04 244.517 160.33 244.514C160.627 244.515 160.903 244.448 161.157 244.31C161.423 244.17 161.636 243.974 161.797 243.723ZM160.76 235.871L158.976 238.669L161.643 240.37C161.895 240.531 162.156 240.608 162.425 240.603C162.702 240.602 162.963 240.531 163.209 240.389C163.463 240.252 163.67 240.057 163.83 239.805C164.001 239.538 164.096 239.267 164.117 238.992C164.15 238.714 164.112 238.452 164.003 238.206C163.903 237.964 163.734 237.768 163.498 237.618L160.76 235.871ZM165.31 249.433C164.846 249.137 164.478 248.786 164.205 248.38C163.938 247.966 163.759 247.526 163.67 247.059C163.585 246.584 163.591 246.106 163.687 245.625C163.783 245.144 163.967 244.691 164.238 244.266C164.514 243.834 164.85 243.472 165.245 243.182C165.641 242.892 166.069 242.689 166.53 242.573C166.996 242.45 167.471 242.426 167.954 242.502C168.45 242.574 168.926 242.756 169.383 243.047C169.847 243.343 170.213 243.698 170.48 244.112C170.752 244.519 170.931 244.959 171.016 245.434C171.113 245.905 171.114 246.382 171.017 246.863C170.921 247.344 170.735 247.801 170.459 248.233C170.188 248.658 169.855 249.016 169.459 249.306C169.064 249.596 168.633 249.803 168.167 249.927C167.706 250.042 167.227 250.064 166.731 249.991C166.248 249.915 165.774 249.729 165.31 249.433ZM165.293 244.956C165.022 245.381 164.867 245.824 164.827 246.286C164.795 246.752 164.867 247.186 165.043 247.586C165.225 247.979 165.505 248.295 165.882 248.536C166.26 248.777 166.668 248.893 167.105 248.884C167.55 248.88 167.974 248.763 168.376 248.532C168.79 248.298 169.133 247.969 169.404 247.544C169.675 247.119 169.826 246.673 169.858 246.207C169.898 245.745 169.826 245.312 169.642 244.906C169.465 244.506 169.188 244.185 168.81 243.944C168.433 243.703 168.023 243.591 167.58 243.608C167.143 243.617 166.719 243.734 166.31 243.96C165.908 244.191 165.569 244.523 165.293 244.956ZM171.275 249.6L173.631 245.906L174.67 246.568L172.441 250.062C172.04 250.692 171.849 251.234 171.869 251.689C171.888 252.145 172.114 252.51 172.547 252.786C172.831 252.967 173.14 253.081 173.475 253.129C173.822 253.173 174.175 253.149 174.533 253.057C174.891 252.964 175.23 252.798 175.549 252.558L178.01 248.698L179.049 249.361L175.872 254.342C175.792 254.468 175.755 254.578 175.762 254.671C175.782 254.761 175.849 254.848 175.962 254.931L175.45 255.733C175.322 255.674 175.222 255.622 175.152 255.576C175.084 255.544 175.018 255.508 174.955 255.468C174.759 255.342 174.627 255.175 174.561 254.967C174.499 254.751 174.522 254.55 174.63 254.364L175.065 253.629C174.507 253.914 173.919 254.038 173.302 253.998C172.693 253.964 172.121 253.776 171.586 253.435C170.94 253.024 170.59 252.496 170.536 251.853C170.486 251.201 170.733 250.45 171.275 249.6ZM182.368 248.024L183.407 248.687L178.928 255.71C178.713 256.048 178.627 256.287 178.671 256.426C178.715 256.565 178.804 256.677 178.938 256.762C179.103 256.868 179.271 256.952 179.44 257.016C179.615 257.072 179.766 257.113 179.893 257.139L179.517 258.094C179.298 258.055 179.056 257.983 178.79 257.88C178.524 257.777 178.3 257.667 178.119 257.552C177.718 257.296 177.472 256.979 177.381 256.6C177.299 256.226 177.388 255.835 177.649 255.425L182.368 248.024ZM182.879 260.637C182.415 260.341 182.042 259.987 181.762 259.576C181.495 259.162 181.312 258.719 181.215 258.247C181.13 257.773 181.132 257.292 181.22 256.806C181.317 256.325 181.503 255.868 181.779 255.436C182.15 254.853 182.623 254.407 183.196 254.098C183.77 253.789 184.386 253.639 185.044 253.649C185.709 253.664 186.349 253.867 186.963 254.258C187.585 254.655 188.028 255.148 188.294 255.738C188.573 256.325 188.685 256.939 188.631 257.58C188.589 258.218 188.393 258.812 188.042 259.363C187.991 259.442 187.937 259.518 187.879 259.591C187.834 259.662 187.795 259.715 187.762 259.749L182.651 256.49C182.426 256.911 182.308 257.34 182.296 257.775C182.297 258.207 182.394 258.612 182.585 258.988C182.782 259.357 183.057 259.655 183.411 259.88C183.789 260.121 184.203 260.253 184.654 260.275C185.113 260.301 185.503 260.202 185.825 259.975L186.564 260.795C186.239 261.009 185.868 261.148 185.45 261.214C185.04 261.284 184.611 261.271 184.164 261.174C183.724 261.082 183.296 260.903 182.879 260.637ZM183.075 255.747L187.277 258.427C187.501 258.006 187.613 257.579 187.612 257.146C187.611 256.714 187.512 256.313 187.316 255.944C187.119 255.576 186.836 255.273 186.466 255.037C186.104 254.807 185.715 254.68 185.297 254.657C184.88 254.635 184.475 254.714 184.083 254.896C183.698 255.082 183.362 255.366 183.075 255.747ZM188.811 264.254L190.32 256.549L191.406 257.241L190.045 263.646L195.278 259.71L196.293 260.358L189.944 264.976L188.811 264.254ZM193.906 264.996C194.157 264.602 194.483 264.334 194.884 264.191C195.298 264.046 195.752 264.02 196.246 264.113C196.739 264.207 197.246 264.419 197.765 264.75C198.041 264.926 198.317 265.135 198.594 265.378C198.875 265.613 199.107 265.849 199.288 266.086L199.574 265.638C199.875 265.166 199.969 264.705 199.856 264.257C199.749 263.801 199.435 263.407 198.916 263.076C198.577 262.86 198.211 262.715 197.816 262.64C197.433 262.563 196.997 262.527 196.505 262.535L196.594 261.562C197.171 261.543 197.702 261.594 198.189 261.716C198.681 261.83 199.143 262.026 199.576 262.302C200.363 262.803 200.844 263.42 201.019 264.152C201.2 264.876 201.042 265.627 200.545 266.406L198.881 269.015C198.801 269.141 198.764 269.25 198.771 269.344C198.791 269.434 198.858 269.52 198.971 269.604L198.459 270.406C198.347 270.357 198.249 270.311 198.165 270.269C198.089 270.231 198.028 270.198 197.98 270.167C197.736 270.012 197.594 269.827 197.553 269.613C197.521 269.404 197.544 269.22 197.624 269.06L197.849 268.655C197.36 268.831 196.839 268.875 196.286 268.788C195.733 268.701 195.244 268.522 194.819 268.251C194.41 267.99 194.096 267.674 193.879 267.303C193.667 266.924 193.561 266.535 193.56 266.137C193.565 265.73 193.68 265.35 193.906 264.996ZM197.641 267.992C197.806 267.942 197.951 267.879 198.076 267.804C198.206 267.721 198.297 267.64 198.347 267.562L198.836 266.795C198.652 266.545 198.442 266.311 198.204 266.093C197.972 265.867 197.726 265.671 197.466 265.506C196.939 265.17 196.442 265.002 195.976 265.004C195.523 265.003 195.181 265.183 194.95 265.545C194.825 265.742 194.753 265.967 194.735 266.222C194.73 266.473 194.792 266.723 194.921 266.971C195.058 267.225 195.28 267.449 195.587 267.645C195.91 267.851 196.257 267.984 196.628 268.043C197.005 268.095 197.342 268.078 197.641 267.992ZM206.397 268.079C205.873 267.756 205.327 267.596 204.76 267.6C204.206 267.601 203.703 267.773 203.252 268.116L200.828 271.917L199.789 271.255L203.719 265.093L204.687 265.71L203.776 267.139C204.259 266.849 204.757 266.685 205.269 266.646C205.794 266.604 206.259 266.691 206.664 266.905C206.743 266.955 206.81 266.998 206.865 267.033C206.92 267.068 206.965 267.102 206.999 267.135L206.397 268.079ZM205.518 270.591C205.89 270.008 206.346 269.553 206.889 269.223C207.444 268.891 208.023 268.712 208.625 268.687C209.236 268.667 209.813 268.83 210.356 269.176C210.851 269.492 211.213 269.905 211.441 270.416C211.669 270.927 211.775 271.437 211.76 271.948L214.108 268.265L215.147 268.927L210.405 276.364C210.324 276.49 210.288 276.599 210.295 276.692C210.315 276.782 210.381 276.869 210.494 276.952L209.982 277.755C209.766 277.661 209.602 277.579 209.492 277.508C209.287 277.378 209.152 277.192 209.084 276.95C209.025 276.713 209.051 276.508 209.161 276.335L209.493 275.815C208.998 276.053 208.473 276.156 207.918 276.123C207.363 276.09 206.866 275.933 206.425 275.652C206 275.381 205.659 275.048 205.403 274.652C205.159 274.253 204.999 273.818 204.922 273.349C204.853 272.884 204.864 272.415 204.955 271.942C205.06 271.466 205.247 271.016 205.518 270.591ZM209.991 274.721L211.12 272.951C211.196 272.623 211.196 272.285 211.119 271.937C211.047 271.581 210.917 271.255 210.73 270.959C210.555 270.659 210.338 270.427 210.079 270.261C209.772 270.065 209.45 269.954 209.113 269.927C208.788 269.898 208.466 269.935 208.144 270.04C207.835 270.142 207.546 270.301 207.276 270.516C207.006 270.731 206.776 270.989 206.585 271.288C206.389 271.594 206.255 271.918 206.181 272.259C206.116 272.605 206.11 272.944 206.163 273.277C206.224 273.615 206.343 273.923 206.52 274.202C206.704 274.485 206.946 274.723 207.245 274.913C207.434 275.034 207.649 275.121 207.891 275.176C208.141 275.235 208.396 275.26 208.658 275.25C208.919 275.239 209.165 275.191 209.397 275.106C209.633 275.014 209.831 274.885 209.991 274.721ZM219.689 277.967C220.016 277.456 220.421 277.011 220.905 276.634C221.402 276.254 221.948 275.971 222.542 275.785C223.15 275.597 223.776 275.542 224.423 275.623C225.074 275.695 225.714 275.932 226.344 276.333C227.092 276.81 227.622 277.392 227.937 278.079C228.256 278.759 228.375 279.449 228.293 280.15L227.109 280.158C227.17 279.699 227.135 279.284 227.006 278.914C226.89 278.541 226.71 278.216 226.466 277.938C226.23 277.666 225.97 277.44 225.687 277.259C225.223 276.963 224.749 276.794 224.267 276.752C223.792 276.715 223.333 276.776 222.888 276.935C222.443 277.095 222.033 277.331 221.656 277.644C221.292 277.954 220.984 278.306 220.733 278.7C220.457 279.132 220.262 279.595 220.148 280.086C220.042 280.583 220.02 281.068 220.084 281.54C220.148 282.013 220.3 282.452 220.538 282.859C220.777 283.266 221.105 283.602 221.522 283.868C221.813 284.054 222.145 284.194 222.517 284.287C222.889 284.38 223.277 284.406 223.68 284.364C224.088 284.315 224.481 284.167 224.859 283.921L225.436 284.969C224.997 285.276 224.503 285.46 223.956 285.52C223.408 285.58 222.862 285.542 222.318 285.406C221.782 285.274 221.298 285.07 220.865 284.794C220.291 284.428 219.841 283.97 219.517 283.42C219.197 282.862 218.991 282.265 218.898 281.63C218.818 280.992 218.842 280.355 218.972 279.718C219.114 279.078 219.353 278.495 219.689 277.967ZM226.056 285.498C226.307 285.104 226.633 284.836 227.034 284.693C227.448 284.548 227.902 284.522 228.396 284.615C228.889 284.709 229.396 284.921 229.915 285.252C230.191 285.428 230.467 285.637 230.744 285.88C231.026 286.115 231.257 286.351 231.438 286.588L231.724 286.14C232.025 285.668 232.119 285.207 232.006 284.759C231.899 284.303 231.585 283.91 231.066 283.578C230.728 283.363 230.361 283.217 229.966 283.142C229.584 283.065 229.147 283.03 228.655 283.037L228.744 282.064C229.321 282.045 229.853 282.096 230.339 282.218C230.831 282.333 231.293 282.528 231.726 282.804C232.513 283.306 232.994 283.922 233.169 284.654C233.35 285.378 233.192 286.129 232.695 286.909L231.031 289.517C230.951 289.643 230.914 289.753 230.921 289.846C230.941 289.936 231.008 290.023 231.121 290.106L230.609 290.908C230.497 290.859 230.399 290.813 230.315 290.771C230.239 290.733 230.178 290.7 230.13 290.67C229.886 290.514 229.744 290.329 229.704 290.115C229.671 289.906 229.694 289.722 229.774 289.562L229.999 289.158C229.51 289.333 228.989 289.377 228.436 289.29C227.883 289.203 227.394 289.024 226.969 288.753C226.56 288.492 226.246 288.176 226.029 287.805C225.817 287.426 225.711 287.038 225.71 286.639C225.715 286.232 225.83 285.852 226.056 285.498ZM229.791 288.494C229.956 288.444 230.101 288.381 230.226 288.306C230.356 288.223 230.447 288.143 230.497 288.064L230.986 287.297C230.802 287.047 230.592 286.813 230.354 286.595C230.122 286.369 229.876 286.174 229.616 286.008C229.089 285.672 228.592 285.504 228.126 285.506C227.673 285.505 227.331 285.685 227.1 286.047C226.975 286.244 226.903 286.47 226.885 286.724C226.88 286.975 226.942 287.225 227.071 287.473C227.208 287.727 227.43 287.951 227.737 288.147C228.06 288.353 228.407 288.486 228.778 288.545C229.155 288.597 229.492 288.58 229.791 288.494ZM238.547 288.582C238.023 288.258 237.477 288.098 236.91 288.102C236.356 288.103 235.853 288.275 235.402 288.618L232.978 292.419L231.939 291.757L235.869 285.595L236.837 286.212L235.926 287.641C236.409 287.351 236.907 287.187 237.419 287.148C237.944 287.106 238.409 287.193 238.815 287.407C238.893 287.457 238.96 287.5 239.015 287.535C239.07 287.57 239.115 287.604 239.149 287.637L238.547 288.582ZM241.575 297.901L240.536 297.239L242.734 293.792C243.151 293.139 243.352 292.598 243.338 292.168C243.337 291.736 243.132 291.389 242.723 291.128C242.439 290.948 242.111 290.838 241.737 290.799C241.372 290.765 241.001 290.799 240.625 290.903C240.262 291.003 239.933 291.181 239.638 291.436L237.266 295.154L236.228 294.491L240.157 288.33L241.101 288.932L240.258 290.254C240.609 290.068 240.982 289.952 241.377 289.905C241.773 289.858 242.173 289.881 242.579 289.974C242.985 290.066 243.369 290.228 243.731 290.459C244.085 290.685 244.337 290.94 244.488 291.224C244.652 291.506 244.725 291.807 244.708 292.129C244.704 292.447 244.63 292.781 244.484 293.131C244.346 293.486 244.159 293.849 243.924 294.218L241.575 297.901ZM245.806 300.766C245.342 300.47 244.974 300.119 244.701 299.712C244.434 299.298 244.255 298.858 244.166 298.391C244.081 297.917 244.087 297.439 244.183 296.958C244.28 296.477 244.463 296.024 244.734 295.599C245.01 295.166 245.346 294.805 245.741 294.514C246.137 294.224 246.565 294.021 247.026 293.906C247.492 293.782 247.967 293.758 248.45 293.834C248.946 293.907 249.422 294.089 249.879 294.38C250.343 294.676 250.709 295.031 250.976 295.445C251.248 295.851 251.427 296.291 251.512 296.766C251.609 297.238 251.61 297.714 251.514 298.195C251.417 298.676 251.231 299.133 250.955 299.566C250.684 299.991 250.351 300.348 249.955 300.639C249.56 300.929 249.129 301.136 248.663 301.259C248.202 301.375 247.723 301.396 247.227 301.323C246.744 301.248 246.271 301.062 245.806 300.766ZM245.789 296.288C245.518 296.713 245.363 297.156 245.323 297.618C245.291 298.085 245.363 298.518 245.54 298.919C245.721 299.311 246.001 299.628 246.378 299.869C246.756 300.11 247.164 300.226 247.601 300.217C248.046 300.213 248.47 300.095 248.872 299.865C249.286 299.631 249.629 299.302 249.9 298.877C250.171 298.452 250.323 298.006 250.355 297.539C250.394 297.078 250.322 296.644 250.138 296.239C249.961 295.838 249.684 295.518 249.307 295.277C248.929 295.036 248.519 294.924 248.076 294.941C247.639 294.95 247.215 295.067 246.806 295.293C246.404 295.524 246.065 295.855 245.789 296.288ZM253.547 305.104C253.436 305.089 253.285 305.064 253.095 305.032C252.906 305 252.697 304.944 252.47 304.866C252.244 304.788 252.02 304.678 251.8 304.538C251.548 304.377 251.343 304.186 251.186 303.964C251.034 303.734 250.955 303.484 250.949 303.215C250.949 302.938 251.042 302.654 251.227 302.363L253.869 298.22L253.031 297.685L253.551 296.871L254.389 297.405L255.699 295.351L256.737 296.014L255.428 298.068L256.809 298.948L256.289 299.763L254.908 298.882L252.469 302.707C252.344 302.937 252.314 303.15 252.377 303.346C252.446 303.533 252.571 303.685 252.752 303.8C252.956 303.931 253.168 304.016 253.386 304.055C253.604 304.095 253.751 304.116 253.826 304.12L253.547 305.104Z" fill="#223B2D"/>
<path d="M456.196 354.577C456.247 355.088 456.161 355.547 455.939 355.953C455.717 356.36 455.394 356.692 454.969 356.95C454.554 357.207 454.082 357.362 453.552 357.415L448.858 357.883L447.872 347.992L452.79 347.502C453.254 347.456 453.666 347.541 454.025 347.759C454.393 347.966 454.685 348.256 454.9 348.628C455.124 348.991 455.256 349.381 455.298 349.799C455.346 350.282 455.266 350.749 455.058 351.201C454.858 351.643 454.541 351.989 454.106 352.239C454.689 352.349 455.166 352.616 455.536 353.039C455.915 353.451 456.135 353.964 456.196 354.577ZM454.906 354.48C454.876 354.174 454.778 353.898 454.613 353.652C454.457 353.404 454.255 353.213 454.007 353.079C453.768 352.943 453.5 352.89 453.203 352.92L449.665 353.272L450.003 356.671L453.444 356.329C453.751 356.298 454.017 356.192 454.242 356.01C454.478 355.827 454.652 355.603 454.767 355.339C454.889 355.064 454.936 354.778 454.906 354.48ZM449.234 348.954L449.563 352.255L452.712 351.942C453.009 351.912 453.261 351.812 453.47 351.641C453.687 351.469 453.848 351.251 453.953 350.988C454.068 350.723 454.11 350.442 454.08 350.145C454.049 349.829 453.956 349.557 453.802 349.329C453.656 349.09 453.465 348.907 453.227 348.781C452.998 348.654 452.745 348.604 452.466 348.632L449.234 348.954ZM461.199 356.794C460.651 356.849 460.145 356.801 459.679 356.65C459.213 356.49 458.8 356.254 458.441 355.943C458.081 355.623 457.79 355.244 457.568 354.806C457.346 354.369 457.21 353.899 457.16 353.398C457.11 352.887 457.15 352.395 457.281 351.922C457.412 351.45 457.623 351.025 457.914 350.649C458.204 350.264 458.562 349.952 458.988 349.712C459.423 349.463 459.91 349.311 460.448 349.257C460.996 349.203 461.503 349.255 461.969 349.415C462.435 349.566 462.847 349.801 463.208 350.122C463.576 350.432 463.871 350.806 464.093 351.244C464.315 351.681 464.451 352.155 464.502 352.666C464.552 353.168 464.512 353.655 464.38 354.127C464.249 354.6 464.039 355.029 463.749 355.414C463.458 355.79 463.095 356.103 462.661 356.353C462.234 356.592 461.747 356.739 461.199 356.794ZM458.416 353.287C458.466 353.788 458.618 354.233 458.872 354.62C459.136 355.006 459.461 355.302 459.847 355.508C460.232 355.704 460.648 355.78 461.094 355.735C461.539 355.691 461.931 355.53 462.27 355.252C462.617 354.974 462.877 354.62 463.05 354.19C463.231 353.75 463.297 353.279 463.247 352.777C463.197 352.276 463.04 351.832 462.777 351.445C462.522 351.058 462.197 350.762 461.802 350.558C461.416 350.352 460.999 350.272 460.554 350.316C460.108 350.36 459.716 350.526 459.379 350.813C459.041 351.091 458.781 351.445 458.599 351.876C458.426 352.305 458.365 352.776 458.416 353.287ZM465.989 353.236L465.554 348.875L466.78 348.753L467.191 352.877C467.265 353.62 467.451 354.164 467.748 354.51C468.045 354.855 468.449 355.002 468.96 354.952C469.294 354.918 469.607 354.817 469.9 354.647C470.201 354.467 470.463 354.23 470.687 353.935C470.911 353.641 471.074 353.301 471.177 352.916L470.723 348.36L471.949 348.238L472.534 354.117C472.549 354.266 472.588 354.374 472.651 354.443C472.723 354.502 472.829 354.529 472.969 354.524L473.063 355.471C472.926 355.504 472.815 355.524 472.732 355.532C472.658 355.549 472.584 355.561 472.51 355.569C472.278 355.592 472.071 355.542 471.89 355.419C471.708 355.287 471.602 355.115 471.572 354.902L471.459 354.055C471.197 354.625 470.811 355.086 470.302 355.437C469.802 355.787 469.237 355.993 468.605 356.056C467.844 356.132 467.242 355.934 466.801 355.462C466.36 354.981 466.089 354.239 465.989 353.236ZM473.73 345.134L474.956 345.012L475.782 353.301C475.821 353.7 475.902 353.941 476.022 354.023C476.143 354.105 476.282 354.138 476.44 354.122C476.635 354.102 476.819 354.065 476.992 354.011C477.164 353.947 477.308 353.885 477.424 353.827L477.719 354.81C477.523 354.914 477.288 355.008 477.015 355.092C476.742 355.175 476.499 355.227 476.285 355.249C475.812 355.296 475.422 355.199 475.117 354.957C474.82 354.715 474.648 354.352 474.6 353.869L473.73 345.134ZM481.933 354.728C481.385 354.783 480.874 354.735 480.4 354.586C479.934 354.426 479.516 354.191 479.148 353.88C478.787 353.56 478.492 353.181 478.261 352.745C478.039 352.307 477.902 351.833 477.852 351.322C477.783 350.635 477.879 349.992 478.138 349.394C478.397 348.796 478.788 348.298 479.311 347.899C479.844 347.498 480.472 347.262 481.196 347.19C481.93 347.117 482.584 347.23 483.158 347.529C483.74 347.818 484.208 348.231 484.561 348.768C484.923 349.295 485.137 349.883 485.202 350.534C485.211 350.626 485.215 350.72 485.215 350.814C485.224 350.897 485.226 350.963 485.221 351.01L479.189 351.611C479.273 352.081 479.445 352.491 479.705 352.84C479.973 353.179 480.299 353.437 480.683 353.615C481.065 353.783 481.466 353.846 481.884 353.805C482.329 353.76 482.736 353.607 483.104 353.345C483.481 353.083 483.726 352.763 483.839 352.386L484.926 352.573C484.804 352.942 484.598 353.281 484.31 353.591C484.032 353.9 483.686 354.155 483.275 354.355C482.873 354.555 482.426 354.679 481.933 354.728ZM479.062 350.765L484.022 350.271C483.937 349.801 483.761 349.397 483.493 349.058C483.225 348.719 482.899 348.465 482.517 348.297C482.134 348.128 481.725 348.066 481.288 348.11C480.861 348.152 480.476 348.294 480.134 348.534C479.793 348.774 479.524 349.087 479.327 349.473C479.141 349.857 479.052 350.288 479.062 350.765ZM488.831 353.9L485.251 346.913L486.533 346.785L489.425 352.659L491.102 346.33L492.3 346.21L490.169 353.767L488.831 353.9ZM493.294 351.331C493.247 350.867 493.338 350.455 493.564 350.094C493.8 349.724 494.14 349.423 494.586 349.191C495.032 348.959 495.561 348.812 496.174 348.751C496.499 348.719 496.846 348.712 497.213 348.732C497.58 348.742 497.908 348.785 498.197 348.859L498.144 348.33C498.089 347.772 497.878 347.352 497.512 347.07C497.145 346.778 496.656 346.663 496.043 346.724C495.643 346.764 495.265 346.876 494.908 347.062C494.56 347.237 494.195 347.48 493.813 347.79L493.281 346.971C493.723 346.599 494.172 346.31 494.63 346.105C495.087 345.891 495.571 345.758 496.082 345.707C497.011 345.615 497.77 345.801 498.361 346.268C498.95 346.725 499.291 347.413 499.382 348.333L499.689 351.412C499.704 351.56 499.743 351.669 499.806 351.738C499.878 351.796 499.983 351.823 500.124 351.818L500.218 352.766C500.099 352.796 499.994 352.821 499.902 352.84C499.819 352.857 499.75 352.869 499.694 352.874C499.406 352.903 499.18 352.846 499.016 352.703C498.861 352.559 498.765 352.399 498.729 352.225L498.655 351.768C498.38 352.208 497.999 352.565 497.51 352.839C497.021 353.112 496.526 353.274 496.025 353.324C495.542 353.372 495.1 353.318 494.7 353.161C494.299 352.994 493.975 352.755 493.728 352.442C493.48 352.119 493.335 351.749 493.294 351.331ZM498.082 351.375C498.18 351.234 498.255 351.095 498.307 350.958C498.359 350.813 498.38 350.693 498.37 350.6L498.28 349.695C497.981 349.612 497.671 349.559 497.35 349.534C497.027 349.501 496.713 349.499 496.406 349.53C495.784 349.592 495.291 349.768 494.925 350.057C494.569 350.337 494.412 350.69 494.454 351.117C494.477 351.349 494.56 351.571 494.703 351.782C494.855 351.982 495.058 352.14 495.313 352.256C495.578 352.37 495.891 352.409 496.254 352.373C496.634 352.335 496.989 352.225 497.318 352.042C497.646 351.85 497.9 351.627 498.082 351.375ZM505.016 346.027C504.404 346.097 503.876 346.309 503.433 346.663C502.998 347.006 502.71 347.453 502.567 348.001L503.014 352.487L501.788 352.609L501.064 345.337L502.206 345.224L502.374 346.909C502.575 346.383 502.864 345.946 503.242 345.599C503.629 345.241 504.048 345.021 504.499 344.939C504.592 344.93 504.671 344.922 504.736 344.915C504.801 344.909 504.857 344.908 504.905 344.912L505.016 346.027ZM505.879 348.544C505.81 347.857 505.887 347.216 506.109 346.621C506.34 346.017 506.684 345.518 507.142 345.126C507.609 344.732 508.163 344.503 508.804 344.44C509.389 344.381 509.929 344.482 510.424 344.742C510.919 345.003 511.318 345.338 511.622 345.749L511.189 341.402L512.415 341.28L513.289 350.057C513.304 350.205 513.343 350.314 513.406 350.383C513.477 350.441 513.583 350.468 513.724 350.464L513.818 351.411C513.589 351.471 513.41 351.508 513.28 351.521C513.039 351.545 512.817 351.482 512.614 351.334C512.421 351.184 512.315 351.007 512.294 350.803L512.233 350.19C511.991 350.683 511.643 351.088 511.186 351.406C510.73 351.723 510.242 351.908 509.722 351.96C509.221 352.01 508.747 351.958 508.3 351.806C507.862 351.643 507.467 351.401 507.116 351.08C506.774 350.757 506.493 350.382 506.272 349.954C506.06 349.515 505.929 349.045 505.879 348.544ZM511.948 349.022L511.74 346.933C511.597 346.628 511.388 346.363 511.112 346.137C510.835 345.902 510.531 345.726 510.201 345.609C509.879 345.481 509.564 345.433 509.258 345.464C508.896 345.5 508.574 345.611 508.292 345.799C508.019 345.976 507.789 346.206 507.601 346.487C507.422 346.758 507.293 347.062 507.214 347.398C507.134 347.734 507.113 348.079 507.148 348.431C507.184 348.794 507.278 349.131 507.432 349.444C507.594 349.756 507.799 350.027 508.047 350.255C508.304 350.483 508.588 350.652 508.899 350.761C509.22 350.87 509.556 350.907 509.909 350.872C510.132 350.849 510.356 350.785 510.579 350.678C510.813 350.571 511.028 350.432 511.227 350.262C511.426 350.092 511.59 349.902 511.719 349.692C511.847 349.473 511.924 349.25 511.948 349.022ZM527.747 342.13C527.623 342.011 527.462 341.901 527.264 341.798C527.066 341.696 526.847 341.61 526.605 341.54C526.363 341.461 526.099 341.408 525.815 341.38C525.539 341.342 525.253 341.338 524.956 341.367C524.194 341.443 523.647 341.643 523.313 341.967C522.98 342.291 522.838 342.704 522.888 343.205C522.923 343.558 523.044 343.827 523.25 344.013C523.456 344.199 523.756 344.338 524.149 344.43C524.553 344.521 525.058 344.607 525.666 344.687C526.369 344.767 526.981 344.889 527.504 345.053C528.027 345.216 528.441 345.466 528.746 345.801C529.051 346.127 529.232 346.588 529.292 347.182C529.339 347.656 529.287 348.078 529.137 348.45C528.994 348.811 528.772 349.124 528.47 349.388C528.167 349.643 527.803 349.849 527.378 350.004C526.952 350.149 526.483 350.247 525.972 350.298C525.471 350.348 524.973 350.346 524.48 350.292C523.996 350.228 523.529 350.115 523.082 349.953C522.634 349.791 522.209 349.576 521.807 349.306L522.301 348.188C522.465 348.331 522.671 348.47 522.919 348.605C523.176 348.729 523.459 348.842 523.769 348.942C524.088 349.042 524.429 349.116 524.79 349.164C525.15 349.203 525.516 349.204 525.888 349.167C526.594 349.097 527.129 348.917 527.494 348.627C527.858 348.328 528.016 347.933 527.967 347.441C527.93 347.069 527.789 346.783 527.544 346.582C527.308 346.381 526.969 346.227 526.527 346.121C526.085 346.015 525.55 345.918 524.922 345.83C524.237 345.73 523.657 345.605 523.182 345.455C522.707 345.296 522.337 345.066 522.072 344.764C521.817 344.461 521.663 344.049 521.612 343.529C521.549 342.898 521.649 342.348 521.912 341.881C522.175 341.414 522.565 341.043 523.081 340.766C523.597 340.489 524.195 340.317 524.873 340.25C525.318 340.205 525.736 340.211 526.126 340.266C526.526 340.32 526.901 340.414 527.252 340.547C527.603 340.681 527.929 340.85 528.231 341.055L527.747 342.13ZM530.23 347.651C530.184 347.187 530.274 346.775 530.501 346.414C530.736 346.044 531.076 345.743 531.522 345.511C531.968 345.279 532.497 345.132 533.11 345.071C533.435 345.039 533.782 345.032 534.15 345.052C534.516 345.062 534.844 345.105 535.133 345.179L535.08 344.65C535.025 344.092 534.814 343.672 534.448 343.39C534.082 343.098 533.592 342.983 532.979 343.044C532.579 343.084 532.201 343.196 531.845 343.382C531.496 343.557 531.131 343.8 530.75 344.11L530.218 343.291C530.659 342.919 531.109 342.63 531.566 342.425C532.023 342.211 532.507 342.078 533.018 342.027C533.947 341.935 534.707 342.121 535.297 342.588C535.887 343.045 536.227 343.733 536.319 344.653L536.626 347.732C536.64 347.88 536.679 347.989 536.742 348.058C536.814 348.116 536.92 348.143 537.06 348.138L537.154 349.086C537.035 349.116 536.93 349.141 536.838 349.159C536.755 349.177 536.686 349.189 536.631 349.194C536.343 349.223 536.117 349.166 535.952 349.023C535.797 348.879 535.702 348.719 535.665 348.545L535.592 348.088C535.317 348.528 534.935 348.885 534.446 349.159C533.958 349.432 533.463 349.594 532.961 349.644C532.478 349.692 532.037 349.638 531.636 349.481C531.235 349.314 530.911 349.075 530.664 348.762C530.416 348.439 530.272 348.069 530.23 347.651ZM535.018 347.695C535.116 347.554 535.192 347.415 535.244 347.278C535.295 347.133 535.316 347.013 535.307 346.92L535.216 346.015C534.917 345.932 534.607 345.879 534.286 345.854C533.964 345.821 533.649 345.819 533.343 345.85C532.721 345.912 532.227 346.088 531.862 346.377C531.505 346.657 531.348 347.01 531.391 347.437C531.414 347.669 531.497 347.891 531.64 348.102C531.791 348.302 531.994 348.46 532.25 348.576C532.514 348.69 532.828 348.729 533.19 348.693C533.571 348.655 533.925 348.545 534.254 348.362C534.582 348.17 534.837 347.947 535.018 347.695ZM538.725 348.929L538 341.657L539.226 341.535L539.95 348.807L538.725 348.929ZM537.864 340.292L537.711 338.76L538.937 338.638L539.09 340.17L537.864 340.292ZM548.246 347.981L547.02 348.103L546.615 344.035C546.538 343.264 546.361 342.714 546.085 342.385C545.816 342.046 545.441 341.901 544.958 341.949C544.623 341.982 544.297 342.099 543.98 342.3C543.671 342.499 543.401 342.756 543.17 343.07C542.947 343.373 542.798 343.716 542.724 344.099L543.161 348.487L541.935 348.609L541.211 341.337L542.325 341.226L542.481 342.787C542.641 342.424 542.863 342.101 543.144 341.82C543.426 341.539 543.754 341.309 544.131 341.131C544.507 340.953 544.909 340.842 545.336 340.8C545.754 340.758 546.11 340.802 546.404 340.933C546.707 341.052 546.951 341.244 547.137 341.507C547.331 341.759 547.479 342.068 547.581 342.433C547.692 342.797 547.769 343.198 547.813 343.634L548.246 347.981ZM553.81 347.061C553.712 347.117 553.579 347.191 553.41 347.283C553.241 347.375 553.043 347.461 552.816 347.539C552.59 347.618 552.346 347.671 552.086 347.697C551.789 347.726 551.51 347.702 551.249 347.625C550.987 347.539 550.771 347.391 550.6 347.183C550.428 346.966 550.325 346.686 550.291 346.342L549.804 341.452L548.815 341.551L548.719 340.589L549.708 340.491L549.467 338.067L550.693 337.945L550.934 340.369L552.564 340.206L552.66 341.168L551.03 341.33L551.479 345.844C551.524 346.102 551.632 346.288 551.802 346.402C551.972 346.507 552.164 346.549 552.378 346.528C552.619 346.504 552.838 346.44 553.034 346.336C553.23 346.232 553.359 346.158 553.42 346.115L553.81 347.061ZM554.561 344.073L554.45 342.959L558.56 342.549L558.671 343.664L554.561 344.073ZM569.621 345.851L568.869 338.3L566.188 344.434L565.422 344.511L561.569 339.028L562.322 346.578L561.068 346.703L560.082 336.812L561.406 336.68L565.626 342.746L568.58 335.966L569.89 335.835L570.875 345.726L569.621 345.851ZM573.049 345.51L572.324 338.238L573.55 338.115L574.275 345.387L573.049 345.51ZM572.188 336.872L572.036 335.34L573.261 335.218L573.414 336.75L572.188 336.872ZM579.491 345.008C578.943 345.063 578.432 345.015 577.958 344.866C577.492 344.706 577.074 344.466 576.704 344.146C576.344 343.826 576.048 343.447 575.817 343.011C575.595 342.573 575.459 342.099 575.408 341.588C575.34 340.901 575.43 340.259 575.681 339.662C575.931 339.065 576.318 338.571 576.841 338.181C577.364 337.782 577.993 337.546 578.727 337.473C579.442 337.402 580.08 337.502 580.642 337.775C581.212 338.037 581.654 338.424 581.968 338.937L580.807 339.432C580.587 339.107 580.301 338.869 579.948 338.716C579.594 338.554 579.213 338.494 578.804 338.535C578.358 338.579 577.961 338.736 577.613 339.005C577.274 339.273 577.018 339.622 576.845 340.052C576.671 340.473 576.61 340.943 576.662 341.463C576.713 341.974 576.866 342.428 577.121 342.825C577.385 343.211 577.71 343.507 578.096 343.712C578.492 343.917 578.912 343.997 579.358 343.952C579.646 343.924 579.915 343.845 580.165 343.717C580.424 343.588 580.643 343.43 580.821 343.244C581.008 343.047 581.128 342.843 581.182 342.631L582.416 342.874C582.303 343.242 582.107 343.58 581.828 343.889C581.558 344.188 581.221 344.437 580.819 344.637C580.426 344.836 579.984 344.959 579.491 345.008ZM590.284 343.792L589.058 343.915L588.653 339.847C588.579 339.104 588.389 338.56 588.082 338.215C587.785 337.87 587.39 337.721 586.898 337.77C586.582 337.802 586.27 337.917 585.962 338.117C585.663 338.316 585.407 338.571 585.194 338.883C584.98 339.186 584.836 339.528 584.762 339.911L585.199 344.299L583.973 344.421L582.96 334.252L584.186 334.129L584.63 338.587C584.866 338.039 585.215 337.591 585.678 337.245C586.149 336.888 586.672 336.681 587.248 336.624C587.685 336.581 588.055 336.623 588.359 336.753C588.671 336.872 588.929 337.062 589.133 337.323C589.337 337.584 589.495 337.896 589.606 338.26C589.726 338.614 589.807 339.009 589.851 339.446L590.284 343.792ZM595.422 343.421C594.874 343.476 594.363 343.428 593.889 343.279C593.422 343.119 593.005 342.883 592.636 342.573C592.276 342.253 591.981 341.874 591.75 341.438C591.528 341 591.391 340.526 591.34 340.015C591.272 339.328 591.367 338.685 591.627 338.087C591.886 337.489 592.277 336.991 592.8 336.591C593.333 336.191 593.961 335.955 594.685 335.883C595.419 335.81 596.073 335.923 596.647 336.222C597.229 336.511 597.697 336.924 598.05 337.461C598.412 337.988 598.626 338.576 598.69 339.226C598.7 339.319 598.704 339.413 598.704 339.506C598.713 339.59 598.714 339.656 598.71 339.703L592.678 340.304C592.762 340.774 592.934 341.183 593.194 341.533C593.462 341.872 593.788 342.13 594.172 342.308C594.554 342.476 594.955 342.539 595.372 342.498C595.818 342.453 596.225 342.3 596.593 342.038C596.97 341.776 597.215 341.456 597.327 341.079L598.415 341.266C598.293 341.634 598.087 341.974 597.799 342.284C597.521 342.593 597.175 342.848 596.764 343.048C596.362 343.248 595.914 343.372 595.422 343.421ZM592.551 339.458L597.511 338.964C597.426 338.494 597.25 338.09 596.982 337.751C596.713 337.412 596.388 337.158 596.006 336.99C595.623 336.821 595.213 336.759 594.777 336.803C594.35 336.845 593.965 336.987 593.623 337.227C593.281 337.467 593.012 337.78 592.816 338.166C592.63 338.55 592.541 338.981 592.551 339.458ZM599.436 332.61L600.662 332.488L601.487 340.777C601.527 341.176 601.607 341.417 601.728 341.499C601.849 341.58 601.988 341.613 602.146 341.598C602.341 341.578 602.525 341.541 602.698 341.486C602.87 341.422 603.014 341.361 603.13 341.303L603.425 342.286C603.229 342.39 602.994 342.484 602.721 342.567C602.448 342.651 602.205 342.703 601.991 342.724C601.517 342.772 601.128 342.674 600.822 342.433C600.526 342.19 600.354 341.828 600.306 341.345L599.436 332.61Z" fill="#223B2D"/>
<path d="M354 301C345.177 301 338 308.196 338 317.041C338 330.22 352.407 343.088 353.021 343.63C353.301 343.877 353.65 344 354 344C354.35 344 354.699 343.877 354.979 343.63C355.592 343.088 370 330.22 370 317.041C370 308.196 362.823 301 354 301ZM354 340.48C350.815 337.387 340.963 327.011 340.963 317.041C340.963 309.834 346.811 303.969 354 303.969C361.189 303.969 367.037 309.834 367.037 317.041C367.037 327.011 357.185 337.387 354 340.48Z" fill="white"/>
<path d="M354 309.569C349.916 309.569 346.593 312.921 346.593 317.041C346.593 321.162 349.916 324.514 354 324.514C358.084 324.514 361.407 321.162 361.407 317.041C361.407 312.921 358.084 309.569 354 309.569ZM354 321.545C351.549 321.545 349.556 319.524 349.556 317.041C349.556 314.558 351.549 312.538 354 312.538C356.451 312.538 358.444 314.558 358.444 317.041C358.444 319.524 356.451 321.545 354 321.545Z" fill="white"/>
</svg>
