<?xml version="1.0" standalone="no"?>
	<svg xmlns="http://www.w3.org/2000/svg" xmlns:xlink="http://www.w3.org/1999/xlink" 
	stroke="green" 
	fill="none" 
	stroke-width="0.1%"
	stroke-linecap="round"
	stroke-linejoin="round"
	width="1200" 
	height="1200" 
	viewBox="-61177.10907587153 6018980.924678259 1214.8058755131933 1214.8058755109087" 
	preserveAspectRatio="xMidYMid meet">
<g id="planet_osm_line" class="line">
<path d="M-60719.06041 6020137.12239l-43.78196 89.56784 -73.55992 147.63094 -3.10581 6.09291 -3.52883 8.4148 -21.36221 46.15775 -27.28441 54.55573 "/>
<path d="M-61048.76647 6019399.43284l-5.85541 -9.45332 -24.72406 -39.92146 -8.82764 -10.04627 "/>
<path d="M-61143.07635 6019135.59236l2.6494 18.6272 1.51395 11.08407 "/>
<path d="M-61138.913 6019165.30363l-65.01058 41.81631 "/>
<path d="M-60000.51536 6019763.03202l45.15119 27.45295 3.36185 2.04209 30.82437 18.7246 25.23613 15.61204 20.70543 12.81239 4.5307 2.79962 281.17077 163.34801 262.9589 159.96905 75.78631 47.92097 25.39198 16.89578 "/>
<path d="M-59981.04558 6019758.17382l-21.66277 -11.05038 "/>
<path d="M-60881.78724 6019828.42819l19.29167 7.59192 40.55369 18.14812 6.53445 3.44188 3.47317 1.71271 3.26166 1.81151 5.67729 2.98076 63.89739 32.32723 8.40462 4.11706 8.14859 4.18293 74.13878 36.74054 7.69218 3.68887 1.58074 0.23055 5.63277 -0.88928 "/>
<path d="M-60253.57796 6019687.65537l28.34194 -6.73568 "/>
<path d="M-60881.78724 6019828.42819l-16.24151 -8.56356 "/>
<path d="M-60864.35461 6019301.21002l6.45653 -10.01339 3.81826 -5.92899 45.42948 -70.47289 34.34206 -50.16638 42.6465 -60.85553 16.17472 -23.05769 14.80549 -21.09784 15.82963 -22.58018 7.16898 -9.96428 4.11882 -5.96211 4.65315 -6.43974 48.11228 -70.9692 7.05766 -13.58781 8.39349 -17.88653 6.1671 -14.60901 7.75897 -18.36423 7.16898 -17.45841 2.1262 -8.1857 3.21713 -10.1292 8.28217 -25.95715 3.53996 -11.26569 3.7292 -11.79276 4.33033 -9.94809 5.28768 -10.34339 6.14484 -10.93634 3.94071 -7.44463 10.70894 -20.27511 9.95196 -17.83752 5.82201 -10.19524 5.15409 -9.02584 "/>
<path d="M-61236.98547 6019353.28604l33.55169 31.76918 29.7557 34.07475 15.40662 22.51331 16.20812 19.7135 "/>
<path d="M-61377.77123 6019897.77625l229.87475 221.03395 5.87767 9.78188 1.85904 12.30144 "/>
<path d="M-60225.23601 6019680.91969l11.09855 -5.63228 8.36009 -4.92413 98.68473 -73.15417 17.91131 -12.99391 128.57401 -100.24641 "/>
<path d="M-61063.95045 6019172.30323l0.60113 -11.49581 0.89056 -8.05366 1.17999 -5.23735 6.24502 -6.58787 6.24502 -8.38307 22.33069 -34.37233 3.56222 -6.02794 23.27691 -35.4595 29.46627 -44.89691 5.66616 -7.87263 19.03563 -28.77304 16.75358 -25.3309 14.04852 -20.45582 4.2858 -6.24217 13.68117 -20.32413 "/>
<path d="M-61022.89582 6019092.14519l-86.49524 -56.77151 -79.57117 -50.52975 -7.46954 -4.74336 "/>
<path d="M-60896.68179 6018902.7901l49.39246 27.01098 41.55557 19.35233 31.13606 16.68414 96.91475 61.23531 "/>
<path d="M-60549.10894 6019498.75797l18.72394 -2.35507 29.26589 -3.12911 130.37739 -14.45981 27.3178 -2.53623 80.1723 -7.31226 62.10514 -5.97827 221.57031 -20.24051 22.80936 -2.61859 9.48442 -1.26812 5.89993 -0.80699 12.64589 -1.87748 "/>
<path d="M-60549.10894 6019498.75797l-10.08555 -7.72397 -12.0893 -7.75691 "/>
<path d="M-61158.82805 6019259.5918l-15.64039 18.05051 -62.51703 75.64373 -58.96593 69.40127 -33.13981 39.70702 "/>
<path d="M-60195.03503 6018918.00849l143.03441 67.80717 18.30092 8.18558 13.11344 6.30799 7.04652 3.39281 74.35029 36.7279 5.81088 3.2775 6.32295 3.04693 61.34817 29.57982 8.20425 3.95275 79.28174 37.71576 32.46076 16.56853 121.52749 60.31182 13.14683 6.52195 "/>
<path d="M-60577.5622 6020110.23045l129.05269 66.01932 11.12082 6.01071 188.61975 89.15568 119.01167 61.09433 "/>
<path d="M-61010.03842 6019995.56413l-5.69956 -5.17097 -5.81088 -5.28625 -46.8989 -42.61949 -52.11979 -55.61315 -70.33165 -68.26123 "/>
<path d="M-61190.8992 6019818.61303l32.00435 -35.58827 33.05076 -33.11814 18.93545 -18.51064 44.61685 -43.59239 51.10678 -57.45929 "/>
<path d="M-60952.40832 6019570.3649l24.96896 39.24522 48.17908 53.52341 "/>
<path d="M-60732.11818 6020470.52282l5.52145 -15.77555 92.35065 -280.22661 "/>
<path d="M-60762.84236 6020226.69023l-102.13563 -61.70438 -77.01082 -47.65776 -10.11894 -8.34919 -5.00938 -2.50311 "/>
<path d="M-59932.15406 6019422.91787l-0.90169 -5.59951 -1.81451 -4.3808 -4.23014 -9.79916 -32.76133 -61.01855 -19.48091 -33.66332 -38.50541 -65.12012 -54.35731 -92.67431 -46.64287 -80.75115 -19.53657 -33.38439 -4.60863 -7.87261 -28.431 -49.96981 -11.13195 -18.28171 -11.2878 -16.19005 -3.95184 -6.02804 "/>
<path d="M-60882.56647 6018680.86862l-52.5094 73.75485 -67.08113 106.53002 -56.71728 89.79515 -50.51678 84.42504 -41.70028 64.24878 -7.68104 11.85822 "/>
<path d="M-60337.24568 6019464.46943l2.74959 -7.74047 4.2524 -9.23916 34.70942 -70.50451 5.00938 -10.90264 4.71995 -11.57789 "/>
<path d="M-60383.96647 6019246.23506l0.84603 -6.88425 3.09468 -6.86778 30.96908 -54.13545 9.0948 -13.80155 20.58297 -34.66866 2.53808 -4.03508 5.06504 -8.94306 35.73356 -62.84872 66.24623 -115.86617 7.53633 -11.57847 7.22463 -8.59739 "/>
<path d="M-60990.15676 6019609.09958l-8.82764 -91.66579 "/>
<path d="M-61081.47214 6019421.15567l29.45514 -19.56537 3.25053 -2.15746 11.10969 -4.59491 78.74741 32.74071 3.69581 1.53163 44.37195 20.22408 58.59858 26.71283 "/>
<path d="M-61158.89485 6019783.02476l-5.06504 -4.52883 -93.33026 -83.29793 -31.61474 -25.26291 "/>
<path d="M-61051.8055 6019522.62152l-33.72981 4.92422 -23.48841 3.09616 -3.35072 0.24703 -6.7237 -0.36232 -8.71632 -1.89393 -16.08567 -6.04411 -27.95232 -13.42221 "/>
<path d="M-61200.17211 6020066.26121l69.21846 -64.04399 62.50589 -59.72981 "/>
<path d="M-60998.9844 6019517.4338l32.78359 -2.81619 13.54758 -3.65611 44.37195 -16.996 56.03823 -17.9183 "/>
<path d="M-60955.21357 6019429.11027l66.34642 -92.9523 9.8963 -13.86717 9.06141 -12.69787 "/>
<path d="M-61051.8055 6019522.62152l1.75885 15.92547 4.55297 60.24313 1.15772 7.98737 1.69206 4.46304 2.81638 4.34776 5.55484 6.57104 4.78674 3.72194 5.51031 2.60206 3.82939 1.39984 3.74033 0.62581 2.76072 0.08234 2.46016 -0.24703 "/>
<path d="M-60751.44325 6019500.98128l-55.48163 -18.29708 -12.15609 -2.73386 -8.97235 -1.33399 -24.18973 -2.56917 "/>
<path d="M-60417.02836 6019624.38261l-4.40825 9.58482 -46.59834 99.76709 -24.05614 51.36527 1.78111 11.09973 "/>
<path d="M-60800.25684 6019679.84923l-5.29881 -2.48677 -6.01125 -2.83261 -5.20975 -2.43736 "/>
<path d="M-60765.63648 6019604.14248l6.71257 2.76676 162.18137 70.76613 118.86695 51.76085 9.84064 4.29829 "/>
<path d="M-60881.13045 6019937.33288l5.29881 -9.45273 30.16758 -11.59361 13.98173 5.82974 11.16534 4.64403 11.52157 33.49623 -5.35447 10.02908 -7.01313 13.15801 -29.09891 10.30901 -19.46978 -10.22667 -7.84802 -4.11702 -9.1282 -31.75053 5.77748 -10.32554 "/>
<path d="M-60814.34989 6019970.28562l54.35731 27.53463 "/>
<path d="M-60571.86264 6019977.6798l5.71069 2.76664 14.10418 7.62472 130.93399 64.99924 35.31054 17.96651 "/>
<path d="M-60437.3887 6020182.26048l8.33783 -19.53072 7.72557 -16.38542 35.52205 -75.30744 "/>
<path d="M-60292.69562 6019873.71611l115.21567 57.35886 28.89854 -54.47691 "/>
<path d="M-60338.35888 6019727.93758l82.56567 64.62242 107.2118 84.03806 113.28985 -132.07665 "/>
<path d="M-60677.68295 6019027.07286l35.22149 19.78033 67.45961 40.84516 8.87216 5.84677 15.75171 8.94308 69.35204 40.02142 19.67015 13.30749 9.62914 8.13601 8.44915 9.8159 28.53119 37.94593 2.29318 3.34332 3.00563 4.08445 5.43239 6.04432 20.04864 21.04803 "/>
<path d="M-60417.02836 6019624.38261l5.83314 -11.34699 4.18561 -8.08618 19.73695 -42.85193 33.99697 -68.95549 9.85177 -16.86429 6.17823 -11.80831 "/>
<path d="M-59789.93228 6019424.86123l-9.43989 9.9803 -49.39246 55.03964 -5.00938 5.22068 -4.8424 4.21607 -18.79073 14.77268 -42.65763 25.83978 -9.41763 5.69825 -37.84863 21.64013 -40.21973 18.0828 -7.09105 3.91958 -5.32107 4.46305 -56.07163 21.73882 -10.36384 3.27729 -3.68468 -0.04941 -3.77373 -2.79969 -5.93333 -7.72386 -7.30256 -10.96822 "/>
<path d="M-59867.44404 6019674.10167l-15.89642 -7.54265 -125.84668 -59.74859 -5.78861 -3.52432 -2.90544 -4.1172 -2.08167 -5.43471 "/>
<path d="M-60029.84804 6019243.33643l93.21894 -192.89281 3.25053 -6.73617 "/>
<path d="M-60033.6997 6018994.00124l46.1308 -96.30041 4.02977 -5.66573 3.16147 -3.24462 3.16147 -2.35523 5.76635 -3.95284 "/>
<path d="M-60084.20535 6019150.66211l51.37395 -104.84653 "/>
<path d="M-59857.50321 6019080.28695l-3.47317 7.01613 -7.94821 18.06734 -40.54256 92.85596 -19.06903 38.58813 -101.31187 6.52192 "/>
<path d="M-59762.32504 6019759.78773l-63.69701 -7.44377 -65.6451 -5.99454 -21.41787 -0.74108 -31.16946 -1.07045 -58.45386 2.58556 "/>
<path d="M-60183.07932 6019080.35283l73.89388 168.69851 71.06636 171.24794 2.23752 7.01586 0.44528 4.24904 0.23377 3.52439 "/>
<path d="M-60349.05668 6019178.34758l6.90181 0.80701 2.70506 -0.19764 3.29506 -0.49409 121.23806 -42.34348 31.83737 -55.76656 28.08591 -51.69885 "/>
<path d="M-61140.15978 6020140.89352l-0.08906 8.01981 -3.7292 11.26394 -45.74118 49.81478 "/>
<path d="M-61187.31471 6020232.61857l40.67614 -44.70967 4.11882 -4.52862 19.19148 -24.73452 26.00423 -28.86801 25.1582 -28.73636 "/>
<path d="M-60538.78962 6019811.84452l4.2858 -0.04941 10.55309 -0.13175 7.28029 -3.34309 26.36046 -12.12076 74.60632 -33.43099 74.39482 -33.41465 2.94997 -1.4163 44.07139 -20.61867 40.70954 -19.66354 "/>
<path d="M-60385.80325 6020071.03691l93.10762 -197.3208 36.90241 -81.15611 46.3423 -95.00698 "/>
<path d="M-60622.12339 6019935.86721l2.14847 -3.93589 3.62902 -7.36128 19.29167 -39.83665 7.74784 -15.79308 22.8205 -41.59902 4.21901 -3.70539 4.09656 -3.59011 "/>
<path d="M-60385.80325 6020071.03691l261.08873 132.51629 162.92721 82.35439 "/>
<path d="M-60881.78724 6019828.42819l81.5304 -148.57896 "/>
<path d="M-60550.7342 6019802.06228l-6.73483 -3.40896 -7.51407 -3.80421 -70.00883 -35.44015 -13.43626 -6.62034 -16.5866 -8.18486 -17.87791 -8.81067 -117.36414 -55.94385 "/>
<path d="M-60571.28378 6019483.27709l-8.21538 -4.18314 -11.04289 -5.97826 -16.87603 -10.73783 -29.74457 -19.54881 -3.85165 -2.51977 -42.13443 -28.59043 "/>
<path d="M-60703.88756 6019469.62425l14.1821 -10.45786 14.4604 -4.39725 "/>
<path d="M-60737.53944 6019406.58046l6.02238 8.99217 8.96122 11.21549 "/>
<path d="M-60722.36659 6019431.0701l-7.33595 9.00861 -12.51231 35.04621 -9.22839 25.85637 -46.77645 124.06008 -9.48442 25.1313 -9.07254 21.91983 "/>
<path d="M-60589.20622 6019494.92069l8.66066 2.38801 10.4529 1.18577 20.98372 0.2635 "/>
<path d="M-60703.88756 6019469.62425l10.35271 -19.49939 "/>
<path d="M-60686.28795 6019446.71576l11.04289 8.05339 "/>
<path d="M-60589.20622 6019494.92069l37.69278 23.88003 36.4794 25.29629 81.58605 68.32927 6.56785 4.92417 9.85177 7.03217 14.50493 7.60857 50.02698 18.65907 98.9185 37.00512 "/>
<path d="M-60692.2992 6019406.03698l-31.50342 -12.35189 -111.36402 -74.19408 -10.07441 -6.22541 -19.11356 -12.05558 -15.99661 -10.52394 -20.98372 -13.81784 -149.76924 -96.01728 -5.13183 -3.29392 "/>
<path d="M-60693.53485 6019450.12486l7.2469 -3.4091 5.63277 -5.66537 3.7626 -9.04155 0.0334 -8.004 -1.75885 -5.69833 -4.5307 -6.58767 "/>
<path d="M-60675.24505 6019454.76915l12.66816 -1.15284 14.19324 3.24441 4.74221 3.16206 4.94259 3.27735 49.49265 31.62056 "/>
<path d="M-60225.23601 6019680.91969l-53.66713 -18.14848 -119.44581 -42.73636 -12.84627 -6.99923 "/>
<path d="M-60000.51536 6019763.03202l19.46978 -4.85821 69.09601 0.3129 19.59223 0.08234 65.34454 0.60933 64.68776 0.60933 "/>
<path d="M-61139.55865 6019833.07227l19.03563 -21.57359 1.11319 -1.31747 -11.79987 -10.21042 -1.89243 1.97621 -4.5641 -4.28179 -12.69042 -12.02197 -2.60488 2.66789 -4.83127 4.94053 -25.40311 25.98716 -0.66792 1.15279 29.61098 29.31369 14.69417 -16.63303 "/>
<path d="M-60698.62215 6018980.13352l-5.1207 11.85838 15.47341 9.55258 0.89056 -1.3176 7.45841 -11.36427 1.00188 -1.3176 1.22451 -2.9646 0.44528 -1.3176 0.60113 -1.94346 -6.94634 -4.47984 1.44715 -2.4705 -5.23202 -2.4705 -1.11319 2.6352 -6.56785 -2.9646 -3.56222 8.5644 "/>
<path d="M-60781.10989 6019481.4655l6.60125 -3.60672 6.2005 -3.31028 5.78861 -15.48092 7.01313 -18.77477 -15.02813 -5.5995 -15.13945 -5.5995 -3.11695 -0.49407 -4.0075 14.32814 -1.89243 6.58764 -0.5566 2.30567 -1.22451 4.44665 -5.67729 20.25695 4.15222 0.97167 13.12457 3.07971 3.7626 0.88933 "/>
<path d="M-61138.1115 6020075.48324l21.59598 19.76146 12.51231 -13.75068 12.64589 -13.91538 -12.91306 -11.85691 -5.00938 -4.61103 -5.00938 -7.41058 -6.34521 -8.39867 -1.89243 1.31744 -14.13758 -15.15055 -2.78299 2.30552 -4.0075 -4.28168 -18.81299 16.79736 12.69042 12.51566 -9.1282 7.41058 4.5641 4.44634 7.45841 5.92845 8.34896 9.22203 "/>
<path d="M-60208.03715 6019864.19743l8.12632 -10.70441 -18.59035 -14.16277 3.4509 -4.28177 -7.12445 -5.43456 -11.79987 15.48026 -3.22827 2.9643 -10.24139 -4.9405 3.11695 -6.25797 -2.33771 -1.15279 -2.00375 -0.9881 -7.90368 -3.62304 -7.68104 -3.45836 -12.69042 27.0081 12.5791 6.09328 6.56785 3.29366 2.33771 9.22225 -2.00375 4.28175 -2.44903 4.7758 25.60348 12.68056 4.78674 -9.38691 -17.03188 -8.23414 21.26202 -20.25601 2.67167 -3.78771 14.58285 10.86909 "/>
<path d="M-60205.25416 6019005.99136l4.27467 -2.38814 1.62526 -0.90585 15.69605 -8.89378 -6.67917 -11.52898 -10.24139 5.76449 -4.23014 2.6352 -2.22639 1.1529 1.33583 10.87017 -2.78299 1.3176 3.22827 1.97639 "/>
<path d="M-60788.5683 6020069.55479l-3.78486 -1.97615 -20.70543 -10.53948 -4.78674 9.22204 -9.79612 -4.44634 -7.79236 12.02158 -5.56597 8.72799 -4.34146 6.75183 2.56035 1.64679 20.14883 12.3509 2.89431 1.64679 3.56222 2.3055 3.56222 2.3055 1.66979 -1.64678 1.44715 -1.81146 1.44715 -1.81146 1.00188 -1.64679 0.89056 -2.14082 0.11132 -1.31743 0.33396 -2.14082 0.11132 -2.3055 -0.11132 -1.31743 -0.33396 -1.97614 5.78861 2.14082 1.44715 -2.79954 8.34896 3.95229 6.79049 -13.00963 -8.5716 -4.11697 3.67354 -8.06928 "/>
<path d="M-60821.85282 6019399.614l-3.00563 11.85781 -0.50094 2.12452 -1.16885 4.95722 -3.78486 13.34001 -3.67354 12.68122 6.23389 1.8116 5.34334 1.64691 -2.33771 8.06986 -4.23014 14.1634 2.57148 0.57642 1.8813 0.41173 5.23202 -17.29253 1.66979 0.32938 1.22451 -4.11727 4.0075 1.15284 6.23389 1.8116 1.33583 -4.61135 9.57348 3.29382 0.5566 -2.30567 -5.1207 -1.64691 -2.22639 -0.82346 2.00375 -7.90517 5.56597 1.97629 5.00938 -16.46913 3.11695 0.82346 3.56222 -9.88149 -0.89056 -2.14099 -7.23577 -2.47038 -0.22264 -1.31753 -7.90368 -2.63507 -1.44715 4.77606 3.33958 0.98815 -3.89618 13.50471 -10.57535 -3.37617 -10.57535 -3.37618 3.67354 -13.66941 3.78486 1.15284 1.44715 -4.61137 -8.5716 -2.79976 "/>
<path d="M-61090.1328 6019492.17036l-4.23014 3.2938 -5.00938 -6.09354 4.0075 -3.2938 5.23202 6.09354 "/>
<path d="M-60445.48163 6019988.36758l11.24327 5.59914 -5.89993 11.857 -11.24327 -5.43445 5.89993 -12.02168 "/>
<path d="M-60416.64988 6019929.57637l5.89993 -12.18646 11.57723 5.92855 -5.89993 11.85709 -11.57723 -5.59918 "/>
<path d="M-60993.84144 6019091.14054l4.89806 -8.72899 10.79799 6.58792 -4.5641 7.90549 -11.13195 -5.76442 "/>
<path d="M-60187.22041 6019870.2907l2.33771 1.81151 -5.67729 7.24605 -2.33771 -1.81151 5.67729 -7.24605 "/>
<path d="M-60482.99629 6019957.57223l12.69042 6.58725 -5.00938 10.04555 -12.69042 -6.42256 5.00938 -10.21023 "/>
<path d="M-60511.04881 6019943.40963l-5.1207 10.21025 -13.24702 -6.58726 5.1207 -10.53962 13.24702 6.91663 "/>
<path d="M-60490.89998 6019903.72128l-13.02438 -6.5873 5.1207 -10.21032 13.24702 6.5873 -5.34334 10.21031 "/>
<path d="M-61167.72248 6019818.74478l15.02813 -16.13904 16.03001 15.48031 -14.58285 16.63306 -16.47528 -15.97433 "/>
<path d="M-60486.00192 6019706.75898l-3.33958 -1.64686 1.11319 -2.30561 3.33958 1.64686 -1.11319 2.30561 "/>
<path d="M-60781.77781 6019461.37325l-8.90556 -2.63505 7.12445 -20.91576 9.46216 3.29382 -7.68104 20.25699 "/>
<path d="M-60457.61545 6019907.34429l13.02438 6.58729 -5.23202 10.53965 -13.24702 -6.75196 5.45466 -10.37498 "/>
<path d="M-60826.41692 6020072.35434l4.45278 1.97615 -2.67167 5.76377 -4.5641 -2.14083 2.78299 -5.59909 "/>
<path d="M-60200.69007 6018991.8272l0.89056 1.3176 2.44903 4.28219 -5.89993 3.29399 -1.22451 -6.91738 3.78486 -1.9764 "/>
<path d="M-60303.21532 6019733.93214l0.89056 -0.49406 1.78111 2.79965 -1.33583 0.98811 -1.55847 -1.31748 0.22264 -1.97623 "/>
<path d="M-60239.98585 6019850.52872l-7.23577 6.42265 -2.89431 -3.62303 -2.00375 -0.82342 3.22827 -6.42265 8.90556 4.44645 "/>
<path d="M-61077.55369 6019128.85625l-1.00188 -0.65879 1.78111 -2.47046 1.78111 1.31758 -0.77924 1.15288 -1.33583 0 "/>
<path d="M-61114.62308 6020066.42589l-1.44715 -1.31743 -3.11695 -2.63487 -1.33583 -1.15276 5.45466 -5.26974 5.45466 4.94038 -5.00938 5.43442 "/>
<path d="M-61005.41866 6019093.611l0.89056 3.12926 22.2639 12.68171 4.67542 -8.23488 6.79049 -12.35233 1.44715 -2.63517 -22.37522 -12.84644 -13.6923 20.25785 "/>
<path d="M-61208.46542 6019025.26117l16.03001 10.37603 8.5716 5.43506 7.01313 -10.87012 -4.89806 -3.12928 -7.01313 -4.61157 -12.91306 -8.07026 -5.59937 8.95963 -1.19112 1.91051 "/>
<path d="M-60687.04492 6018990.01551l-2.56035 -1.647 0.77924 -1.4823 -0.11132 -0.6588 -3.11695 -1.9764 4.11882 -6.9174 6.90181 3.6234 -6.01125 9.05849 "/>
<path d="M-61125.86635 6020078.61214l-6.01125 -5.43441 -0.44528 -0.49404 6.56785 -6.42249 1.00188 0.8234 3.4509 3.1289 1.78111 1.64679 -6.34521 6.75184 "/>
<path d="M-60192.56374 6019868.47919l-5.78861 7.41073 3.67354 2.79961 8.015 6.09326 2.00375 -2.79961 3.22827 -3.95239 8.5716 -10.86907 -11.91119 -9.05757 -7.79236 10.37503 "/>
<path d="M-60297.53802 6019753.20032l7.90368 -10.53986 -2.78299 -2.47028 1.22451 -1.48217 -3.33958 -2.63497 -7.68104 -10.37519 -16.25265 7.24617 -0.89056 3.95245 21.81862 16.30385 "/>
<path d="M-61064.52931 6019129.51504l-11.13195 -7.41137 -1.55847 -0.98818 -2.22639 -1.48228 -1.78111 2.79985 -7.79236 12.84637 2.56035 1.64697 10.66441 -2.61868 9.48442 -2.32223 1.78111 -2.47046 "/>
<path d="M-60494.4622 6019698.35998l-5.56597 12.51614 17.25452 7.41087 3.00563 -6.25806 -2.56035 -1.31749 1.22451 -2.63498 1.11319 -2.47029 -12.13382 -6.09339 -2.33771 -1.1528 "/>
<path d="M-60047.40313 6019889.88795l20.14883 13.00991 -2.67167 4.28174 34.843 22.39676 2.67167 -4.28173 20.14883 13.00986 20.14883 -31.78362 0.89056 1.64682 2.67167 0.49405 -0.44528 -1.31746 28.16383 -44.79369 -12.5791 -7.08138 -17.1432 -26.67873 -6.23389 -3.95241 -23.37709 -13.83345 6.34521 -10.86916 -9.1282 -5.76395 -4.23014 7.08143 -1.22451 -0.82342 -1.44715 2.1409 -4.67542 6.91674 -6.90181 1.64684 -4.78674 7.90483 -0.66792 -1.15279 -2.78299 0.82342 -1.00188 -0.82342 -1.22451 2.63494 -1.22451 -0.82342 0.5566 1.64684 -3.89618 6.42267 -1.22451 -0.82342 -0.77924 1.15279 1.33583 0.82342 0.44528 1.64684 0.89056 -0.9881 4.0075 2.63494 -3.11695 4.77583 -1.78111 0.65873 -1.89243 5.59924 -1.11319 -0.49405 0.5566 1.48215 -3.00563 4.77582 -1.55847 -0.16468 0.77924 1.15278 -3.00563 4.9405 -1.11319 -0.65873 0.5566 1.64683 -0.66792 1.15278 -4.0075 7.24606 -1.66979 -0.82342 -1.44715 2.47025 1.55847 0.9881 -4.11882 6.42264 -5.34334 -3.45834 -19.49204 -13.52048 -1.76998 2.48672 -2.67167 3.29366 20.26015 13.17464 -3.4509 5.26985 -0.89056 1.64683 5.56597 3.45834 -2.78299 3.95238 "/>
<path d="M-61087.79509 6019494.97009l0.77924 0.82345 5.78861 -4.77601 -6.71257 -8.3992 -3.41751 -4.28195 -20.26015 15.97496 2.33771 2.79973 7.45841 8.89326 8.90556 -7.41105 5.1207 -3.62318 "/>
<path d="M-60818.59116 6019531.81119l1.24678 -19.58159 -1.73658 -32.27926 "/>
<path d="M-60998.9844 6019517.4338l7.54746 -14.82208 7.19124 -14.14688 13.11344 -25.77406 15.91869 -33.5805 "/>
<path d="M-60879.26029 6019663.13353l43.52592 44.0207 "/>
<path d="M-61027.76049 6019774.90581l1.71432 -2.04209 26.70555 -31.96538 "/>
<path d="M-61120.56755 6019886.87426l18.72394 -23.23675 4.88693 -5.92859 20.11543 -24.98248 8.14859 -10.16099 7.55859 -9.5352 15.07266 -16.91307 9.46216 -10.62215 8.83877 -10.58922 "/>
<path d="M-61062.29179 6019687.80359l-51.32942 -43.5432 -111.82043 -94.82745 -22.24163 -18.62635 -35.77808 -30.07234 -45.62986 -38.33992 -65.7119 -57.93839 "/>
<path d="M-60550.7342 6019802.06228l-1.53621 0.27996 -3.49543 1.5645 -3.09468 3.24428 -1.39149 3.42543 -0.14472 3.77127 2.22639 5.69807 "/>
<path d="M-60624.28299 6019951.80838l2.78299 -0.83988 2.30431 -1.71269 1.98149 -3.55712 0.2449 -2.75018 -0.66792 -2.70078 "/>
<path d="M-60800.25684 6019679.84923l34.62036 -75.70675 14.4604 -30.23677 18.24526 -38.14196 20.60524 -46.92012 8.43802 -19.21937 "/>
<path d="M-60387.27266 6019562.09752l5.94446 2.65149 1.29131 0.55994 "/>
<path d="M-60149.70574 6019562.32808l17.47716 5.10535 "/>
<path d="M-60132.22858 6019567.43344l43.04725 16.78176 "/>
<path d="M-60336.61116 6018844.60091l-3.95184 4.36461 -26.38272 27.43938 -72.56918 75.16961 -106.34351 104.79826 -29.14344 31.32559 "/>
<path d="M-60366.94572 6018876.4049l4.38599 4.49636 5.37673 5.38575 2.6828 6.25866 0 4.06813 -66.27962 67.51088 -101.89073 106.41215 -23.18785 -14.16406 "/>
<path d="M-60420.77983 6018964.12467l11.98911 -1.59759 4.49731 1.43289 4.35259 2.17404 57.24048 40.38439 8.41575 7.69146 3.95184 3.82102 4.70881 2.61872 23.88916 14.16411 5.3656 2.83282 5.20975 3.72219 3.18374 2.5693 2.58261 3.32691 3.18374 2.65165 6.1671 4.13393 "/>
<path d="M-60957.51789 6019964.02774l-3.91845 -3.24422 -2.11507 -1.74562 -2.08167 -0.29643 -2.29318 -0.32936 -7.70331 1.66328 "/>
<path d="M-60980.21593 6019971.52073l-18.32319 13.12507 -11.4993 10.91833 -87.04071 97.27627 "/>
<path d="M-60957.75166 6019978.99724l11.73307 5.31919 29.85589 13.78377 "/>
<path d="M-60727.33144 6020012.60855l-3.52883 5.13802 -5.06504 3.60649 -6.00012 1.66327 -6.21163 -0.49404 -3.91845 -2.17378 -3.98524 -2.22318 -3.68468 -5.02275 -1.73658 -5.97789 0.41188 -6.22492 1.05754 -3.07953 3.50656 -5.1545 5.04277 -3.63944 8.33783 -1.5974 6.74596 1.36685 5.16522 3.47476 3.66241 5.03923 1.71432 5.9779 -0.43415 6.20845 -1.0798 3.11246 "/>
<path d="M-60816.77665 6019672.09249l-18.95771 35.06173 -62.29439 112.71041 "/>
<path d="M-60571.87378 6020093.18622l7.2135 3.59 114.97077 56.10584 20.63863 9.84771 200.11905 96.40161 491.65366 246.96042 "/>
<path d="M-60957.51789 6019964.02774l7.64765 -9.86441 21.57372 -42.01032 46.50928 -83.72482 "/>
<path d="M-60980.21593 6019971.52073l2.29318 5.418 0.70131 0.60932 3.71807 3.21128 8.07066 3.0466 "/>
<path d="M-60609.29939 6020122.97655l16.07453 -5.28617 11.54383 -4.97328 4.11882 -2.48664 12.90193 -13.45424 3.27279 -9.40316 1.55847 -11.1817 -0.45641 -10.85236 -2.79412 -9.30438 -13.43626 -17.20902 "/>
<path d="M-60992.08259 6020016.92317l12.49005 -14.37659 14.15984 -18.74065 "/>
<path d="M-60002.70835 6019747.12344l-27.16196 -12.54903 -27.77421 -7.14736 -39.29578 -10.17758 -59.13291 -14.42649 -69.1628 -21.90329 "/>
<path d="M-60253.57796 6019687.65537l44.12705 9.89765 71.54504 26.4321 102.61431 20.53629 34.77621 18.51061 "/>
<path d="M-60633.50025 6019944.513l0.85716 2.78312 2.34884 2.86546 1.16885 0.74107 1.90356 0.70813 2.93883 0.19762 "/>
<path d="M-60622.12339 6019935.86721l-3.66241 -0.57639 -2.77186 0.6752 -2.39337 1.58094 -1.10206 1.28452 -1.23565 2.70078 -0.21151 2.98074 "/>
<path d="M-60722.36659 6019431.0701l2.47129 7.60874 4.90919 6.30767 3.40638 2.53624 7.43614 2.9315 10.60875 -0.32938 "/>
<path d="M-60683.14874 6019411.71885l-9.15046 -5.68187 "/>
<path d="M-60722.55584 6019426.78812l0.18924 4.28198 "/>
<path d="M-60692.2992 6019406.03698l-7.91482 -1.16931 -9.74046 2.47038 -6.40087 4.79253 -4.44165 6.85117 -1.75885 7.80638 "/>
<path d="M-61122.69375 6019147.45053l22.41975 1.15288 14.82776 3.24452 10.4529 -0.29645 7.31369 -1.94342 6.40087 -2.09165 "/>
<path d="M-61063.95045 6019172.30323l-33.49603 -8.58068 -7.39161 -1.86107 -8.31557 -0.62585 -7.44727 0.47762 -7.04652 1.20228 -11.26553 2.3881 "/>
<path d="M-61143.07635 6019135.59236l20.3826 11.85817 25.24726 16.27202 35.18809 22.69514 97.44908 62.83129 70.98844 45.14272 6.99086 4.44673 12.80174 8.13587 4.11882 2.61863 "/>
<path d="M-60558.17035 6019820.04578l2.1262 1.6139 2.49356 1.36688 0.72358 0.24703 3.69581 0.47758 1.80338 -0.39524 1.82564 -0.41171 3.79599 -2.58554 1.65866 -2.30558 0.95735 -2.45379 0.30056 -3.7548 "/>
<path d="M-60888.84489 6020010.66532l-68.27224 95.81046 "/>
<path d="M-61010.50596 6020068.20442l46.50928 -52.54929 "/>
<path d="M-61255.60922 6019068.04988l12.16722 7.4773 67.50414 40.35094 32.86151 19.71425 "/>
<path d="M-61158.77239 6019111.48069l-10.51969 -6.52202 -59.87875 -37.17231 -18.97997 -11.77593 "/>
<path d="M-60411.19522 6019613.03562l-15.08379 -10.6059 -81.06285 -66.13898 -6.76823 -6.88402 -21.94107 -19.86157 -13.05778 -10.78719 "/>
<path d="M-61174.70221 6020187.03612l-38.22711 42.10779 "/>
<path d="M-61010.50596 6020068.20442l-7.95934 -5.07212 -10.39724 -8.49746 "/>
<path d="M-60960.64596 6019981.10516l2.89431 -2.10792 "/>
<path d="M-60963.99668 6020015.65513l13.20249 -14.90357 -4.73108 -8.16816 -5.1207 -11.47825 "/>
<path d="M-60957.11714 6020106.47578l-53.38883 -38.27136 "/>
<path d="M-60888.84489 6020010.66532l5.18749 2.32199 103.96127 54.70661 13.15796 24.12547 26.89479 32.6722 20.58297 12.6308 "/>
<path d="M-60965.4327 6019983.80592l4.78674 -2.70077 "/>
<path d="M-60538.78962 6019811.84452l-0.97961 -3.59011 -1.48055 -2.32205 -1.19112 -1.21866 -3.28392 -1.99268 -5.00938 -0.65874 "/>
<path d="M-61063.95045 6019172.30323l-36.32355 -23.69982 -7.05766 -4.67739 -39.51842 -25.05042 -11.92232 -7.39491 "/>
<path d="M-60869.90945 6019309.59293l18.64601 12.18732 43.70403 28.57426 30.8021 22.05235 25.23613 16.68333 6.99086 8.74515 6.99086 8.74514 "/>
<path d="M-60869.90945 6019309.59293l1.17999 -1.77869 1.87017 -2.83273 2.50469 -3.77149 "/>
<path d="M-60719.06041 6020137.12239l84.81432 37.39827 "/>
<path d="M-60634.24609 6020174.52066l115.00417 58.95423 "/>
<path d="M-61248.23987 6019572.81876l29.74457 25.87254 16.27491 16.41939 3.12808 8.66257 28.66477 28.96851 "/>
<path d="M-60662.09822 6019165.38598l10.98723 -6.81843 23.88916 -14.95446 22.73144 -1.67991 18.20074 6.76904 16.55321 12.79692 9.11707 13.15924 5.52145 0.64232 4.09656 -0.31292 13.18023 -6.35728 8.34896 -1.6799 8.95009 -1.3011 10.04102 -1.79519 18.73507 6.93372 16.00774 3.34333 "/>
<path d="M-60550.37798 6019102.48821l-11.75534 19.71428 -2.00375 3.55746 -3.57336 6.39025 -2.54922 13.53808 9.64027 28.97011 5.32107 8.25128 3.91845 9.38767 3.75147 12.8298 5.58824 17.26008 0.97961 3.6233 "/>
<path d="M-60750.9757 6019214.72888l-4.68655 -23.53501 3.7292 -23.3045 32.54982 -42.29412 "/>
<path d="M-60719.38323 6019125.59525l57.28501 39.79074 9.19499 12.84631 12.02251 13.40625 -6.18936 16.9966 -10.06328 11.34752 -1.16885 3.65624 "/>
<path d="M-60514.11009 6019529.40673l-1.59187 -7.74041 -0.20038 -5.69826 1.95922 -9.66729 4.60863 -6.45585 8.21538 -6.57113 "/>
<path d="M-61333.7555 6020403.33657l8.97235 -4.14976 63.71928 -73.5597 10.68667 -12.67993 8.66066 -4.98964 4.61976 -8.03613 33.50717 -39.29149 14.93908 -17.52149 8.37123 -3.91929 3.92958 -7.88798 35.90054 -39.58822 49.42585 -55.57861 10.23026 -11.18164 "/>
<path d="M-61171.18452 6020166.63262l4.51957 4.51216 3.71807 3.1124 9.87404 8.26679 6.43427 5.38494 6.18936 3.80404 "/>
<path d="M-61174.70221 6020187.03612l11.75534 -12.77894 "/>
<path d="M-61165.36251 6020195.82986l12.28967 -13.30589 "/>
<path d="M-61091.02335 6020136.13433l-6.30068 -6.35657 -17.84451 -16.71484 -4.37486 -4.46278 "/>
<path d="M-61006.22016 6019977.21869l7.68104 7.42711 18.94658 17.90078 6.82388 6.42253 "/>
<path d="M-60977.92275 6019937.79399l12.31194 7.52595 15.74058 8.84339 7.79236 5.25333 "/>
<path d="M-60977.92275 6019937.79399l-28.29741 39.4247 -9.51782 13.17446 -4.45278 10.29254 -74.95141 78.27228 "/>
<path d="M-61470.2332 6020493.39566l103.21543 -112.96512 75.55254 -82.6993 60.2795 -63.2189 27.54044 -30.31691 32.46076 -37.56282 31.10267 -32.29328 3.74033 -7.04822 16.79811 -18.69098 5.15409 -7.69049 19.24714 -21.95168 "/>
<path d="M-60924.02185 6019922.98909l3.68468 6.85077 5.28768 3.01368 6.80162 -1.21865 6.56785 -5.0722 20.54958 10.77019 "/>
<path d="M-60915.0495 6019932.85353l-17.53282 33.41387 -7.99274 1.76209 "/>
<path d="M-60901.68003 6019926.56269l-0.31169 -5.7968 -2.49356 -4.79225 -6.00012 -3.75475 -8.15972 0.46111 "/>
<path d="M-60869.93171 6019983.52597l-9.88517 21.22733 -3.84052 8.23402 -68.45035 95.99158 "/>
<path d="M-60939.45073 6019974.40264l27.27328 15.49647 32.36058 14.85419 82.20944 41.92753 23.45502 11.6099 8.72745 13.20728 22.019 33.14985 37.7707 19.33323 60.02347 30.67948 4.8424 0.59284 3.74033 -3.21121 19.40299 -39.11102 11.27666 0.9716 15.8185 -4.7098 8.8165 -6.86709 6.25616 -10.88526 2.84978 -9.12321 0.89056 -12.91084 -3.22827 -13.63545 "/>
<path d="M-61113.50989 6019441.64327l12.63476 3.75496 "/>
<path d="M-60860.50295 6019333.63816l9.23952 -11.85792 6.02238 -8.51465 6.23389 -8.69582 -11.03176 -7.82296 -7.85916 -5.55019 -15.51794 -9.91458 -6.9352 9.40403 -6.47879 8.15235 -10.96497 14.92125 "/>
<path d="M-60461.35578 6019155.81712l-2.27092 2.83278 -12.11156 15.48146 -15.70718 20.09291 -7.29143 11.29813 -2.57148 11.13342 1.03527 14.88845 -0.54547 12.05567 1.09093 11.95684 4.5641 12.91205 20.0709 39.18071 -0.95735 11.39679 -5.0539 6.3407 -34.97658 -35.65618 -9.50668 -14.18017 "/>
<path d="M-60553.28342 6019326.83633l49.77094 8.46523 11.39912 -1.97632 11.0095 -7.93821 7.62539 4.87492 54.51315 34.79961 9.70706 4.77608 8.66066 2.53626 7.01313 -0.59289 7.61425 -1.35048 4.77561 -4.33141 6.86841 -8.66283 2.6828 -10.8862 -3.28392 -5.97836 -18.05602 -15.06943 -41.09916 -39.49355 -7.58086 -5.87958 -7.97048 -3.90325 2.88317 -8.41588 9.02801 -10.19459 1.61413 -2.65158 7.03539 -19.43399 -8.63839 -28.12996 -9.06141 -11.42988 -9.25065 -9.50295 -8.59386 -7.11487 -11.12082 -5.22087 "/>
<path d="M-60719.38323 6019125.59525l6.4454 -9.17364 61.82685 42.14594 "/>
<path d="M-60510.48108 6019163.85431l-8.30443 -11.80874 -8.19311 -8.26777 -9.618 -5.38559 -27.54044 -12.63226 "/>
<path d="M-60712.93783 6019116.42161l-4.29693 -2.6681 -8.93896 -6.19262 -5.48805 -3.78804 "/>
<path d="M-60716.51119 6019384.19882l-7.29143 9.48627 -13.73683 12.89538 -10.01875 9.00864 "/>
<path d="M-60839.00716 6019304.56977l122.49597 79.62905 23.27691 -1.67986 25.90405 13.22478 14.59399 9.38744 15.51794 27.66818 -3.79599 7.50992 -7.68104 9.35445 12.55684 8.10279 -2.56035 5.53361 -5.81088 7.36167 -14.26003 -5.08894 -15.38435 -1.13637 -13.34721 3.50791 -8.25991 9.61793 -7.92595 15.26679 -8.63839 -3.9855 -29.88928 -13.71871 -11.93345 -5.15481 7.46954 -21.49215 3.7292 -15.38215 1.13546 -9.61798 -5.74409 -7.88872 -16.0968 -19.03837 -26.69441 -17.34208 -70.15354 -45.57048 -18.4679 -11.34737 -18.82413 -8.53112 -173.92557 -113.62283 -46.01948 -30.5017 -9.90743 -6.71961 -12.77948 -8.69598 -18.45677 -11.72641 -23.8335 -15.30035 -67.30376 -42.1955 -12.8574 -7.82315 -63.8306 -38.75354 -8.61613 -4.49628 -50.44999 -33.18689 -3.33958 -4.0022 -20.54958 -12.15484 -14.62738 -10.11257 -7.20237 -4.97394 -8.87216 -6.14332 "/>
<path d="M-60640.88073 6019191.63855l10.06328 8.94298 15.017 12.78038 7.44727 3.2445 7.95934 2.20692 11.35459 2.38808 11.87779 0.82348 11.64402 -0.04941 11.64402 -1.08699 11.83326 1.49873 "/>
<path d="M-60657.4228 6019380.8391l-5.76635 9.05807 -4.14109 5.84657 "/>
<path d="M-61182.71722 6019127.19281l6.77936 -11.3147 6.64577 -10.91944 5.93333 -9.25601 "/>
<path d="M-61071.72055 6019200.13685l9.46216 -13.71916 6.02238 -8.86065 "/>
<path d="M-60888.86716 6019336.15797l41.76707 25.87325 43.79309 19.56546 12.95759 -2.38804 13.59211 -6.80179 "/>
<path d="M-60644.50974 6019470.6618l52.92129 35.60603 32.42737 19.38398 7.64765 -6.85109 5.38786 -5.45123 4.47504 3.72199 5.59937 -7.52632 6.86841 -6.10999 7.29143 -0.14822 7.94821 3.01383 10.30818 4.62778 "/>
<path d="M-60534.55948 6019468.94902l1.93696 14.32807 2.23752 13.12581 1.20225 7.03226 "/>
<path d="M-60637.21832 6019432.79936l53.45562 34.33807 13.79248 2.9809 35.41073 -1.1693 161.56911 -14.29516 1.05754 12.96116 1.19112 11.19896 0.30056 15.82673 -127.78364 11.06717 -5.41013 5.22067 -1.76998 4.16665 -0.45641 4.776 1.66979 6.90049 81.81983 69.51516 3.16147 -0.75757 6.15597 -1.48219 44.53893 -89.26147 -1.92583 -10.1449 "/>
<path d="M-60370.44116 6019494.64071l17.16547 -1.49868 7.31369 1.35046 -35.3662 70.25652 -21.10618 42.34138 -4.57523 -2.14094 -12.20062 -9.42016 "/>
<path d="M-60422.3717 6019596.28685l-3.90731 6.14287 -7.16898 9.99656 -4.95372 7.70739 -112.00967 -91.31982 -8.74971 -3.16204 "/>
<path d="M-61376.53558 6019896.59053l73.11464 70.33559 30.01173 28.32511 56.37219 54.98667 16.8649 16.0233 63.8306 61.02991 "/>
<path d="M-61134.66059 6020135.11332l-1.68092 -4.18282 -3.16147 -8.20097 -6.24502 -7.17997 -229.41834 -220.26002 "/>
<path d="M-61134.66059 6020135.11332l-5.49918 5.78019 -26.50517 30.25126 -32.53869 36.80528 "/>
<path d="M-61185.93435 6020213.74667l43.34781 -47.50928 5.87767 -8.94198 2.04828 -7.82218 0.74584 -7.83866 -0.74584 -6.52124 "/>
<path d="M-59214.94484 6020222.42512l-28.36421 -18.27908 -81.22983 -51.90622 -260.86609 -156.18164 -281.72737 -167.86053 -21.429 -12.84534 -29.85589 -17.8847 -26.03763 -16.3367 -36.59072 -22.95707 "/>
<path d="M-60735.80286 6019947.01615l-86.99618 -41.35162 -61.10327 -30.18632 -20.58297 40.49542 "/>
<path d="M-60818.06796 6019896.9199l1.62526 -3.62301 "/>
<path d="M-60879.88367 6019867.55696l1.62526 -3.98533 "/>
<path d="M-60868.47343 6019857.44542l55.59295 27.88082 69.48563 34.84678 1.6364 -4.52876 -68.90676 -35.25851 -56.89539 -29.09949 -2.35997 5.07224 1.44715 1.08691 "/>
<path d="M-60741.94769 6019902.68378l2.84978 -6.24146 2.79412 -7.64127 "/>
<path d="M-60726.01787 6019910.53912l3.47317 -5.79682 3.56222 -6.98253 "/>
<path d="M-60752.0555 6020020.34852l-13.1357 29.09893 118.28809 61.70521 14.50493 -3.62293 9.42876 -12.68025 6.54559 -8.94206 "/>
<path d="M-60582.13743 6019883.20184l21.47353 10.49028 "/>
<path d="M-60636.89549 6019951.79192l-1.8479 -4.26525 -0.38962 -2.12439 0.08906 -2.51963 1.28017 -4.47934 2.48242 -3.55712 3.47317 -2.5855 4.11882 -1.38333 4.33033 0 3.38411 1.05396 4.23014 2.88193 2.49356 3.54066 1.25791 4.14998 -0.15585 2.48669 0.04453 1.84443 -1.46942 4.0841 -1.24678 1.54801 -1.65866 2.07499 -2.72733 1.82796 -1.23565 0.60932 -4.55297 0.97162 -4.59749 -0.62579 -4.12995 -2.14086 -3.17261 -3.39244 "/>
<path d="M-60566.35233 6019814.95705l-16.08567 30.77939 -10.49743 20.99711 -7.95934 15.90837 -9.33971 18.675 -10.58648 20.83229 -1.97035 3.88649 -4.89806 4.84165 "/>
<path d="M-60555.76584 6019797.69815l-1.70319 0.95517 -3.03902 1.71272 -3.59562 4.10064 -2.02601 5.0558 -0.22264 5.43457 1.48055 4.97346 2.60488 3.70539 4.54184 3.59011 4.92032 1.59743 5.17636 -0.04941 4.88693 -1.69624 4.10769 -3.14546 2.89431 -4.29825 1.38036 -4.98992 -0.14472 -2.84903 -0.12245 -2.30558 -2.03715 -5.0558 -3.59562 -4.08417 -4.76447 -2.65142 -5.3656 -0.92223 -5.37673 0.92223 "/>
<path d="M-60611.99332 6019942.50388l0.42301 -4.16645 -0.8015 -5.61565 0 -5.4839 8.96122 -19.10312 10.67554 -21.19463 3.58449 -7.11429 4.3192 -8.57998 9.74046 -19.36674 6.412 -10.42446 5.48805 -4.80876 15.56246 -7.87188 "/>
<path d="M-60796.26047 6019838.91854l-0.30056 0.69167 -12.11156 21.52411 "/>
<path d="M-60821.94188 6019854.16823l10.27479 -22.06759 1.17999 -0.41171 "/>
<path d="M-60790.9394 6019841.61935l-0.20038 0.69167 -11.85553 21.80407 "/>
<path d="M-60810.4871 6019831.68893l6.86841 3.49129 7.35822 3.73832 1.95922 0.9881 3.36185 1.71271 17.84451 9.05759 53.61147 -105.57913 -19.44752 -9.88113 -15.16171 -7.70729 "/>
<path d="M-60810.4871 6019831.68893l56.39445 -104.17953 "/>
<path d="M-60754.09265 6019727.5094l-19.89279 -10.09524 -57.96406 103.3727 21.4624 10.90207 "/>
<path d="M-60794.30125 6019839.90664l55.37031 -104.68996 "/>
<path d="M-60815.40743 6019857.61011l11.32119 -21.73821 0.46754 -0.69167 "/>
<path d="M-60545.02351 6019797.69815l-28.23062 -14.72279 -58.34255 -30.38437 -7.35822 -3.83717 -67.23697 -32.36072 -74.39482 -37.63081 -1.98149 -2.75027 -0.99074 -4.51242 0.22264 -7.0486 2.63827 -10.12825 12.32307 -25.97119 9.45102 -21.44235 5.52145 -11.89048 15.84076 -33.23414 28.83175 -59.53522 5.04277 -9.42027 "/>
<path d="M-61142.06334 6019461.35678l28.17496 33.21806 23.52181 27.56908 4.83127 5.40182 "/>
<path d="M-61171.0732 6019494.8054l29.00986 -33.44863 28.55345 -19.7135 "/>
<path d="M-60309.08185 6019596.79739l49.63736 28.57335 17.46603 7.52622 6.40087 1.67981 9.97423 -0.59287 22.11918 -15.62885 14.89455 -12.61509 14.90568 -27.71703 15.23964 -15.1843 1.89243 -1.43279 3.30619 -0.11528 3.53996 1.03754 "/>
<path d="M-60364.7416 6019572.1106l32.97283 14.62434 "/>
<path d="M-60380.0369 6019565.30895l15.2953 6.80164 "/>
<path d="M-60331.76877 6019586.73493l22.68691 10.06245 "/>
<path d="M-60123.36755 6019400.35511l-22.46427 -28.12942 -5.52145 -5.23722 -3.43977 -1.7128 -4.77561 -1.7128 -8.54934 -1.4987 -8.17085 -0.74112 -76.12027 -2.55274 -16.5866 -0.88934 -7.82576 -1.10344 -8.98348 -2.27276 -6.21163 -2.93153 -4.34146 -3.29386 -4.55297 -4.52906 -4.69768 -4.82551 -14.17097 -14.98708 -58.09764 -68.39742 -4.41938 -6.35722 -1.66979 -2.94804 "/>
<path d="M-60100.75856 6019442.31851l-1.19112 -5.00661 -2.01488 -6.04417 -2.53808 -4.8584 -2.98336 -4.62783 -13.88154 -21.42639 -129.28646 5.30308 "/>
<path d="M-61158.90598 6019772.79784l16.00774 -15.48039 6.23389 -6.58741 3.78486 -3.95245 6.34521 -6.42273 5.89993 -6.09336 4.89806 -4.94057 6.56785 -6.58743 3.89618 -4.28183 8.015 -8.06961 4.11882 -4.28184 6.34521 -6.42276 12.38986 -11.79154 -21.40674 -18.51077 -15.02813 -12.84558 -17.03188 -14.1631 -15.13945 14.32778 -14.02626 13.50433 -1.22451 -1.15281 -2.56035 2.96436 -2.78299 3.12905 -6.34521 7.08152 -3.67354 3.6231 1.89243 2.14092 -3.11695 3.12904 -3.78486 3.95247 -13.02438 13.83364 -6.67917 6.75212 3.89618 27.17313 14.91681 12.51608 20.61637 17.45661 "/>
<path d="M-60108.85149 6019303.92747l10.60875 -4.29851 2.19299 5.12198 -11.35459 4.77612 -2.33771 -5.1055 "/>
<path d="M-60727.53182 6019997.30974l18.24526 -27.30408 49.42585 24.43864 8.28217 -15.18356 61.49289 28.50621 6.57898 -13.45439 6.67917 -5.94497 "/>
<path d="M-60590.08564 6020007.76695l15.46228 8.38223 2.46016 1.6468 "/>
<path d="M-61746.17195 6018758.79049l112.34363 60.36385 1062.70039 676.55686 169.42826 130.71354 262.04608 90.67652 131.99152 34.20519 748.96867 448.47566 44.59459 30.84389 "/>
<path d="M-60634.99193 6019759.40895l3.39524 -6.81796 34.85413 -74.91562 "/>
<path d="M-61056.23601 6019177.55704l-7.71444 -5.25381 "/>
<path d="M-61081.47214 6019421.15567l-13.71456 10.49084 -5.68843 13.75171 -0.13358 6.17591 1.21338 5.96181 3.47317 6.96642 5.94446 7.22992 10.15234 7.75692 "/>
<path d="M-61080.22536 6019479.48921l6.34521 5.81357 12.81287 17.78653 6.40087 11.38007 2.86091 8.15214 52.8211 -5.18772 "/>
<path d="M-60898.02875 6019819.86463l-20.31581 -10.65506 -80.99606 -68.31124 -42.44612 -35.80269 -20.50505 -17.29206 "/>
<path d="M-60898.02875 6019819.86463l-41.82273 77.82927 -24.23425 44.80998 -1.52508 2.81605 -10.01875 14.75545 "/>
<path d="M-60869.28606 6019248.0467l1.79224 1.31756 -2.6828 4.01855 -1.93696 -1.26815 2.82752 -4.06796 "/>
<path d="M-60882.90043 6019181.98736l-41.21048 -23.73273 -1.12433 2.0093 41.24387 23.55156 1.09093 -1.82813 "/>
<path d="M-60865.65704 6019191.88559l1.14659 0.65878 -1.00188 1.91047 -1.30244 -0.64231 1.15772 -1.92694 "/>
<path d="M-60906.01036 6019250.33596l4.2524 2.76687 3.06129 2.00928 -0.91282 1.46578 -7.20237 -4.72674 0.8015 -1.51519 "/>
<path d="M-60857.00752 6019219.0933l1.5696 -2.6516 7.16898 4.18326 -4.02977 6.22548 -1.82564 -1.26815 2.1596 -3.42566 -5.04277 -3.06333 "/>
<path d="M-61112.61933 6019536.30721l6.07804 -0.36232 "/>
<path d="M-61077.08615 6019340.73644l-11.08742 -0.72465 "/>
<path d="M-61093.69502 6019324.18477l10.56422 11.3803 14.14871 -18.79151 "/>
<path d="M-60050.69818 6018963.71292l7.63652 3.65634 -8.93896 18.4464 "/>
<path d="M-61158.77239 6019111.48069l15.69605 24.11167 "/>
<path d="M-61072.16583 6020101.04139l43.30328 -46.40655 "/>
<path d="M-61097.07913 6020092.8404l-18.08942 20.22252 -19.49204 22.0504 "/>
<path d="M-61028.86255 6020054.63485l36.77996 -37.71168 "/>
<path d="M-60990.15676 6019609.09958l37.74844 -38.73469 "/>
<path d="M-60975.62957 6019960.07539l-2.91657 4.38052 -1.66979 7.06482 "/>
<path d="M-60916.1627 6019998.10021l27.3178 12.56512 "/>
<path d="M-60957.75166 6019978.99724l1.45829 -9.1892 -1.22451 -5.78031 "/>
<path d="M-61116.48212 6019942.20745l-15.8185 -10.14439 -8.66066 7.16365 -14.92794 2.68431 -36.7243 32.55749 "/>
<path d="M-59908.7881 6019852.5708l-11.46591 17.40701 -60.20158 91.33269 -42.31254 -25.72325 "/>
<path d="M-61011.18501 6019630.3443l21.02825 -21.24472 "/>
<path d="M-60910.84162 6019449.33435l5.25428 -12.13773 -6.55672 -2.79975 -0.23377 -7.80637 "/>
<path d="M-61088.17357 6019340.01179l-70.65448 -80.41999 -19.98185 -23.25491 -23.76671 -27.65234 -1.34697 -1.56461 "/>
<path d="M-60658.30223 6019223.63889l-2.67167 8.35005 "/>
<path d="M-60660.9739 6019231.98894l-5.59937 21.78914 -25.70367 1.11992 -15.97435 0.46115 -21.429 -9.15703 -15.017 -13.81791 -6.27842 -17.65533 -44.27176 8.91002 -5.9222 1.18581 -48.86926 71.92211 "/>
<path d="M-60662.09822 6019165.38598l-5.8888 7.03253 -2.05941 7.03253 "/>
<path d="M-60553.28342 6019326.83633l6.63464 9.68396 5.41013 8.34994 9.06141 9.71688 18.55696 3.47502 11.75534 -6.93357 9.75159 -17.80331 "/>
<path d="M-60500.27308 6019231.54426l6.12257 -3.19509 10.27479 -2.93157 14.80549 -5.5667 12.74608 -5.02321 9.29518 -4.43031 9.31744 -2.99746 "/>
<path d="M-60006.05907 6020108.41899l-16.56434 -9.00791 -23.5886 -12.23563 -4.33033 -15.67744 2.23752 -4.18285 40.75407 -61.80433 27.09516 -44.20033 "/>
<path d="M-59912.4839 6020199.99618l-110.29535 -63.49956 16.72019 -28.07763 34.48678 -57.967 110.28422 60.33837 "/>
<path d="M-61058.87428 6018950.94865l88.72163 60.84013 "/>
<path d="M-60032.8314 6019045.81559l15.67378 -34.22445 3.61788 -7.8891 "/>
<path d="M-60675.44543 6019033.95728l-19.70355 28.45992 -31.02474 45.1437 -72.19069 105.38927 3.11695 10.68873 2.49356 9.30528 8.96122 7.49362 "/>
<path d="M-60675.44543 6019033.95728l25.24726 14.85583 "/>
<path d="M-60700.68156 6019059.61732l5.53258 2.79987 20.43826 10.35952 "/>
<path d="M-60599.69252 6019079.90814l45.86363 27.70216 88.17617 53.27947 5.53258 3.34334 53.83411 69.92981 -29.88928 42.91943 74.91802 68.97368 -28.35307 42.35892 -71.85673 -44.84578 -35.63337 42.73772 -87.56391 -41.38724 -43.1363 65.10288 -35.38847 -20.12535 -22.2639 -14.13059 -9.38423 -13.6036 20.68316 -37.56647 "/>
<path d="M-60285.80495 6019354.50476l6.11144 -17.58921 "/>
<path d="M-60279.69351 6019336.91556l3.17261 -7.31238 3.77373 -8.71228 "/>
<path d="M-61096.95668 6019857.70892l17.20999 14.59092 "/>
<path d="M-61079.74669 6019872.29983l4.15222 3.52421 "/>
<path d="M-60939.85148 6019897.6939l-20.41599 -10.81964 -8.5716 -4.7758 -1.58074 -1.0375 -6.21163 -5.23691 "/>
<path d="M-60559.82901 6020076.19136l138.50371 70.15299 685.61674 347.23245 "/>
<path d="M-61138.22282 6019614.04022l29.39948 25.16427 4.66429 3.98543 "/>
<path d="M-61128.09274 6019762.75206l7.58086 -7.83901 16.69792 -17.24255 "/>
<path d="M-61059.18598 6019700.5009l11.90005 10.11173 6.74596 5.73107 -1.83677 1.61392 "/>
<path d="M-61041.78674 6019705.09565l-5.49918 5.51698 -28.41987 29.06703 "/>
<path d="M-61043.83502 6019676.35787l9.51782 -9.74946 3.80713 -3.88661 "/>
<path d="M-61056.40299 6019560.35182l0.2783 6.99927 0.62339 6.02761 0.41188 8.11914 0.62339 6.66988 0.62339 7.70741 0.8349 8.33322 1.66979 6.02758 1.87017 6.86748 2.29318 5.00651 1.79224 4.44657 "/>
<path d="M-61113.62121 6019644.26039l4.79787 -5.0559 7.2135 -11.03406 2.90544 -27.30524 "/>
<path d="M-60773.85186 6019523.46144l-43.89328 115.10077 -29.56646 51.64581 "/>
<path d="M-60737.72868 6019571.07306l-5.22088 12.69749 1.79224 11.64346 "/>
<path d="M-60697.56461 6019485.97801l-10.75346 23.13895 -20.15996 40.4642 0.15585 11.93995 "/>
<path d="M-60747.73631 6019445.82643l-9.99649 29.85843 "/>
<path d="M-60839.69734 6019301.60528l17.92244 11.94029 "/>
<path d="M-61037.95735 6019173.06083l167.65829 112.27269 "/>
<path d="M-60868.50682 6019331.46421l109.42706 65.8441 "/>
<path d="M-60941.51014 6019278.31755l57.47425 36.72673 "/>
<path d="M-61080.50366 6019190.23863l117.04131 77.32438 "/>
<path d="M-61224.71806 6019056.47158l62.70627 40.911 "/>
<path d="M-60554.84189 6020086.81315l122.2622 62.36365 "/>
<path d="M-60407.57734 6020159.89731l41.21048 21.70446 "/>
<path d="M-61060.80011 6020102.78699l27.86327 -30.26797 6.63464 -1.72913 7.83689 -7.65758 3.22827 -7.32823 14.4604 -15.69396 4.68655 -2.48666 17.46603 -18.65824 0.5566 -3.34301 5.29881 -6.65308 10.61988 -11.65937 6.62351 -4.72633 5.19862 -3.01366 4.30806 -5.25332 6.56785 -9.91379 -1.12433 -6.37316 -1.50281 -8.61283 18.05602 -36.42757 5.37673 -10.3091 32.24926 -57.91891 1.40263 -1.63036 7.54746 -8.81056 11.67741 -2.71728 58.86575 29.14893 64.95492 31.93197 6.32295 3.1125 9.60687 4.74285 2.97223 1.46567 146.67456 75.47351 13.06891 5.81323 1.19112 3.42536 -10.05215 21.07909 -6.51219 13.63551 -5.29881 11.49465 9.02801 12.84501 "/>
<path d="M-61080.79309 6020124.95269l19.99298 -22.1657 "/>
<path d="M-61010.07182 6019918.8391l9.59574 6.91664 4.5307 3.2607 6.70143 3.9853 5.62163 3.27717 6.89068 -0.54345 12.64589 6.76842 "/>
<path d="M-61125.84409 6019749.90662l5.3322 5.00643 18.12281 18.8729 "/>
<path d="M-61106.90864 6019731.39598l4.76447 4.36417 11.90005 10.90217 "/>
<path d="M-61132.21156 6019898.45144l9.41763 -8.15178 9.17273 10.62202 "/>
<path d="M-61094.02898 6019847.23506l-11.42138 13.5699 -3.27279 3.88652 "/>
<path d="M-61070.65189 6019819.23883l-12.46778 14.82154 "/>
<path d="M-61062.08028 6019809.02842l-1.64753 2.00915 -2.13733 2.60201 "/>
<path d="M-61101.84361 6019863.63751l-3.60675 -2.83255 -4.09656 -3.45835 -8.3267 -17.7364 "/>
<path d="M-61076.84125 6019832.72644l-3.16147 -2.53613 -2.66054 -2.33851 0.31169 -5.68159 "/>
<path d="M-61061.13407 6019813.03025l-2.59374 -1.99268 -11.2878 -8.66239 "/>
<path d="M-61036.36548 6019777.07964l-2.69393 1.07045 -5.49918 6.60385 -0.08906 1.8774 "/>
<path d="M-61036.59925 6019785.49503l-4.76447 -3.7054 -5.1207 -4.05124 -2.32658 -15.72741 4.46391 -4.8088 "/>
<path d="M-61027.76049 6019774.90581l3.82939 4.69351 "/>
<path d="M-61022.35036 6019778.18303l-3.69581 -5.31932 "/>
<path d="M-61042.75522 6019747.9304l12.84627 11.19859 "/>
<path d="M-60656.76602 6019316.11479l9.32857 -1.46577 9.06141 0.75759 13.02438 4.56201 12.15609 7.03241 8.09293 8.53111 3.42864 5.92895 0.74584 3.39268 "/>
<path d="M-60657.4228 6019380.8391l13.80362 -24.83563 6.32295 1.36695 7.41388 -2.47039 5.10956 -5.41839 1.49168 -6.39009 -2.89431 -7.42766 -5.35447 -3.83735 -6.73483 -0.55996 -5.07617 1.92691 -4.39712 5.22077 -1.92583 6.60419 2.20413 6.86769 3.84052 4.11732 "/>
<path d="M-60449.63384 6019276.22593l3.91845 10.52396 1.81451 11.77562 -1.3581 11.31446 -2.25979 5.41842 -6.33408 4.99021 -6.34521 4.06793 -5.43239 2.71744 -7.84802 3.22799 "/>
<path d="M-60494.15051 6019228.34918l1.51395 4.97379 3.94071 4.33148 3.94071 4.34795 6.50106 4.52911 6.70143 4.92437 9.06141 4.5291 12.21175 3.73857 "/>
<path d="M-60450.2795 6019259.72355l4.5307 0.5929 8.02614 -2.70099 "/>
<path d="M-60539.45754 6019231.97247l1.61413 5.94549 12.25628 37.63272 -10.99837 22.43133 -13.79248 17.86926 -2.90544 10.98505 -43.22536 -16.56816 -40.39784 -25.11581 -11.58836 -10.75453 -18.07829 -20.61975 12.32307 30.02379 1.58074 16.04119 -4.09656 16.27173 -10.50856 9.27224 -6.77936 11.24855 -3.33958 13.29072 1.29131 10.01332 6.42313 10.83677 5.34334 5.41838 6.91294 4.64432 9.99649 4.39728 9.9297 1.69633 6.59011 -1.10344 6.63464 -3.2115 8.27104 -5.79717 6.6903 -8.15228 4.21901 -7.32882 3.25053 -8.51461 0.91282 -7.97114 6.45653 -4.43024 41.18821 -13.58719 "/>
<path d="M-60541.06054 6019226.01051l1.603 5.96196 "/>
<path d="M-60674.15412 6019324.5965l-3.74033 -2.33865 -3.31732 -2.09161 "/>
<path d="M-60674.15412 6019324.5965l8.79424 -16.20584 -7.10218 -4.13381 "/>
<path d="M-60439.58169 6019171.34799l20.68316 27.63599 "/>
<path d="M-60399.39536 6019217.95691l-10.54196 -6.68663 -2.50469 -3.12922 "/>
<path d="M-60418.89853 6019198.98398l6.45653 9.15708 "/>
<path d="M-60354.92322 6019114.97228l3.59562 -5.61618 "/>
<path d="M-60311.77578 6019116.89923l-7.71444 -4.59506 "/>
<path d="M-60319.49023 6019112.30418l-3.4509 -1.91049 -3.67354 -2.1246 "/>
<path d="M-60481.66046 6019135.93822l14.59399 8.44895 "/>
<path d="M-60455.27774 6019153.72547l-4.96485 -4.69385 "/>
<path d="M-60460.24259 6019149.03162l-6.82388 -4.64445 "/>
<path d="M-60808.65033 6019214.79475l-214.24549 -122.64956 "/>
<path d="M-60634.24609 6020174.52066l24.9467 -51.54411 "/>
<path d="M-60576.5158 6020038.82561l24.46802 -50.75445 "/>
<path d="M-61109.02371 6019530.6419l0.2449 11.26475 4.67542 4.80892 7.66991 4.94067 "/>
<path d="M-60576.78296 6019900.87227l-20.09317 40.38003 "/>
<path d="M-60547.62839 6019846.88922l-13.83701 29.34653 "/>
<path d="M-60279.69351 6019336.91556l-13.31381 -10.98504 -7.78123 -6.24188 0.75697 -4.67729 1.55847 -7.92176 20.92806 8.05352 "/>
<path d="M-60291.45998 6019311.47044l2.11507 -4.15028 "/>
<path d="M-61054.62188 6019389.97952l19.8594 -12.97775 36.26789 -23.71573 2.69393 -2.12454 17.67754 -13.94949 "/>
<path d="M-61034.76248 6019377.00177l-0.26717 -3.91968 "/>
<path d="M-61052.017 6019401.5903l8.82764 13.42238 "/>
<path d="M-60991.43694 6019502.61171l-16.56434 -8.28391 -14.42701 -7.67456 "/>
<path d="M-60984.2457 6019488.46483l9.90743 5.20421 11.31006 -10.52371 "/>
<path d="M-61106.54129 6019535.9449l4.94259 -0.29644 "/>
<path d="M-59955.36417 6019790.48497l-4.75334 7.74017 12.0559 7.11436 1.92583 8.87647 -6.75709 9.50226 -11.05403 15.66142 -8.59386 14.73917 "/>
<path d="M-60421.11379 6020053.07039l80.03871 -167.34891 "/>
<path d="M-60585.59947 6020191.03776l21.20636 11.31329 "/>
<path d="M-60608.25298 6020179.41157l-13.06891 -6.38947 -1.73658 -7.26227 9.87404 -20.89758 "/>
<path d="M-60937.21321 6019784.34224l20.88354 16.27082 59.2331 -107.55598 -9.35084 -9.7165 "/>
<path d="M-60641.0811 6020159.10686l-104.90749 -54.17906 "/>
<path d="M-60824.52449 6019841.58641l-29.25476 -14.32748 "/>
<path d="M-60789.88187 6019856.80316l31.34757 17.32466 "/>
<path d="M-60899.76534 6019988.77928l-33.74094 -17.30796 "/>
<path d="M-60606.90602 6020063.42873l6.07804 -11.18173 2.6828 -14.93644 0.90169 -15.38111 7.15784 -14.1625 "/>
<path d="M-60727.33144 6020012.60855l98.54001 48.56407 10.09668 8.2669 "/>
<path d="M-60595.70728 6020081.57636l-2.49356 3.75468 -3.62902 2.68427 -4.3192 1.26803 -4.50844 -0.29642 -2.86091 -1.51505 -2.90544 -1.56445 -2.72733 -3.59 -1.3247 -4.31459 0.22264 -4.51221 0.73471 -2.23964 0.82376 -1.81147 1.65866 -1.95968 3.60675 -2.70074 6.52332 -1.35037 4.38599 1.02101 3.78486 2.45372 2.70506 3.60647 1.31357 4.29812 -0.2449 4.51221 -0.74584 2.2561 "/>
<path d="M-60743.10542 6019987.4289l7.30256 -40.41275 1.50281 -8.38229 -3.17261 -28.0124 1.8479 -4.82519 "/>
<path d="M-60831.68233 6019922.11628l8.8833 -16.45175 "/>
<path d="M-60822.79904 6019905.66453l4.73108 -8.74463 "/>
<path d="M-60883.90231 6019875.47821l4.01863 -7.92125 "/>
<path d="M-60595.70728 6020081.57636l20.24902 9.86426 3.58449 1.74559 "/>
<path d="M-60806.90262 6019870.75181l-3.7626 9.63395 -2.21526 4.94048 -3.56222 7.97064 "/>
<path d="M-60884.99324 6019853.13072l6.9352 5.63217 -0.20038 4.80875 "/>
<path d="M-60648.40593 6019941.48285l2.4045 -5.18747 "/>
<path d="M-60616.34591 6019924.57004l-4.47504 -2.42082 -1.93696 -1.05396 "/>
<path d="M-60587.247 6019880.71513l5.10956 2.48671 "/>
<path d="M-60582.83875 6019872.2669l-4.40825 8.44823 -3.50656 7.22957 "/>
<path d="M-60590.75356 6019887.9447l-1.98149 -1.00456 -4.3192 -2.20675 -3.84052 -2.09147 -1.6364 -0.88929 "/>
<path d="M-60582.83875 6019872.2669l-1.99262 -1.02103 -4.47504 -2.30556 -3.62902 -2.20675 -1.3247 -0.80695 "/>
<path d="M-60564.9831 6019794.84911l-3.37298 7.72369 "/>
<path d="M-60648.42819 6019752.78861l-2.54922 5.84632 "/>
<path d="M-60665.01479 6019744.60375l-2.78299 5.64871 "/>
<path d="M-60624.28299 6019951.80838l5.07617 4.56167 3.38411 2.6349 12.94646 6.57078 31.01361 12.10406 "/>
<path d="M-60571.86264 6019977.6798l-25.16934 -16.781 -6.9686 -7.31185 -3.06129 -3.21129 -5.0873 -5.38508 -5.48805 -4.74283 "/>
<path d="M-60547.32783 6019823.35593l4.58636 3.72185 5.81088 5.86274 8.36009 21.78762 -21.90768 43.95385 -22.87616 44.72763 -4.33033 4.62755 -26.31593 5.54976 "/>
<path d="M-60560.6639 6019893.69212l10.18573 4.98988 14.60512 7.13075 "/>
<path d="M-60617.63722 6019940.24774l-2.14847 -2.93133 -2.33771 -1.4492 "/>
<path d="M-61100.39645 6019734.12976l32.41624 -33.46417 "/>
<path d="M-61411.38971 6018974.45137l6.03352 -2.4705 8.20425 -1.94346 11.64402 3.57399 23.88916 15.5312 43.85988 29.25062 449.02943 289.42102 122.74087 79.10201 18.92431 11.42963 "/>
<path d="M-60724.7377 6019395.95784l-19.43638 -11.75902 -122.68521 -79.21732 -449.31886 -290.12932 -43.34781 -29.30004 -23.88916 -15.51473 -7.01313 -2.38815 -6.56785 -1.05408 -12.0893 1.94346 -6.31182 2.94813 "/>
<path d="M-59932.42122 6019422.95081l-18.44564 2.4539 -84.33565 9.68385 -45.31816 4.75958 -20.23788 2.47037 -102.44733 10.49082 -134.0398 11.66011 -34.68715 3.14559 -38.54994 2.93149 -122.13975 12.73057 -10.15234 1.03755 -10.29705 0.29644 -9.55121 0 -8.66066 -1.33399 "/>
<path d="M-60744.17408 6019384.19882l11.38798 13.81767 3.29506 5.69834 5.07617 10.88612 "/>
<path d="M-60745.98859 6019386.91624l9.60687 12.45072 5.76635 10.49087 2.17073 5.27013 "/>
<path d="M-61142.58654 6020166.23739l162.28155 -176.61824 6.80162 -8.85983 4.82013 -6.29081 6.12257 -11.64295 1.12433 -2.04205 76.63234 -138.72859 77.95704 -141.1023 1.29131 -3.59017 81.26323 -224.81664 1.34697 -9.86499 0.14472 -9.70031 -1.61413 -18.37957 "/>
<path d="M-61143.97803 6020160.17727l159.91045 -174.18109 6.84615 -8.44813 4.06316 -5.02277 7.5252 -13.78381 75.66386 -138.66275 76.25385 -139.71896 2.14847 -5.82991 82.79944 -224.52027 1.0464 -8.66275 0.74584 -8.9592 -1.46942 -17.25966 "/>
</g>
</svg>
